<?xml version="1.0" standalone="no"?>
<!DOCTYPE svg PUBLIC "-//W3C//DTD SVG 1.1//EN" "http://www.w3.org/Graphics/SVG/1.1/DTD/svg11.dtd" >
<svg xmlns="http://www.w3.org/2000/svg" xmlns:xlink="http://www.w3.org/1999/xlink" version="1.1">
<metadata>
Created by FontForge 20170106 at Sun Jul  5 04:32:03 2015
 By Araz Gholami,,,
Copyright (c) 2014 by www.fontiran.com . All rights reserved.
</metadata>
<defs>
<font id="IRAN" horiz-adv-x="0" >
  <font-face 
    font-family="IRAN"
    font-weight="400"
    font-stretch="normal"
    units-per-em="2048"
    panose-1="2 11 6 6 3 8 4 2 2 4"
    ascent="1638"
    descent="-410"
    x-height="1062"
    cap-height="1466"
    bbox="-280.5 -1161 2666 2183"
    underline-thickness="102"
    underline-position="-511"
    unicode-range="U+0020-FEFC"
  />
<missing-glyph horiz-adv-x="1229" 
d="M102 -362v1806h1024v-1806h-1024zM217 -248h795v1577h-795v-1577z" />
    <glyph glyph-name="uniFDF2" unicode="&#x627;&#xfedf;&#xfee0;&#xfeea;" horiz-adv-x="2056" arabic-form="isolated" 
d="M1095 1421q2 32 2 46q0 87 -35 149q26 56 69 56q18 -60 18 -130q0 -121 -54 -121zM1017 1117q-33 -1 -57.5 7.5t-38.5 21.5t-22 33.5t-10 38.5t0 42.5t5 39.5l7 35q3 9 13 29q15 24 30 9q2 -2 -2 -45t9 -80.5t54 -35.5q24 1 41 10t25.5 19.5t14 33t7 36.5t3.5 45
q0 13 6 23.5t17 11.5q9 1 16 -9.5t10 -26.5q0 -2 3.5 -18.5t4.5 -20.5t4 -18t6 -18.5t7.5 -14.5t10 -14t13 -9t16.5 -6.5t20 -0.5q22 1 43 7q41 14 40 41q-1 29 -33 91q-18 34 -29 51l18 43q17 39 26 43q3 0 18 -29.5t30 -77.5t15 -88q0 -78 -34 -124t-85 -52
q-45 -3 -67 6.5t-40 34.5q-31 -62 -115 -64zM1624 1191q92 -505 92 -821q0 -369 -259 -369q-254 0 -326 239q-72 -239 -274 -239h-22q-236 0 -281 277q-108 -127 -125 -127h-56q-83 0 -175 29q-120 39 -120 108q0 150 82 253q58 73 356 192l1 86l113 126q2 -4 6.5 -63
t4.5 -81v-104q0 -126 10 -223q13 -136 39 -190q45 -91 152 -91h17q93 0 150 63t57 156v266q0 58 -14 265l141 119v-536q0 -134 59 -226q68 -107 196 -107q144 0 144 150q0 180 -101 719zM442 330q57 0 101 10l-20 264q-87 -25 -190 -71q-150 -69 -150 -112q0 -44 112 -72
q77 -19 147 -19zM1872 -13q-5 -7 -8.5 -8.5t-5 1t-1.5 6.5q-7 564 -32 956q-13 220 -25 370q70 69 82 81q6 5 14 12t14 12t13.5 12t12.5 11t12 9l10.5 7.5t8.5 5t7 2t5 -0.5q6 -6 7 -21q1 -3 1 -15q4 -165 2 -407q0 -391 -30 -800q-21 -116 -87 -233z" />
    <glyph glyph-name="uniFDFC" unicode="&#x631;&#xfef3;&#xfe8e;&#x644;" horiz-adv-x="2680" arabic-form="isolated" 
d="M1227 1652q2 0 4 -2q7 -12 7 -31q0 -285 -3 -445l-3 -239q-10 -632 -10 -729v-55q12 -361 -142 -545t-463 -184q-112 0 -211 32t-176.5 102t-117.5 170t-29 248t82 325q7 16 23 57q57 143 88 173q24 23 43 2q8 -8 9 -18.5t-5.5 -29t-16 -40t-25 -62.5t-28.5 -86
q-19 -67 -30 -122t-14.5 -118.5t6 -114t37 -100.5t73.5 -85.5t120 -61t172 -34.5q253 -25 383.5 113.5t118.5 378.5q-2 35 -11 183.5t-15 235.5l-13 225l-12 214l-29 486l83 77q84 80 105 80zM1672 57q-118 11 -207.5 107.5t-89.5 247.5q0 289 -24.5 652.5t-37.5 438.5
q20 19 42.5 39.5t31.5 28.5t26.5 25.5t26.5 26t20.5 18.5t17.5 13t8 0q8 -6 8 -33q16 -276 20.5 -469t1 -419t-3.5 -271q0 -120 98 -167q50 -26 99 -26h71q94 6 120 12q118 21 128 85q13 80 -69 270q-17 37 -85 169l57 106q52 88 66 101q7 6 12 6q15 0 53.5 -99t68.5 -249.5
t15 -260.5q-20 -129 -124.5 -241t-205.5 -112h-144v1zM2332 748q7 0 25.5 -35t41.5 -99t42.5 -141t29 -175t1.5 -188q-7 -95 -41.5 -192.5t-84.5 -177.5t-110.5 -151t-119 -120t-109 -77t-82.5 -28q-47 0 -134 54t-108 86q-9 10 -3 23t23 13q100 0 221 61.5t217.5 148.5
t162.5 186t66 171q0 93 -65.5 236.5t-107.5 192.5q36 72 79.5 142t55.5 70zM1810 -169l-138 -138l-142 144l141 143l138 -138l138 138l142 -144l-142 -143z" />
    <glyph glyph-name="uniFEF5" unicode="&#xfedf;&#xfe82;" horiz-adv-x="1153" arabic-form="isolated" 
d="M1007 1446q0 -6 1 -9l2 -27q14 -173 21 -334q16 -381 -2 -534q-14 -117 -44.5 -209.5t-71.5 -155t-97.5 -108.5t-115 -72.5t-131.5 -44.5q-82 -19 -241 -3q-150 14 -155 42q0 3 1 6q1 5 82 25t210 61t224 91q-123 293 -334 724q-46 93 -153 301q37 80 40 85
q18 36 32.5 57.5t20.5 13.5q4 -4 72.5 -156t167.5 -376t172 -394q46 -106 39 -220q189 122 178 290q-24 437 -48 651l-23 194q54 58 70 74q33 33 53 48.5t25 8.5q5 -8 5 -29zM1009 1446q0 -4 -2 0h2zM578 1546q46 0 91 16t68 28.5t27 8.5t-1.5 -18.5t-21.5 -35.5t-40 -41.5
t-64 -36.5t-87 -21q-45 -6 -132.5 5t-113.5 9q-29 -1 -57.5 -28t-47.5 -51t-28 -21q-10 4 2 59.5t42.5 110t63.5 54.5q44 0 145.5 -19t153.5 -19z" />
    <glyph glyph-name="uniFEF6" unicode="&#xfee0;&#xfe82;" horiz-adv-x="1189" arabic-form="final" 
d="M1197 192v-192h-10q-81 0 -158 81.5t-120 222.5q-24 -76 -63.5 -138t-81 -100.5t-97 -70t-98.5 -48t-99 -32.5q-72 -23 -233 -6q-141 16 -160 43q-3 5 -1 10q1 5 81 24t209.5 60.5t225.5 93.5q-165 392 -334 727q-48 99 -153 300l40 86q18 36 32.5 57t20.5 13
q3 -3 71.5 -154.5t168.5 -377t172 -393.5q49 -117 39 -224q198 127 198 302q0 164 -44 498l-47 334q12 12 35.5 37.5t34.5 36.5q33 33 53 48.5t25 8.5q2 -3 3 -15t2 -15q4 -9 12 -131.5t23 -368.5t25 -399q6 -90 31 -156.5t59.5 -99t66.5 -47.5t61 -15h10zM911 1409
q0 -2 -2 0h2zM575 1544q46 0 91 16t68 28.5t27 8.5t-1.5 -18.5t-21.5 -35.5t-40 -41.5t-64 -36.5t-87 -21q-45 -6 -132.5 5t-113.5 9q-29 -1 -57.5 -28t-47.5 -51t-28 -21q-10 4 2 59.5t42.5 110t63.5 54.5q44 0 145.5 -19t153.5 -19z" />
    <glyph glyph-name="uniFEF7" unicode="&#xfedf;&#xfe84;" horiz-adv-x="1018" arabic-form="isolated" 
d="M905 1446q0 -6 1 -9l2 -27q14 -173 21 -334q16 -381 -2 -534q-14 -117 -44.5 -209.5t-71.5 -155t-97.5 -108.5t-115 -72.5t-131.5 -44.5q-82 -19 -241 -3q-150 14 -155 42q0 3 1 6q1 5 82 25t210 61t224 91q-123 293 -334 724q-46 93 -153 301q38 80 40 85
q18 36 32.5 57.5t20.5 13.5q4 -4 72.5 -156t167.5 -376t172 -394q46 -106 39 -220q189 122 178 290q-24 437 -48 651l-23 194q54 58 70 74q33 33 53 48.5t25 8.5q5 -8 5 -29zM907 1446q0 -4 -2 0h2zM82 1444l85 50l25 16q-44 24 -73.5 67.5t-26.5 94.5q3 61 78.5 139.5
t141.5 75.5q107 -5 162 -114q4 -8 2 -13.5t-10 -6.5t-25 7q-43 25 -120 28q-55 2 -104 -31t-51 -66q-1 -13 15.5 -35t44 -43t69 -32.5t83.5 -4.5v-1l51 9q58 11 76 15q3 1 5.5 0.5t0.5 -5.5l-17 -48q-9 -23 -15 -44q-276 -49 -424 -148z" />
    <glyph glyph-name="uniFEF8" unicode="&#xfee0;&#xfe84;" horiz-adv-x="1182" arabic-form="final" 
d="M1197 192v-192h-10q-81 0 -158 81.5t-120 222.5q-24 -76 -63.5 -138t-81 -100.5t-97 -70t-98.5 -48t-99 -32.5q-72 -23 -233 -6q-141 16 -160 43q-3 5 -1 10q1 5 81 24t209.5 60.5t225.5 93.5q-165 392 -334 727q-48 99 -153 300l40 86q18 36 32.5 57t20.5 13
q3 -3 71.5 -154.5t168.5 -377t172 -393.5q49 -117 39 -224q198 127 198 302q0 164 -44 498l-47 334q12 12 35.5 37.5t34.5 36.5q33 33 53 48.5t25 8.5q2 -3 3 -15t2 -15q4 -9 12 -131.5t23 -368.5t25 -399q6 -90 31 -156.5t59.5 -99t66.5 -47.5t61 -15h10zM911 1409
q0 -2 -2 0h2zM82 1462l85 50l25 16q-44 24 -73.5 67.5t-26.5 94.5q3 61 78.5 139.5t141.5 75.5q107 -5 162 -114q4 -8 2 -13.5t-10 -6.5t-25 7q-43 25 -120 28q-55 2 -104 -31t-51 -66q-1 -13 15.5 -35t44 -43t69 -32.5t83.5 -4.5v-1l51 9q58 11 76 15q3 1 5.5 0.5t0.5 -5.5
l-17 -48q-9 -23 -15 -44q-276 -49 -424 -148z" />
    <glyph glyph-name="uniFEF9" unicode="&#xfedf;&#xfe88;" horiz-adv-x="1039" arabic-form="isolated" 
d="M905 1446q0 -6 1 -9l2 -27q14 -173 21 -334q16 -381 -2 -534q-14 -117 -44.5 -209.5t-71.5 -155t-97.5 -108.5t-115 -72.5t-131.5 -44.5q-82 -19 -241 -3q-150 14 -155 42q0 3 1 6q1 5 82 25t210 61t224 91q-123 293 -334 724q-46 93 -153 301q38 80 40 85
q18 36 32.5 57.5t20.5 13.5q4 -4 72.5 -156t167.5 -376t172 -394q46 -106 39 -220q189 122 178 290q-24 437 -48 651l-23 194q54 58 70 74q33 33 53 48.5t25 8.5q5 -8 5 -29zM907 1446q0 -4 -2 0h2zM465 -531l85 50l25 16q-44 24 -73.5 67.5t-26.5 94.5q3 61 78.5 139.5
t141.5 75.5q107 -5 162 -114q4 -8 2 -13.5t-10 -6.5t-25 7q-43 25 -120 28q-55 2 -104 -31t-51 -66q-1 -13 15.5 -35t44 -43t69 -32.5t83.5 -4.5v-1l51 9q58 11 76 15q3 1 5.5 0.5t0.5 -5.5l-17 -48q-9 -23 -15 -44q-276 -49 -424 -148z" />
    <glyph glyph-name="uniFEFA" unicode="&#xfee0;&#xfe88;" horiz-adv-x="1181" arabic-form="final" 
d="M1197 192v-192h-10q-81 0 -158 81.5t-120 222.5q-24 -76 -63.5 -138t-81 -100.5t-97 -70t-98.5 -48t-99 -32.5q-72 -23 -233 -6q-141 16 -160 43q-3 5 -1 10q1 5 81 24t209.5 60.5t225.5 93.5q-165 392 -334 727q-48 99 -153 300l40 86q18 36 32.5 57t20.5 13
q3 -3 71.5 -154.5t168.5 -377t172 -393.5q49 -117 39 -224q198 127 198 302q0 164 -44 498l-47 334q12 12 35.5 37.5t34.5 36.5q33 33 53 48.5t25 8.5q2 -3 3 -15t2 -15q4 -9 12 -131.5t23 -368.5t25 -399q6 -90 31 -156.5t59.5 -99t66.5 -47.5t61 -15h10zM911 1409
q0 -2 -2 0h2zM643 -484l85 50l25 16q-44 24 -73.5 67.5t-26.5 94.5q3 61 78.5 139.5t141.5 75.5q107 -5 162 -114q4 -8 2 -13.5t-10 -6.5t-25 7q-43 25 -120 28q-55 2 -104 -31t-51 -66q-1 -13 15.5 -35t44 -43t69 -32.5t83.5 -4.5v-1l51 9q58 11 76 15q3 1 5.5 0.5
t0.5 -5.5l-17 -48q-9 -23 -15 -44q-276 -49 -424 -148z" />
    <glyph glyph-name="uniFEFB" unicode="&#xfedf;&#xfe8e;" horiz-adv-x="1022" arabic-form="isolated" 
d="M905 1446q0 -6 1 -9l2 -27q14 -173 21 -334q16 -381 -2 -534q-14 -117 -44.5 -209.5t-71.5 -155t-97.5 -108.5t-115 -72.5t-131.5 -44.5q-82 -19 -241 -3q-150 14 -155 42q0 3 1 6q1 5 82 25t210 61t224 91q-123 293 -334 724q-46 93 -153 301q38 80 40 85
q18 36 32.5 57.5t20.5 13.5q4 -4 72.5 -156t167.5 -376t172 -394q46 -106 39 -220q189 122 178 290q-24 437 -48 651l-23 194q54 58 70 74q33 33 53 48.5t25 8.5q5 -8 5 -29zM907 1446q0 -4 -2 0h2z" />
    <glyph glyph-name="uniFEFC" unicode="&#xfee0;&#xfe8e;" horiz-adv-x="1191" arabic-form="final" 
d="M1197 192v-192h-10q-81 0 -158 81.5t-120 222.5q-24 -76 -63.5 -138t-81 -100.5t-97 -70t-98.5 -48t-99 -32.5q-72 -23 -233 -6q-141 16 -160 43q-3 5 -1 10q1 5 81 24t209.5 60.5t225.5 93.5q-165 392 -334 727q-48 99 -153 300l40 86q18 36 32.5 57t20.5 13
q3 -3 71.5 -154.5t168.5 -377t172 -393.5q49 -117 39 -224q198 127 198 302q0 164 -44 498l-47 334q12 12 35.5 37.5t34.5 36.5q33 33 53 48.5t25 8.5q2 -3 3 -15t2 -15q4 -9 12 -131.5t23 -368.5t25 -399q6 -90 31 -156.5t59.5 -99t66.5 -47.5t61 -15h10zM911 1409
q0 -2 -2 0h2z" />
    <glyph glyph-name="uni06440671.isol" unicode="&#xfedf;&#xfb51;" horiz-adv-x="1035" 
d="M905 1417q0 -6 1 -9l2 -27q14 -173 21 -334q16 -381 -2 -534q-14 -117 -44.5 -209.5t-71.5 -155t-97.5 -108.5t-115 -72.5t-131.5 -44.5q-82 -19 -241 -3q-150 14 -155 42q0 3 1 6q1 5 82 25t210 61t224 91q-123 293 -334 724q-46 93 -153 301q38 80 40 85
q18 36 32.5 57.5t20.5 13.5q4 -4 72.5 -156t167.5 -376t172 -394q46 -106 39 -220q189 122 178 290q-24 437 -48 651l-23 194q54 58 70 74q33 33 53 48.5t25 8.5q5 -8 5 -29zM907 1417q0 -4 -2 0h2zM701 1622q35 -47 35 -113q0 -55 -26 -85q-28 -35 -84 -52q-37 -8 -82 -8
q-64 4 -117.5 34t-97.5 31q-11 0 -21 -3.5t-20.5 -12t-17.5 -14.5t-18.5 -18.5t-15.5 -16.5q-17 -20 -36 -6q-17 12 -1 36q47 72 83 104.5t77 32.5q12 0 47 -16q51 76 102 115t111 39q47 0 82 -47zM633 1475q41 8 58 26q-35 65 -92 65q-64 0 -141 -71q28 -15 86 -21
q61 -5 89 1z" />
    <glyph glyph-name="uni06440671.fina" unicode="&#xfee0;&#xfb51;" horiz-adv-x="1190" 
d="M1197 192v-192h-10q-81 0 -158 81.5t-120 222.5q-24 -76 -63.5 -138t-81 -100.5t-97 -70t-98.5 -48t-99 -32.5q-72 -23 -233 -6q-141 16 -160 43q-3 5 -1 10q1 5 81 24t209.5 60.5t225.5 93.5q-165 392 -334 727q-48 99 -153 300l40 86q18 36 32.5 57t20.5 13
q3 -3 71.5 -154.5t168.5 -377t172 -393.5q49 -117 39 -224q198 127 198 302q0 164 -44 498l-47 334q12 12 35.5 37.5t34.5 36.5q33 33 53 48.5t25 8.5q2 -3 3 -15t2 -15q4 -9 12 -131.5t23 -368.5t25 -399q6 -90 31 -156.5t59.5 -99t66.5 -47.5t61 -15h10zM911 1409
q0 -2 -2 0h2zM743 1641q35 -47 35 -113q0 -55 -26 -85q-28 -35 -84 -52q-37 -8 -82 -8q-64 4 -117.5 34t-97.5 31q-11 0 -21 -3.5t-20.5 -12t-17.5 -14.5t-18.5 -18.5t-15.5 -16.5q-17 -20 -36 -6q-17 12 -1 36q47 72 83 104.5t77 32.5q12 0 47 -16q51 76 102 115t111 39
q47 0 82 -47zM675 1494q41 8 58 26q-35 65 -92 65q-64 0 -141 -71q28 -15 86 -21q61 -5 89 1z" />
    <glyph glyph-name="uni066E.init" unicode="&#x66e;" horiz-adv-x="487" 
d="M-103 96q0 40 28 68t68 28h88q65 2 108 11q107 21 117 76q9 69 -64 245q-55 115 -76 152l53 96q53 96 69 96q7 0 24 -36t37.5 -94.5t38 -131.5t25 -147t-1.5 -141q-18 -118 -111.5 -218t-185.5 -100h-121q-40 0 -68 28t-28 68z" />
    <glyph glyph-name="uni066E.medi" unicode="&#x66e;" horiz-adv-x="628" 
d="M-107 96q0 40 28 68t68 28h44q52 0 115 23q131 47 134 164q3 46 -17 127q-11 38 -19 60l49 67q48 69 59 58l2 -8q2 -8 5 -23t6.5 -35t7 -48t7 -58t5.5 -68.5t3 -77.5q0 -9 1.5 -23t14 -44t34 -53.5t67 -42t107.5 -18.5h19v-192h-7q-82 0 -164.5 49.5t-134.5 122.5v-3
q-46 -71 -127 -120t-178 -49h-33q-40 0 -68 28t-28 68z" />
    <glyph glyph-name="uni066E.fina" unicode="&#x66e;" horiz-adv-x="1858" 
d="M1698 489q-10 -32 -15 -66.5t-1.5 -77.5t19 -75.5t54.5 -55t97 -22.5h23v-192h-23q-55 0 -101.5 17t-77 46t-50 61t-29.5 67q-12 47 -15 86q-238 -286 -747 -286q-88 0 -151 3t-164 19t-167.5 44.5t-134 86t-93 137t-15 203.5t72.5 280q9 20 24.5 23.5t24.5 -9.5t3 -32
q-42 -112 -42 -202.5t28 -148t89 -99.5t120.5 -63t144 -33t138 -14.5t122.5 -2.5q101 0 190 9t157 23t127.5 37.5t100.5 44.5t78.5 52t59 53.5t43.5 55.5t31 50.5t22.5 45.5t16.5 35q23 42 49 38q20 -2 19 -28l-2 -10q-1 -3 -4.5 -19.5t-8.5 -37t-13 -43.5z" />
    <glyph glyph-name="uni066F.init" unicode="&#x66f;" horiz-adv-x="841" 
d="M-99 96q0 40 28 68t68 28h293q164 0 259 52t103 144l-15 -8q-81 -36 -230 -36q-68 0 -122 17.5t-85.5 44.5t-51.5 62.5t-27.5 67.5t-7.5 64q0 170 88 290.5t212 120.5q77 0 141 -48t103 -124.5t61.5 -162t27.5 -170.5q5 -106 -19 -192t-69.5 -144t-111 -96.5t-141 -56
t-162.5 -17.5h-246q-40 0 -68 28t-28 68zM637 570q-23 75 -56 130q-32 55 -81.5 93t-112.5 38q-90 0 -140 -54t-50 -117q0 -77 53.5 -105t161.5 -28q149 0 213 36z" />
    <glyph glyph-name="uni066F.medi" unicode="&#x66f;" horiz-adv-x="863" 
d="M-99 96q0 40 28 68t68 28h144q8 0 27 -0.5t31 -0.5t28.5 1.5t30.5 4.5q-2 2 -24.5 24t-32 34.5t-26 38t-23.5 56.5t-7 68q0 49 12.5 107.5t38 119t60.5 110.5t84 81.5t104 31.5q70 0 124.5 -42.5t84.5 -109t45 -136.5t15 -137q0 -33 -5.5 -62.5t-10 -46.5t-20 -43
t-19 -31.5t-26.5 -32.5l-22 -27q35 -8 107 -8h166v-192h-175q-86 0 -185 30q-51 15 -90 31q-36 -19 -75 -31q-88 -30 -179 -30h-182q-40 0 -68 28t-28 68zM524 317q84 64 84 135q0 72 -63 143.5t-136 71.5q-79 0 -134 -59t-55 -149q0 -79 111 -142q42 -26 110 -51
q52 25 83 51z" />
    <glyph glyph-name="uni066F.fina" unicode="&#x66f;" horiz-adv-x="1361" 
d="M1374 192v-192h-61q0 -184 -79.5 -321t-236.5 -212t-375 -73q-72 0 -141.5 17t-133.5 53t-115.5 87t-85.5 123.5t-46 159t6 197t68 233.5q5 11 12.5 30.5t14 35t15 36t16 36t16 31.5t17 26t16.5 16.5t16.5 6t15.5 -8.5q7 -7 7.5 -16.5t-5.5 -26.5t-14 -36t-22 -56.5
t-26 -77.5q-18 -60 -29 -115t-14.5 -119.5t6 -119t37.5 -107.5t74 -92t121 -66t174 -34q159 -12 292.5 27t218 134.5t84.5 231.5h-325q-97 0 -160.5 77.5t-59.5 228.5q2 110 51 225.5t121.5 189t138.5 73.5q50 0 93.5 -23t74.5 -60t57 -90.5t42.5 -106t29.5 -115t19.5 -110
t11.5 -97.5h63zM754 368q-5 -101 59 -138q58 -33 233 -37q46 -1 153 -1h1h5q-25 119 -60 202q-87 202 -209 202q-67 0 -123.5 -70.5t-58.5 -157.5z" />
    <glyph glyph-name="uni06AA.init" unicode="&#x6aa;" horiz-adv-x="1519" 
d="M-107 96q0 40 28 68t68 28q112 -1 326 1q448 7 553 15q273 16 397 35q60 9 88 17q13 60 -197.5 99t-480.5 44.5t-514 -4.5l-7 6q-6 6 -10 10.5t-12 15t-13 22t-11 29.5t-10 39q-13 58 5 109q8 20 19 33q115 51 212 89q244 97 466 153q131 34 284 69t253 54t101 15
q1 -5 -1 -14.5t-7 -21t-9 -21t-10.5 -22t-8.5 -16.5q-25 -46 -46 -73q-12 -17 -24 -30q-109 -19 -262 -54q-360 -83 -752 -206q197 3 379.5 -6.5t358.5 -34.5t291 -77t135 -126q16 -52 6 -94.5t-33.5 -74t-66.5 -56t-92.5 -40.5t-110.5 -27q-269 -49 -1192 -49h-4
q-40 0 -68 28t-28 68z" />
    <glyph glyph-name="uni06AA.medi" unicode="&#x6aa;" horiz-adv-x="1747" 
d="M-107 96q0 40 28 68t68 28q112 -1 326 1q448 7 553 15q273 16 397 35q60 9 88 17q13 60 -197.5 99t-480.5 44.5t-514 -4.5l-7 6q-6 6 -10 10.5t-12 15t-13 22t-11 29.5t-10 39q-13 58 5 109q8 20 19 33q115 51 212 89q244 97 466 153q131 34 284 69t253 54t101 15
q1 -5 -1 -14.5t-7 -21t-9 -21t-10.5 -22t-8.5 -16.5q-25 -46 -46 -73q-12 -17 -24 -30q-109 -19 -262 -54q-360 -83 -752 -206q197 3 379.5 -6.5t358.5 -34.5t291 -77t135 -126q9 -32 9 -58q13 -91 270 -91q21 0 21 -21v-151q0 -20 -21 -20q-124 0 -205 16q-82 17 -146 114
q-76 -54 -225 -81q-269 -49 -1192 -49h-4q-40 0 -68 28t-28 68z" />
    <glyph glyph-name="uni06AA.fina" unicode="&#x6aa;" horiz-adv-x="2414" 
d="M2428 192q21 0 21 -21v-151q0 -20 -21 -20q-124 0 -205 16q-82 17 -146 114q-76 -54 -225 -81q-208 -37 -508.5 -56t-523.5 -16q-88 1 -148.5 4t-160 17t-164 37t-133 68.5t-96.5 107.5t-24.5 158.5t54.5 216.5q14 32 37.5 22t13.5 -40q-22 -62 -21 -114.5t16.5 -90
t53.5 -68t74.5 -50t96 -34t102.5 -22t109 -12.5t99.5 -6t90.5 -2q81 -2 180 2.5t273 17.5t262 19q273 16 397 35q60 9 88 17q13 60 -197.5 99t-480.5 44.5t-514 -4.5l-6 6q-7 6 -11 10.5t-12 15t-13 22t-11 29.5t-10 39q-13 58 5 109q8 20 19 33q115 51 212 89
q244 97 466 153q131 34 284 69t253 54t101 15q1 -5 -1 -14.5t-7 -21t-9 -21t-10.5 -22t-8.5 -16.5q-25 -46 -46 -73q-12 -17 -24 -30q-109 -19 -262 -54q-360 -83 -752 -206q197 3 379.5 -6.5t358.5 -34.5t291 -77t135 -126q9 -31 9 -58q13 -91 270 -91z" />
    <glyph glyph-name="uni06C2.001" unicode="&#x6c2;" horiz-adv-x="841" 
d="M758 427q9 -106 -16.5 -191.5t-76.5 -139.5t-118.5 -83t-145.5 -29q-69 0 -131 26t-104.5 73t-60 113.5t2.5 147.5q22 94 79 226q25 54 51 100l52 95q53 96 72 96q4 0 25 -8t55 -26t73 -42.5t80 -61.5t75 -79t58 -99t30 -118zM412 175q54 0 114.5 12.5t108.5 40.5t48 63
q0 119 -186 240q-73 48 -185 92q-77 -98 -103 -184t-5 -142.5t75.5 -89t132.5 -32.5zM156 961l85 50l25 16q-44 24 -73.5 67.5t-26.5 94.5q3 61 78.5 139.5t141.5 75.5q107 -5 162 -114q4 -8 2 -13.5t-10 -6.5t-25 7q-43 25 -120 28q-55 2 -104 -31t-51 -66q-1 -13 15.5 -35
t44 -43t69 -32.5t83.5 -4.5l51 8q33 5 76 15q3 1 5.5 0.5t0.5 -5.5l-17 -48q-9 -23 -15 -44q-276 -49 -424 -148z" />
    <glyph glyph-name="uniFB51" unicode="&#x671;" horiz-adv-x="564" arabic-form="final" 
d="M525 0q-113 0 -202.5 88t-89.5 233q0 256 -22 576t-34 410q15 13 34 31.5t32 29.5q14 12 39 36.5t36.5 34t14.5 4.5q7 -7 7 -30q11 -193 16 -361t5 -257.5t-1.5 -226.5t-1.5 -201q0 -113 88 -151q43 -24 90 -24h39v-192h-50zM484 1807q35 -47 35 -113q0 -55 -26 -85
q-28 -35 -84 -52q-37 -8 -82 -8q-64 4 -117.5 34t-97.5 31q-11 0 -21 -3.5t-20.5 -12t-17.5 -14.5t-18.5 -18.5t-15.5 -16.5q-17 -20 -36 -6q-17 12 -1 36q47 72 83 104.5t77 32.5q12 0 47 -16q51 76 102 115t111 39q47 0 82 -47zM416 1660q41 8 58 26q-35 65 -92 65
q-64 0 -141 -71q28 -15 86 -21q61 -5 89 1z" />
    <glyph glyph-name="uniFB57" unicode="&#x67e;" horiz-adv-x="1828" arabic-form="final" 
d="M1662 489q-10 -32 -15 -66.5t-1.5 -77.5t19 -75.5t54.5 -55t97 -22.5h23v-192h-23q-55 0 -101.5 17t-77 46t-50 61t-29.5 67q-12 47 -15 86q-238 -286 -747 -286q-88 0 -151 3t-164 19t-167.5 44.5t-134 86t-93 137t-15 203.5t72.5 280q9 20 24.5 23.5t24.5 -9.5t3 -32
q-42 -112 -42 -202.5t28 -148t89 -99.5t120.5 -63t144 -33t138 -14.5t122.5 -2.5q101 0 190 9t157 23t127.5 37.5t100.5 44.5t78.5 52t59 53.5t43.5 55.5t31 50.5t22.5 45.5t16.5 35q23 42 49 38q20 -2 19 -28l-2 -10q-1 -3 -4.5 -19.5t-8.5 -37t-13 -43.5zM756 -287
l-140 -140l-137 139l138 139zM1114 -287l-138 -140l-139 139l140 139zM806 -653l-131 131l132 132l131 -131z" />
    <glyph glyph-name="uniFB58" unicode="&#x67e;" horiz-adv-x="695" arabic-form="initial" 
d="M-101 96q0 40 28 68t68 28h108q348 0 396 87q9 69 -64 245q-55 115 -76 152l53 96q53 96 69 96q7 0 24 -36t37.5 -94.5t38 -131.5t25 -147t-1.5 -141q-9 -60 -45.5 -116t-94.5 -101.5t-143.5 -73t-184.5 -27.5h-141q-40 0 -68 28t-28 68zM259 -301l-140 -140l-137 139
l138 139zM617 -301l-138 -140l-139 139l140 139zM309 -667l-131 131l132 132l131 -131z" />
    <glyph glyph-name="uniFB59" unicode="&#x67e;" horiz-adv-x="782" arabic-form="medial" 
d="M-103 96q0 40 28 68t68 28h38q68 0 150 23q165 48 168 164q3 46 -17 127q-11 38 -19 60l49 67q48 69 59 58l2 -8q2 -8 5 -23t6.5 -35t7 -48t7 -58t5.5 -68.5t3 -77.5q0 -7 4 -22.5t21 -44.5t45.5 -53t85.5 -42.5t132 -18.5h51v-192h-7q-129 0 -236 49t-159 123v-3
q-46 -70 -145 -119.5t-229 -49.5h-27q-40 0 -68 28t-28 68zM323 -345l-140 -140l-137 139l138 139zM681 -345l-138 -140l-139 139l140 139zM373 -711l-131 131l132 132l131 -131z" />
    <glyph glyph-name="uniFB67" unicode="&#x679;" horiz-adv-x="1840" arabic-form="final" 
d="M1673 489q-10 -32 -15 -66.5t-1.5 -77.5t19 -75.5t54.5 -55t97 -22.5h23v-192h-23q-55 0 -101.5 17t-77 46t-50 61t-29.5 67q-12 47 -15 86q-238 -286 -747 -286q-88 0 -151 3t-164 19t-167.5 44.5t-134 86t-93 137t-15 203.5t72.5 280q9 20 24.5 23.5t24.5 -9.5t3 -32
q-42 -112 -42 -202.5t28 -148t89 -99.5t120.5 -63t144 -33t138 -14.5t122.5 -2.5q101 0 190 9t157 23t127.5 37.5t100.5 44.5t78.5 52t59 53.5t43.5 55.5t31 50.5t22.5 45.5t16.5 35q23 42 49 38q20 -2 19 -28l-2 -10q-1 -3 -4.5 -19.5t-8.5 -37t-13 -43.5zM1110 984
q56 0 92 -21t48.5 -50.5t14 -66t-3.5 -61t-11 -42.5q-13 -32 -28 -58t-43 -56t-63 -50.5t-90 -34t-122 -13.5q-137 0 -214 13q-7 1 -16 2t-14 2t-9 2l-11 4q-44 12 -67 34t-36 58q-3 9 0 13.5t12 2.5q47 -13 165 -20q7 7 22 28l16 20q23 33 23 113v22q-1 56 -3.5 99.5
t-4.5 63.5t-6 52.5t-6 47.5q-8 71 -13 103q13 17 37 41q44 38 50 36l2 -12q1 -1 1 -7l7 -114q3 -69 3 -197q0 -110 -27 -168q179 214 295 214zM1210 756q2 9 4 23.5t-5.5 31.5t-19.5 31.5t-37.5 23.5t-60.5 8q-42 -2 -86 -21t-75 -41t-67.5 -58.5t-52 -55t-40.5 -49.5
q-3 -3 -4.5 -5.5t-3.5 -4.5l39 -3q38 -3 110 -3q240 0 299 123z" />
    <glyph glyph-name="uniFB68" unicode="&#x679;" horiz-adv-x="678" arabic-form="initial" 
d="M456 1533q56 0 92 -21t48.5 -50.5t14 -66t-3.5 -61t-11 -42.5q-13 -32 -28 -58t-43 -56t-63 -50.5t-90 -34t-122 -13.5q-137 0 -214 13q-7 1 -16 2t-14 2t-9 2l-11 4q-44 12 -67 34t-36 58q-3 9 0 13.5t12 2.5q47 -13 165 -20q7 7 22 27l16 21q23 33 23 113v22
q-1 56 -3.5 99.5t-4.5 63.5t-6 52.5t-6 47.5q-8 71 -13 103q13 17 37 41q44 38 50 36l2 -12q1 -1 1 -7l7 -114q3 -69 3 -197q0 -110 -27 -168q179 214 295 214zM556 1305q2 9 4 23.5t-5.5 31.5t-19.5 31.5t-37.5 23.5t-60.5 8q-42 -2 -86 -21t-75 -41t-67.5 -58.5t-52 -55
t-40.5 -49.5q-5 -7 -8 -10l39 -3q37 -3 110 -3q240 0 299 123zM-101 96q0 40 28 68t68 28h108q348 0 396 87q9 69 -64 245q-55 115 -76 152l53 96q53 96 69 96q7 0 24 -36t37.5 -94.5t38 -131.5t25 -147t-1.5 -141q-9 -60 -45.5 -116t-94.5 -101.5t-143.5 -73t-184.5 -27.5
h-141q-40 0 -68 28t-28 68z" />
    <glyph glyph-name="uniFB69" unicode="&#x679;" horiz-adv-x="777" arabic-form="medial" 
d="M-103 96q0 40 28 68t68 28h38q68 0 150 23q165 48 168 164q3 46 -17 127q-11 38 -19 60l49 67q48 69 59 58l2 -8q2 -8 5 -23t6.5 -35t7 -48t7 -58t5.5 -68.5t3 -77.5q0 -7 4 -22.5t21 -44.5t45.5 -53t85.5 -42.5t132 -18.5h51v-192h-7q-129 0 -236 49t-159 123v-3
q-46 -70 -145 -119.5t-229 -49.5h-27q-40 0 -68 28t-28 68zM584 1253q56 0 92 -21t48.5 -50.5t14 -66t-3.5 -61t-11 -42.5q-13 -32 -28 -58t-43 -56t-63 -50.5t-90 -34t-122 -13.5q-137 0 -214 13q-7 1 -16 2t-14 2t-9 2l-11 4q-44 12 -67 34t-36 58q-3 9 0 13.5t12 2.5
q47 -13 165 -20q7 7 22 27l16 21q23 33 23 113v22q-1 56 -3.5 99.5t-4.5 63.5t-6 52.5t-6 47.5q-8 71 -13 103q13 17 37 41q44 38 50 36l2 -12q1 -1 1 -7l7 -114q3 -69 3 -197q0 -110 -27 -168q179 214 295 214zM684 1025q2 9 4 23.5t-5.5 31.5t-19.5 31.5t-37.5 23.5
t-60.5 8q-42 -2 -86 -21t-75 -41t-67.5 -58.5t-52 -55t-40.5 -49.5q-3 -3 -4.5 -5.5t-3.5 -4.5l39 -3q37 -3 110 -3q240 0 299 123z" />
    <glyph glyph-name="uniFB6A" unicode="&#x6a4;" horiz-adv-x="1787" arabic-form="isolated" 
d="M1706 513q5 -46 0 -100q-7 -81 -41.5 -146t-83.5 -108.5t-121.5 -75.5t-144 -49.5t-164.5 -28t-168.5 -13.5t-169.5 -3q-89 0 -152.5 3t-164.5 19t-167.5 44.5t-133.5 86t-92 137.5t-14.5 204t72.5 280q6 20 22 23.5t26 -9.5t2 -32q-42 -112 -42 -202.5t28.5 -148
t89.5 -99.5t121 -63t144.5 -33t138 -14.5t122.5 -2.5q95 0 172 2.5t171 9.5t165.5 22t136.5 37.5t105.5 58.5t51.5 83l-15 -8q-87 -36 -232 -36q-68 0 -121.5 18t-85 44.5t-51.5 62.5t-27 67.5t-7 63.5q0 170 87.5 290.5t211.5 120.5q63 0 117 -32t90.5 -83.5t64 -118.5
t41.5 -135.5t18 -135.5zM1600 577q-22 69 -56 130q-32 55 -81.5 93t-112.5 38q-90 0 -140 -54t-50 -117q0 -77 53 -105t159 -28q149 0 216 35zM1187 1224l-138 139l137 139l140 -140zM1553 1224l-140 139l139 139l138 -140zM1503 1609l-131 -131l-132 132l131 131z" />
    <glyph glyph-name="uniFB6B" unicode="&#x6a4;" horiz-adv-x="1855" arabic-form="final" 
d="M1873 192v-192h-142q-79 0 -187 31q-23 6 -92 33q-209 -82 -614 -82q-67 0 -115.5 1.5t-126 9.5t-133 21.5t-122.5 41.5t-109 66t-77 97.5t-43 133.5t9.5 177t65.5 225q14 32 37 22t13 -40q-42 -112 -42 -202.5t28.5 -148t90 -99.5t121 -63t144 -33t138 -14.5t121.5 -2.5
q317 0 439 29q-4 4 -24.5 23.5t-30.5 32.5t-25 36.5t-22 54t-7 68.5q0 49 12.5 107.5t38 119t60.5 110.5t84 81.5t104 31.5q57 0 104 -28.5t77 -73t50.5 -102t29 -113t8.5 -108.5q0 -28 -3 -52.5t-10 -46t-12.5 -35.5t-18 -33t-18 -26.5t-21.5 -26.5t-19 -23q36 -8 106 -8
h133zM1465 266q44 21 83 51q83 67 83 135q0 73 -62 144t-137 71q-80 0 -134 -59t-54 -149q0 -78 110 -142q54 -31 111 -51zM1276 966l-138 139l137 139l140 -140zM1642 966l-140 139l139 139l138 -140zM1592 1351l-131 -131l-132 132l131 131z" />
    <glyph glyph-name="uniFB6C" unicode="&#x6a4;" horiz-adv-x="807" arabic-form="initial" 
d="M-99 96q0 40 28 68t68 28h293q164 0 259 52t103 144l-15 -8q-81 -36 -230 -36q-68 0 -122 17.5t-85.5 44.5t-51.5 62.5t-27.5 67.5t-7.5 64q0 170 88 290.5t212 120.5q77 0 141 -48t103 -124.5t61.5 -162t27.5 -170.5q5 -106 -19 -192t-69.5 -144t-111 -96.5t-141 -56
t-162.5 -17.5h-246q-40 0 -68 28t-28 68zM637 570q-23 75 -56 130q-32 55 -81.5 93t-112.5 38q-90 0 -140 -54t-50 -117q0 -77 53.5 -105t161.5 -28q149 0 213 36zM230 1138l-138 139l137 139l140 -140zM596 1138l-140 139l139 139l138 -140zM546 1523l-131 -131l-132 132
l131 131z" />
    <glyph glyph-name="uniFB6D" unicode="&#x6a4;" horiz-adv-x="869" arabic-form="medial" 
d="M-99 96q0 40 28 68t68 28h144q8 0 27 -0.5t31 -0.5t28.5 1.5t30.5 4.5q-2 2 -24.5 24t-32 34.5t-26 38t-23.5 56.5t-7 68q0 49 12.5 107.5t38 119t60.5 110.5t84 81.5t104 31.5q70 0 124.5 -42.5t84.5 -109t45 -136.5t15 -137q0 -33 -5.5 -62.5t-10 -46.5t-20 -43
t-19 -31.5t-26.5 -32.5l-22 -27q35 -8 107 -8h166v-192h-175q-86 0 -185 30q-51 15 -90 31q-36 -19 -75 -31q-88 -30 -179 -30h-182q-40 0 -68 28t-28 68zM524 317q84 64 84 135q0 72 -63 143.5t-136 71.5q-79 0 -134 -59t-55 -149q0 -79 111 -142q42 -26 110 -51
q52 25 83 51zM263 1003l-138 139l137 139l140 -140zM629 1003l-140 139l139 139l138 -140zM579 1388l-131 -131l-132 132l131 131z" />
    <glyph glyph-name="uniFB7B" unicode="&#x686;" horiz-adv-x="1478" arabic-form="final" 
d="M702 -38l-140 -140l-137 139l138 139zM1060 -38l-138 -140l-139 139l140 139zM752 -404l-131 131l132 132l131 -131zM1491 192v-192h-80q-56 0 -101.5 8t-79.5 21t-61 35.5t-44.5 44t-30 55t-19 61t-10 68.5t-4.5 70.5t-1 74.5q-176 -15 -320 -55t-238.5 -93.5
t-159.5 -120t-93 -133.5t-28 -135q0 -64 25 -124.5t78 -115.5t129 -96t185 -65t238 -24q253 0 501 65q27 7 33.5 -1t-10.5 -26q-194 -219 -573 -219q-226 0 -393 71t-250.5 207.5t-61.5 318.5q8 73 31.5 143t80 154t139 152.5t220 128.5t311.5 92q-53 18 -144.5 57.5
t-161.5 62.5t-126 23q-86 0 -169 -64q-39 -34 -64 -64q-16 -24 -36.5 -30.5t-28.5 9t3 52.5q51 144 130.5 224.5t181.5 80.5q58 0 138 -26.5t166.5 -65.5t180 -78t208 -68.5t221.5 -32.5q25 0 30 -8.5t-3 -19.5l-94 -164q-84 0 -179 -5q1 -70 10.5 -112.5t36.5 -77t77 -49
t130 -14.5h80z" />
    <glyph glyph-name="uniFB7C" unicode="&#x686;" horiz-adv-x="1351" arabic-form="initial" 
d="M-105 96q0 40 28 68t68 28h108q154 0 421.5 79t439.5 191q-88 30 -219 83.5t-208.5 79t-134.5 25.5q-88 0 -167 -65q-35 -26 -65 -63q-16 -24 -36.5 -30.5t-29 8.5t2.5 53q103 285 312 285q59 0 135.5 -26.5t157.5 -64t169.5 -76t198.5 -66.5t217 -30q25 -1 30 -9t-3 -21
l-92 -151q-84 -21 -236.5 -89.5t-289.5 -133.5t-313.5 -118t-319.5 -53h-78q-40 0 -68 28t-28 68zM554 -223l-140 -140l-137 139l138 139zM912 -223l-138 -140l-139 139l140 139zM604 -589l-131 131l132 132l131 -131z" />
    <glyph glyph-name="uniFB7D" unicode="&#x686;" horiz-adv-x="1403" arabic-form="medial" 
d="M-106 96q0 40 28 68t68 28h101q96 0 248.5 32t325.5 95.5t286 138.5q-88 31 -218.5 84.5t-208.5 79t-134 25.5q-86 0 -167 -64q-33 -23 -65 -62q-16 -25 -37 -31.5t-29.5 9.5t2.5 52q103 284 312 284q59 0 135.5 -26t157.5 -64t169.5 -76t198.5 -66t216 -30
q26 -1 31 -9.5t-3 -19.5l-91 -152q-70 -18 -169 -61q12 -80 65 -109.5t183 -29.5h129v-192h-129q-68 0 -120.5 9t-88.5 28t-61 43t-39.5 58.5t-21.5 69.5t-11 81q-24 -11 -114 -52.5t-128.5 -58.5t-121.5 -52t-137 -51.5t-127 -37t-139 -29t-129 -8.5h-71q-40 0 -68 28
t-28 68zM607 -220l-140 -140l-137 139l138 139zM965 -220l-138 -140l-139 139l140 139zM657 -586l-131 131l132 132l131 -131z" />
    <glyph glyph-name="uniFB89" unicode="&#x688;" horiz-adv-x="1051" arabic-form="final" 
d="M867 326q33 -88 112 -119q51 -15 76 -15v-192q-52 0 -94.5 16t-73 45.5t-50.5 57t-40 64.5q-26 -56 -70 -95t-101 -58.5t-114 -27.5t-126 -8q-60 0 -109.5 14t-81 37t-54.5 50.5t-33.5 55.5t-15 51.5t-3 39.5t6.5 18q5 3 15 -3t29.5 -17.5t47.5 -23.5t79.5 -20.5
t115.5 -8.5q170 0 239 15q102 22 129 84q-117 266 -160 361l-117 258l51 87q53 88 69 88q23 -63 127 -350q80 -227 146 -404zM656 1601q56 0 92 -21t48.5 -50.5t14 -66t-3.5 -61t-11 -42.5q-13 -32 -28 -58t-43 -56t-63 -50.5t-90 -34t-122 -13.5q-137 0 -214 13q-7 1 -16 2
t-14 2t-9 2l-11 4q-44 12 -67 34t-36 58q-3 9 0 13.5t12 2.5q47 -13 165 -20q7 7 22 27l16 21q23 33 23 113v22q-1 56 -3.5 99.5t-4.5 63.5t-6 52.5t-6 47.5q-8 71 -13 103q13 17 37 41q44 38 50 36l2 -12q1 -1 1 -7l7 -114q3 -69 3 -197q0 -110 -27 -168q179 214 295 214z
M756 1373q2 9 4 23.5t-5.5 31.5t-19.5 31.5t-37.5 23.5t-60.5 8q-42 -2 -86 -21t-75 -41t-67.5 -58.5t-52 -55t-40.5 -49.5q-5 -7 -8 -10l39 -3q37 -3 110 -3q240 0 299 123z" />
    <glyph glyph-name="uniFB8B" unicode="&#x698;" horiz-adv-x="940" arabic-form="final" 
d="M585 583q7 0 19.5 -26t35.5 -78t45 -92q51 -89 115 -142t161 -53v-192q-66 0 -113 9t-77.5 27.5t-47 35.5t-35.5 45q0 -121 -41 -238t-102 -202t-130.5 -151t-129.5 -99.5t-95 -33.5q-36 0 -114.5 49.5t-99.5 77.5q-8 11 -2 21.5t22 10.5q78 0 166.5 38t164 98t138 128
t98.5 134t36 111q0 116 -135 330q34 71 71 131.5t50 60.5zM380 788l-138 139l137 139l140 -140zM746 788l-140 139l139 139l138 -140zM696 1173l-131 -131l-132 132l131 131z" />
    <glyph glyph-name="uniFB8D" unicode="&#x691;" horiz-adv-x="940" arabic-form="final" 
d="M585 583q7 0 19.5 -26t35.5 -78t45 -92q51 -89 115 -142t161 -53v-192q-66 0 -113 9t-77.5 27.5t-47 35.5t-35.5 45q0 -121 -41 -238t-102 -202t-130.5 -151t-129.5 -99.5t-95 -33.5q-36 0 -114.5 49.5t-99.5 77.5q-8 11 -2 21.5t22 10.5q78 0 166.5 38t164 98t138 128
t98.5 134t36 111q0 116 -135 330q34 71 71 131.5t50 60.5zM589 1286q56 0 92 -21t48.5 -50.5t14 -66t-3.5 -61t-11 -42.5q-13 -32 -28 -58t-43 -56t-63 -50.5t-90 -34t-122 -13.5q-137 0 -214 13q-7 1 -16 2t-14 2t-9 2l-11 4q-44 12 -67 34t-36 58q-3 9 0 13.5t12 2.5
q47 -13 165 -20q7 7 23 28l15 20q23 33 23 113v22q-1 56 -3.5 99.5t-4.5 63.5t-6 52.5t-6 47.5q-8 71 -13 103q13 17 37 41q44 38 50 36l2 -12q1 -1 1 -7l7 -114q3 -69 3 -197q0 -110 -27 -168q179 214 295 214zM689 1058q2 9 4 23.5t-5.5 31.5t-19.5 31.5t-37.5 23.5
t-60.5 8q-42 -2 -86 -21t-75 -41t-67.5 -58.5t-52 -55t-40.5 -49.5q-3 -3 -4.5 -5.5t-3.5 -4.5l39 -3q37 -3 110 -3q240 0 299 123z" />
    <glyph glyph-name="uniFB8F" unicode="&#x6a9;" horiz-adv-x="2112" arabic-form="final" 
d="M2126 192v-192h-14q-57 0 -115.5 27.5t-110 75.5t-95 102.5t-83.5 118.5q-12 -63 -40 -114t-75 -86.5t-92.5 -61.5t-119 -41.5t-126 -25t-142 -13t-138.5 -4.5t-143 -1h-12q-67 0 -115.5 1.5t-126.5 9.5t-134 21.5t-123 41.5t-109 66t-77 97.5t-43 133.5t9.5 177
t65.5 225q14 32 37.5 22t13.5 -40q-42 -112 -42 -202.5t28.5 -148t89.5 -99.5t121 -63t144.5 -33t138 -14.5t122.5 -2.5h87q61 -2 124 -1t124.5 2.5t119.5 8t109 15.5t94 25.5t74 39t48 55t17 73.5q9 74 -33.5 161t-111.5 161.5t-137.5 135.5t-124 103.5t-57.5 45.5
q-13 13 9 95q17 60 23 80q92 42 245 110t179 79q417 187 441 182q7 -4 -13 -93q0 -1 -8 -35.5t-15 -54.5l-633 -268q117 -135 216 -295q20 -33 70 -129.5t91 -170t105.5 -153.5t128.5 -116q56 -33 117 -33h17z" />
    <glyph glyph-name="uniFB90" unicode="&#x6a9;" horiz-adv-x="942" arabic-form="initial" 
d="M-114 96q0 40 28 68t68 28h318q50 1 99 25q100 46 114 171q8 63 -21.5 136t-79 134.5t-110.5 122.5t-114 103.5t-93 74t-43 36.5q-10 10 8 95l22 79l425 191q432 191 441 182t-12 -95l-23 -89l-635 -267q363 -420 337 -701q-17 -186 -108.5 -288t-214.5 -102h-310
q-40 0 -68 28t-28 68z" />
    <glyph glyph-name="uniFB91" unicode="&#x6a9;" horiz-adv-x="1053" arabic-form="medial" 
d="M-113 96q0 40 28 68t68 28h235q89 1 164 25q165 47 179 170q9 75 -33.5 162t-111.5 161t-137.5 134.5t-123.5 103t-58 46.5q-10 14 9 95l24 79l423 191q417 187 441 182q9 -3 -13 -94q-1 -6 -9 -38.5t-13 -51.5l-633 -267q133 -164 216 -296q19 -32 55 -101.5t67 -129.5
t77.5 -131.5t91.5 -121.5t104 -84t119 -34h4v-192h-4q-195 0 -404 323q-30 -159 -144.5 -241t-297.5 -82h-227q-40 0 -68 28t-28 68z" />
    <glyph glyph-name="uniFB93" unicode="&#x6af;" horiz-adv-x="2118" arabic-form="final" 
d="M2126 192v-192h-14q-57 0 -115.5 27.5t-110 75.5t-95 102.5t-83.5 118.5q-12 -63 -40 -114t-75 -86.5t-92.5 -61.5t-119 -41.5t-126 -25t-142 -13t-138.5 -4.5t-143 -1h-12q-67 0 -115.5 1.5t-126.5 9.5t-134 21.5t-123 41.5t-109 66t-77 97.5t-43 133.5t9.5 177
t65.5 225q14 32 37.5 22t13.5 -40q-42 -112 -42 -202.5t28.5 -148t89.5 -99.5t121 -63t144.5 -33t138 -14.5t122.5 -2.5h87q61 -2 124 -1t124.5 2.5t119.5 8t109 15.5t94 25.5t74 39t48 55t17 73.5q9 74 -33.5 161t-111.5 161.5t-137.5 135.5t-124 103.5t-57.5 45.5
q-13 13 9 95q17 60 23 80q92 42 245 110t179 79q417 187 441 182q7 -4 -13 -93q0 -1 -8 -35.5t-15 -54.5l-633 -268q117 -135 216 -295q20 -33 70 -129.5t91 -170t105.5 -153.5t128.5 -116q56 -33 117 -33h17zM1971 1755l-752 -330l24 145l743 325z" />
    <glyph glyph-name="uniFB94" unicode="&#x6af;" horiz-adv-x="950" arabic-form="initial" 
d="M-114 96q0 40 28 68t68 28h318q50 1 99 25q100 46 114 171q8 63 -21.5 136t-79 134.5t-110.5 122.5t-114 103.5t-93 74t-43 36.5q-10 10 8 95l22 79l425 191q432 191 441 182t-12 -95l-23 -89l-635 -267q363 -420 337 -701q-17 -186 -108.5 -288t-214.5 -102h-310
q-40 0 -68 28t-28 68zM853 1745l-752 -330l24 145l743 325z" />
    <glyph glyph-name="uniFB95" unicode="&#x6af;" horiz-adv-x="1051" arabic-form="medial" 
d="M-113 96q0 40 28 68t68 28h235q89 1 164 25q165 47 179 170q9 75 -33.5 162t-111.5 161t-137.5 134.5t-123.5 103t-58 46.5q-10 14 9 95l24 79l423 191q417 187 441 182q9 -3 -13 -94q-1 -6 -9 -38.5t-13 -51.5l-633 -267q133 -164 216 -296q19 -32 55 -101.5t67 -129.5
t77.5 -131.5t91.5 -121.5t104 -84t119 -34h4v-192h-4q-195 0 -404 323q-30 -159 -144.5 -241t-297.5 -82h-227q-40 0 -68 28t-28 68zM903 1723l-752 -330l24 145l743 325z" />
    <glyph glyph-name="uniFB9F" unicode="&#x6ba;" horiz-adv-x="1543" arabic-form="final" 
d="M1554 192v-192h-11q-81 0 -149 35t-114 83v-114q0 -282 -181 -445.5t-509 -161.5q-71 0 -141 17t-133.5 53t-116 87t-86.5 123.5t-46.5 159t5.5 197.5t68 233q6 14 20 47q55 137 84 162q19 17 35 0q8 -7 8.5 -16t-5.5 -26t-14 -36.5t-22 -57t-26 -77.5
q-176 -612 370 -653q170 -13 306 39.5t214.5 166t78.5 269.5q-2 39 -9.5 77.5t-20.5 72t-25 60t-29 54t-27 42t-25.5 35.5t-17.5 24q36 71 73 130.5t49 59.5q4 0 16.5 -24.5t31.5 -64t44 -87.5t57.5 -96t68 -87.5t80 -64t88.5 -24.5h11z" />
    <glyph glyph-name="uniFBA5" unicode="&#x6c0;" horiz-adv-x="929" arabic-form="final" 
d="M942 192v-192h-39q-62 0 -115.5 23.5t-90.5 64t-62.5 88t-39.5 100.5l-132 -127q-25 -7 -56 -12q-72 -8 -148 13q-112 28 -147.5 135t26.5 235q48 92 378 319q-4 22 -6 59l-3 21q63 67 69 74q70 70 86 61l11 -150q4 -38 14 -165t18 -212q12 -133 37.5 -205.5t68 -101
t115.5 -28.5h16zM172 442q13 -45 61.5 -73t113.5 -36.5t124.5 -8.5t112.5 7q-35 240 -50 367q-144 -60 -258.5 -136.5t-103.5 -119.5zM312 1171l85 50l25 16q-44 24 -73.5 67.5t-26.5 94.5q3 61 78.5 139.5t141.5 75.5q107 -5 162 -114q4 -8 2 -13.5t-10 -6.5t-25 7
q-43 25 -120 28q-55 2 -104 -31t-51 -66q-1 -13 15.5 -35t44 -43t69 -32.5t83.5 -4.5l51 8q33 5 76 15q3 1 5.5 0.5t0.5 -5.5l-17 -48q-9 -23 -15 -44q-276 -49 -424 -148z" />
    <glyph glyph-name="uniFBA6" unicode="&#x6c1;" horiz-adv-x="835" arabic-form="isolated" 
d="M748 427q9 -106 -16.5 -191.5t-76.5 -139.5t-118.5 -83t-145.5 -29q-69 0 -131 26t-104.5 73t-60 113.5t2.5 147.5q22 94 79 226q25 54 51 100l52 95q53 96 72 96q4 0 25 -8t55 -26t73 -42.5t80 -61.5t75 -79t58 -99t30 -118zM402 175q54 0 114.5 12.5t108.5 40.5t48 63
q0 119 -186 240q-73 48 -185 92q-77 -98 -103 -184t-5 -142.5t75.5 -89t132.5 -32.5z" />
    <glyph glyph-name="uniFBA8" unicode="&#x6c1;" horiz-adv-x="664" arabic-form="initial" 
d="M418 -492q-56 6 -88.5 43t-32.5 89q0 160 158 368l73 -45q-86 -119 -86 -215q0 -37 25.5 -60.5t85.5 -41.5q-26 -53 -69.5 -95.5t-65.5 -42.5zM-101 96q0 40 28 68t68 28h81q58 0 99.5 2t107 9t109.5 26.5t60 49.5q9 69 -64 245q-55 115 -76 152l53 96q53 96 69 96
q7 0 24 -36t37.5 -94.5t38 -131.5t25 -147t-1.5 -141q-20 -129 -138 -223.5t-310 -94.5h-114q-40 0 -68 28t-28 68z" />
    <glyph glyph-name="uniFBA9" unicode="&#x6c1;" horiz-adv-x="958" arabic-form="medial" 
d="M-95 96q0 39 28 67.5t67 28.5h5q58 0 82 6q55 13 73 57q32 77 93 77q43 0 77 -42q-10 -22 -18 -67q-7 -41 -7 -74q0 -244 197 -458q19 128 43 196q26 74 65 122q40 49 95 95q107 88 262 88q26 0 26 -25v-142q0 -26 -26 -26q-117 0 -181 -8q-56 -7 -100 -25
q-35 -83 -44 -175q-9 -95 -9 -203v-5q0 -5 0.5 -26t0 -29t-2.5 -25t-6.5 -25.5t-13 -19.5t-20.5 -17q-18 -9 -34 -11.5t-32 3.5t-29.5 14.5t-32.5 24.5q-151 116 -237 264q-84 148 -91 299q-27 -15 -72 -26q-39 -10 -63 -10q-7 0 -9 1q-37 5 -61.5 32t-24.5 64zM825 -528
q-55 6 -87.5 43t-32.5 88q0 84 35.5 164.5t111.5 181.5l74 -45q-76 -103 -76 -192q0 -37 25.5 -60.5t85.5 -42.5q-21 -52 -67.5 -93t-68.5 -44z" />
    <glyph glyph-name="uniFBAB" unicode="&#x6be;" horiz-adv-x="846" arabic-form="final" 
d="M853 192v-192h-9q-66 -1 -122 -24q-130 -50 -156 -167q-27 -114 56 -187q34 -34 87 -55l-93 -174q-99 49 -175 118.5t-124 150.5t-75.5 166.5t-38.5 180.5q-139 -11 -202 -70l-45 105q40 52 110 101t133 52q10 158 56.5 303.5t107.5 230.5t116 85q47 0 95 -62.5
t73.5 -159.5t10.5 -185q-47 -310 -360 -384q41 -260 201 -367q-15 47 -16 94q-8 111 52 218q77 142 200 195q54 24 109 27h9zM440 643q-37 0 -72.5 -61t-58.5 -163t-24 -214q246 31 286 139q16 35 10 86.5t-22.5 98.5t-49 80.5t-69.5 33.5z" />
    <glyph glyph-name="uniFBAC" unicode="&#x6be;" horiz-adv-x="1147" arabic-form="initial" 
d="M-108 96q0 40 28 68t68 28h187h84q-51 36 -72 101.5t-18 125t19 119.5q19 66 81 152q32 42 59 73l-84 28q33 45 60 78q59 78 79 73q8 -2 37.5 -11.5t84.5 -31.5t116.5 -50.5t130 -69.5t128.5 -88t107.5 -107.5t72.5 -124.5t18 -143t-51 -160q-38 -68 -101 -105.5
t-123.5 -45t-128 0t-105.5 18.5t-66 22q-40 -22 -107.5 -33t-107.5 -12t-123 -1h-177q-40 0 -68 28t-28 68zM634 360q16 49 -1 123.5t-55.5 132.5t-77.5 64q-91 14 -159.5 -36t-84.5 -137q-10 -56 11.5 -101.5t67.5 -76.5t91 -50t102 -34q17 4 39 19q42 27 67 96zM975 226
q14 31 14.5 64t-10.5 62t-28.5 56.5t-43 52.5t-49.5 45.5t-51 39t-46.5 30t-36.5 20.5q27 -90 -14 -243q-10 -36 -41 -100l-27 -53q76 -20 141 -27q52 -12 113 -0.5t79 53.5z" />
    <glyph glyph-name="uniFBAD" unicode="&#x6be;" horiz-adv-x="785" arabic-form="medial" 
d="M-102 96q0 40 28 68t68 28h13q29 0 131 5q10 158 56.5 303.5t107.5 230.5t116 85q47 0 95 -62.5t73.5 -159.5t10.5 -185q-47 -310 -360 -384q41 -260 201 -367q-15 47 -16 94q-8 111 52 218q77 142 200 195q54 24 109 27h9v-192h-9q-66 -1 -122 -24q-130 -50 -156 -167
q-27 -114 56 -187q34 -34 87 -55l-93 -174q-99 49 -175 118.5t-124 150.5t-75.5 166.5t-38.5 180.5l-43 -5q-36 -4 -101 -4h-4q-40 0 -68 28t-28 68zM379 643q-37 0 -72.5 -61t-58.5 -163t-24 -214q246 31 286 139q16 35 10 86.5t-22.5 98.5t-49 80.5t-69.5 33.5z" />
    <glyph glyph-name="uniFBAF" unicode="&#x6d2;" horiz-adv-x="1276" arabic-form="final" 
d="M218 -238q235 -70 550 -70q320 0 627 56q-3 -52 -24 -90q-20 -37 -64 -78q-43 -40 -128 -57q-104 -15 -343 -15q-240 0 -388 24q-142 21 -247 59q-98 36 -98 62q0 27 23 110q24 77 38 91q177 171 438 254q261 84 681 84q26 0 26 -27v-141q0 -24 -26 -24q-233 0 -436 -24
q-201 -24 -350 -76t-279 -138z" />
    <glyph glyph-name="uniFBB1" unicode="&#x6d3;" horiz-adv-x="1235" arabic-form="final" 
d="M179 -238q235 -70 550 -70q320 0 627 56q-3 -52 -24 -90q-20 -37 -64 -78q-43 -40 -128 -57q-103 -15 -343 -15q-239 0 -388 24q-142 21 -247 59q-98 36 -98 62q0 27 23 110q24 77 38 91q177 171 438 254q261 84 681 84q26 0 26 -27v-141q0 -24 -26 -24q-234 0 -436 -24
q-201 -24 -350 -76q-148 -52 -279 -138zM267 239l85 50l25 16q-44 24 -73.5 67.5t-26.5 94.5q3 61 78.5 139.5t141.5 75.5q107 -5 162 -114q4 -8 2 -13.5t-10 -6.5t-25 7q-43 25 -120 28q-55 2 -104 -31t-51 -66q-1 -13 15.5 -35t44 -43t69 -32.5t83.5 -4.5l51 8q33 5 76 15
q3 1 5.5 0.5t0.5 -5.5l-17 -48q-9 -23 -15 -44q-276 -49 -424 -148z" />
    <glyph glyph-name="uniFBE8" unicode="&#x649;" horiz-adv-x="475" arabic-form="initial" 
d="M-103 96q0 40 28 68t68 28h88q65 2 108 11q107 21 117 76q9 69 -64 245q-55 115 -76 152l53 96q53 96 69 96q7 0 24 -36t37.5 -94.5t38 -131.5t25 -147t-1.5 -141q-18 -118 -111.5 -218t-185.5 -100h-121q-40 0 -68 28t-28 68z" />
    <glyph glyph-name="uniFBE9" unicode="&#x649;" horiz-adv-x="629" arabic-form="medial" 
d="M-107 96q0 40 28 68t68 28h44q52 0 115 23q131 47 134 164q3 46 -17 127q-11 38 -19 60l49 67q48 69 59 58l2 -8q2 -8 5 -23t6.5 -35t7 -48t7 -58t5.5 -68.5t3 -77.5q0 -9 1.5 -23t14 -44t34 -53.5t67 -42t107.5 -18.5h19v-192h-7q-82 0 -164.5 49.5t-134.5 122.5v-3
q-46 -71 -127 -120t-178 -49h-33q-40 0 -68 28t-28 68z" />
    <glyph glyph-name="uniFBFD" unicode="&#x6cc;" horiz-adv-x="1521" arabic-form="final" 
d="M1532 0q-117 0 -184 5q21 -16 48 -45q48 -54 48 -113q0 -79 -47 -156.5t-128 -140t-200.5 -104.5t-255.5 -51q-100 -5 -186.5 2.5t-169.5 33.5t-144.5 71t-106 118.5t-60 171.5t1 235t69.5 303q15 47 29.5 88t37.5 95t45 78t38 8q6 -13 5.5 -23.5t-9.5 -38.5t-18.5 -54
t-23.5 -70t-24 -85q-13 -51 -22 -99.5t-14 -109t-2.5 -114t15.5 -110t38 -102t68.5 -85t102 -64t143 -34.5t187.5 -1q223 17 379 78.5t156 121.5q0 47 -149.5 127t-323.5 134q-4 0 5 20.5t20 42t11 22.5q1 2 7.5 11.5t13 19.5t13.5 20.5t13 17t8 6.5q194 -26 299.5 -32
t266.5 -6v-192z" />
    <glyph glyph-name="uniFBFE" unicode="&#x6cc;" horiz-adv-x="695" arabic-form="initial" 
d="M-101 96q0 40 28 68t68 28h108q348 0 396 87q9 69 -64 245q-55 115 -76 152l53 96q53 96 69 96q7 0 24 -36t37.5 -94.5t38 -131.5t25 -147t-1.5 -141q-9 -60 -45.5 -116t-94.5 -101.5t-143.5 -73t-184.5 -27.5h-141q-40 0 -68 28t-28 68zM153 -495l-138 139l137 139
l140 -140zM500 -495l-140 139l139 139l138 -140z" />
    <glyph glyph-name="uniFBFF" unicode="&#x6cc;" horiz-adv-x="788" arabic-form="medial" 
d="M-103 96q0 40 28 68t68 28h38q68 0 150 23q165 48 168 164q3 46 -17 127q-11 38 -19 60l49 67q48 69 59 58l2 -8q2 -8 5 -23t6.5 -35t7 -48t7 -58t5.5 -68.5t3 -77.5q0 -7 4 -22.5t21 -44.5t45.5 -53t85.5 -42.5t132 -18.5h51v-192h-7q-129 0 -236 49t-159 123v-3
q-46 -70 -145 -119.5t-229 -49.5h-27q-40 0 -68 28t-28 68zM189 -465l-138 139l137 139l140 -140zM536 -465l-140 139l139 139l138 -140z" />
    <glyph glyph-name="uniFC5E" unicode="&#xfc5e;" arabic-form="isolated" 
d="M349 1422q4 0 19.5 -29.5t30 -77.5t14.5 -87q0 -78 -34.5 -124.5t-85.5 -50.5q-44 -6 -66.5 4t-39.5 36q-30 -62 -116 -64q-39 -1 -66 9t-39.5 30.5t-19 40.5t-4.5 49.5t5 47t8 42.5q1 4 13 27q15 24 30 10v-30t-1 -56t14.5 -53.5t47.5 -22.5q24 1 41 10t25.5 19.5t14 33
t7 36.5t3.5 45q0 14 6.5 24.5t17.5 11.5q8 2 15.5 -9t10.5 -28q1 -4 3.5 -17t3.5 -17.5t3.5 -16.5t4.5 -17t6 -14.5t8 -13.5l10 -10t12 -8.5t14.5 -4t18.5 -0.5q8 1 22.5 2.5t20.5 3.5q43 14 40 43q-1 25 -32 89q0 1 -30 52l18 43q17 38 26 42zM298 1514l-18 3l-15 1
q-51 -72 -140.5 -114.5t-183.5 -42.5h-17q-10 0 -17 1l-2 6q28 73 28 128q0 53 -22 53q-41 0 -131 -49l-4 4l17 95q30 18 70.5 35t56.5 17q66 0 66 -119q0 -47 -7 -82q41 -2 108 22t113 60q-96 23 -132 55.5t-36 82.5q0 61 53 115.5t119 54.5q39 0 64 -27.5t34 -63.5t9 -79
q0 -42 -10 -75q8 -2 48 -4zM93 1714q0 -10 6 -21.5t21 -27.5t49 -32t83 -27q5 11 5 29q0 51 -27.5 88.5t-63.5 37.5q-29 0 -51 -14.5t-22 -32.5z" />
    <glyph glyph-name="uniFC5F" unicode="&#xfc5f;" arabic-form="isolated" 
d="M349 1422q4 0 19.5 -29.5t30 -77.5t14.5 -87q0 -78 -34.5 -124.5t-85.5 -50.5q-44 -6 -66.5 4t-39.5 36q-30 -62 -116 -64q-39 -1 -66 9t-39.5 30.5t-19 40.5t-4.5 49.5t5 47t8 42.5q1 4 13 27q15 24 30 10v-30t-1 -56t14.5 -53.5t47.5 -22.5q24 1 41 10t25.5 19.5t14 33
t7 36.5t3.5 45q0 14 6.5 24.5t17.5 11.5q8 2 15.5 -9t10.5 -28q1 -4 3.5 -17t3.5 -17.5t3.5 -16.5t4.5 -17t6 -14.5t8 -13.5l10 -10t12 -8.5t14.5 -4t18.5 -0.5q8 1 22.5 2.5t20.5 3.5q43 14 40 43q-1 25 -32 89q0 1 -30 52l18 43q17 38 26 42zM408 655l-392 -161v102
l392 155v-96zM408 895l-392 -161v103l392 154v-96z" />
    <glyph glyph-name="uniFC60" unicode="&#xfc60;" arabic-form="isolated" 
d="M349 1422q4 0 19.5 -29.5t30 -77.5t14.5 -87q0 -78 -34.5 -124.5t-85.5 -50.5q-44 -6 -66.5 4t-39.5 36q-30 -62 -116 -64q-39 -1 -66 9t-39.5 30.5t-19 40.5t-4.5 49.5t5 47t8 42.5q1 4 13 27q15 24 30 10v-30t-1 -56t14.5 -53.5t47.5 -22.5q24 1 41 10t25.5 19.5t14 33
t7 36.5t3.5 45q0 14 6.5 24.5t17.5 11.5q8 2 15.5 -9t10.5 -28q1 -4 3.5 -17t3.5 -17.5t3.5 -16.5t4.5 -17t6 -14.5t8 -13.5l10 -10t12 -8.5t14.5 -4t18.5 -0.5q8 1 22.5 2.5t20.5 3.5q43 14 40 43q-1 25 -32 89q0 1 -30 52l18 43q17 38 26 42zM325 1509l-392 -161v103
l392 155v-97z" />
    <glyph glyph-name="uniFC61" unicode="&#xfc61;" arabic-form="isolated" 
d="M349 1422q4 0 19.5 -29.5t30 -77.5t14.5 -87q0 -78 -34.5 -124.5t-85.5 -50.5q-44 -6 -66.5 4t-39.5 36q-30 -62 -116 -64q-39 -1 -66 9t-39.5 30.5t-19 40.5t-4.5 49.5t5 47t8 42.5q1 4 13 27q15 24 30 10v-30t-1 -56t14.5 -53.5t47.5 -22.5q24 1 41 10t25.5 19.5t14 33
t7 36.5t3.5 45q0 14 6.5 24.5t17.5 11.5q8 2 15.5 -9t10.5 -28q1 -4 3.5 -17t3.5 -17.5t3.5 -16.5t4.5 -17t6 -14.5t8 -13.5l10 -10t12 -8.5t14.5 -4t18.5 -0.5q8 1 22.5 2.5t20.5 3.5q43 14 40 43q-1 25 -32 89q0 1 -30 52l18 43q17 38 26 42zM283 1509q-74 -96 -272 -169
q-24 0 -73.5 6.5t-55.5 16.5l-2 7q250 100 325 154q-81 15 -118.5 46t-37.5 87q0 72 55.5 125t119.5 53q44 0 78 -45t34 -139q0 -25 -8 -55q-10 -40 -27 -63q-9 -13 -18 -24zM110 1701q0 -66 162 -97q3 12 3 23q0 46 -28 87t-62 41q-29 0 -52 -17.5t-23 -36.5z" />
    <glyph glyph-name="uniFC62" unicode="&#xfc62;" arabic-form="isolated" 
d="M349 1422q4 0 19.5 -29.5t30 -77.5t14.5 -87q0 -78 -34.5 -124.5t-85.5 -50.5q-44 -6 -66.5 4t-39.5 36q-30 -62 -116 -64q-39 -1 -66 9t-39.5 30.5t-19 40.5t-4.5 49.5t5 47t8 42.5q1 4 13 27q15 24 30 10v-30t-1 -56t14.5 -53.5t47.5 -22.5q24 1 41 10t25.5 19.5t14 33
t7 36.5t3.5 45q0 14 6.5 24.5t17.5 11.5q8 2 15.5 -9t10.5 -28q1 -4 3.5 -17t3.5 -17.5t3.5 -16.5t4.5 -17t6 -14.5t8 -13.5l10 -10t12 -8.5t14.5 -4t18.5 -0.5q8 1 22.5 2.5t20.5 3.5q43 14 40 43q-1 25 -32 89q0 1 -30 52l18 43q17 38 26 42zM398 880l-392 -161v103
l392 155v-97z" />
    <glyph glyph-name="uniFC63" unicode="&#xfc63;" arabic-form="isolated" 
d="M349 1422q4 0 19.5 -29.5t30 -77.5t14.5 -87q0 -78 -34.5 -124.5t-85.5 -50.5q-44 -6 -66.5 4t-39.5 36q-30 -62 -116 -64q-39 -1 -66 9t-39.5 30.5t-19 40.5t-4.5 49.5t5 47t8 42.5q1 4 13 27q15 24 30 10v-30t-1 -56t14.5 -53.5t47.5 -22.5q24 1 41 10t25.5 19.5t14 33
t7 36.5t3.5 45q0 14 6.5 24.5t17.5 11.5q8 2 15.5 -9t10.5 -28q1 -4 3.5 -17t3.5 -17.5t3.5 -16.5t4.5 -17t6 -14.5t8 -13.5l10 -10t12 -8.5t14.5 -4t18.5 -0.5q8 1 22.5 2.5t20.5 3.5q43 14 40 43q-1 25 -32 89q0 1 -30 52l18 43q17 38 26 42zM153 1373q-8 -8 -8 0
q-3 135 -16 270q-3 36 -16 137q30 20 46 28q49 27 55 24q3 -3 4 -7v-5q3 -145 3 -150q0 -59 -19 -216q-7 -30 -49 -81z" />
    <glyph glyph-name="uniFE70" unicode="&#xfe70;" arabic-form="isolated" 
d="M344 1156l-392 -161v102l392 156v-97zM344 1396l-392 -161v103l392 154v-96z" />
    <glyph glyph-name="uniFE72" unicode="&#xfe72;" arabic-form="isolated" 
d="M358 1128l-18 3l-15 1q-51 -72 -140.5 -114.5t-183.5 -42.5h-17q-10 0 -17 1l-2 6q28 73 28 128q0 53 -22 53q-41 0 -131 -49l-4 4l17 95q30 18 70.5 35t56.5 17q66 0 66 -119q0 -47 -7 -82q41 -2 108 22t113 60q-96 23 -132 55.5t-36 82.5q0 61 53 115.5t119 54.5
q39 0 64 -27.5t34 -63.5t9 -79q0 -42 -10 -75q8 -2 48 -4zM153 1328q0 -10 6 -21.5t21 -27.5t49 -32t83 -27q5 11 5 29q0 51 -27.5 88.5t-63.5 37.5q-29 0 -51 -14.5t-22 -32.5z" />
    <glyph glyph-name="uniFE74" unicode="&#xfe74;" arabic-form="isolated" 
d="M351 -521l-392 -161v102l392 155v-96zM351 -281l-392 -161v103l392 154v-96z" />
    <glyph glyph-name="uniFE76" unicode="&#xfe76;" arabic-form="isolated" 
d="M377 1188l-392 -161v103l392 155v-97z" />
    <glyph glyph-name="uniFE78" unicode="&#xfe78;" arabic-form="isolated" 
d="M283 1143q-74 -96 -272 -169q-24 0 -73.5 6.5t-55.5 16.5l-2 7q250 100 325 154q-81 15 -118.5 46t-37.5 87q0 72 55.5 125t119.5 53q44 0 78 -45t34 -139q0 -25 -8 -55q-10 -40 -27 -63q-9 -13 -18 -24zM110 1335q0 -66 162 -97q3 12 3 23q0 46 -28 87t-62 41
q-29 0 -52 -17.5t-23 -36.5z" />
    <glyph glyph-name="uniFE7A" unicode="&#xfe7a;" arabic-form="isolated" 
d="M390 -337l-392 -161v103l392 155v-97z" />
    <glyph glyph-name="uniFE7C" unicode="&#xfe7c;" arabic-form="isolated" 
d="M349 1422q4 0 19.5 -29.5t30 -77.5t14.5 -87q0 -78 -34.5 -124.5t-85.5 -50.5q-44 -6 -66.5 4t-39.5 36q-30 -62 -116 -64q-39 -1 -66 9t-39.5 30.5t-19 40.5t-4.5 49.5t5 47t8 42.5q1 4 13 27q15 24 30 10v-30t-1 -56t14.5 -53.5t47.5 -22.5q24 1 41 10t25.5 19.5t14 33
t7 36.5t3.5 45q0 14 6.5 24.5t17.5 11.5q8 2 15.5 -9t10.5 -28q1 -4 3.5 -17t3.5 -17.5t3.5 -16.5t4.5 -17t6 -14.5t8 -13.5l10 -10t12 -8.5t14.5 -4t18.5 -0.5q8 1 22.5 2.5t20.5 3.5q43 14 40 43q-1 25 -32 89q0 1 -30 52l18 43q17 38 26 42z" />
    <glyph glyph-name="uniFE7E" unicode="&#xfe7e;" arabic-form="isolated" 
d="M189 1393q25 0 51 -10.5t51.5 -32.5t41.5 -64t16 -97q0 -44 -18 -78.5t-45 -53t-53 -28t-47 -9.5q-71 0 -110 49.5t-39 122.5q0 51 15.5 92t40 63.5t49.5 34t47 11.5zM190 1123q45 0 81 25t36 41q0 9 -14 32t-47.5 47t-74.5 24q-31 0 -60 -22.5t-29 -58.5q0 -34 27.5 -61
t80.5 -27z" />
    <glyph glyph-name="uniFE82" unicode="&#x622;" horiz-adv-x="563" arabic-form="final" 
d="M525 0q-113 0 -202.5 88t-89.5 233q0 256 -22 576t-34 410q15 13 34 31.5t32 29.5q14 12 39 36.5t36.5 34t14.5 4.5q7 -7 7 -30q11 -193 16 -361t5 -257.5t-1.5 -226.5t-1.5 -201q0 -113 88 -151q43 -24 90 -24h39v-192h-50zM427 1679q46 0 91 16t68 28.5t27 8.5
t-1.5 -18.5t-21.5 -35.5t-40 -41.5t-64 -36.5t-87 -21q-45 -6 -132.5 5t-113.5 9q-29 -1 -57.5 -28t-47.5 -51t-28 -21q-10 4 2 59.5t42.5 110t63.5 54.5q44 0 145.5 -19t153.5 -19z" />
    <glyph glyph-name="uniFE84" unicode="&#x623;" horiz-adv-x="566" arabic-form="final" 
d="M525 0q-113 0 -202.5 88t-89.5 233q0 256 -22 576t-34 410q15 13 34 31.5t32 29.5q14 12 39 36.5t36.5 34t14.5 4.5q7 -7 7 -30q11 -193 16 -361t5 -257.5t-1.5 -226.5t-1.5 -201q0 -113 88 -151q43 -24 90 -24h39v-192h-50zM50 1511l85 50l25 16q-44 24 -73.5 67.5
t-26.5 94.5q3 61 78.5 139.5t141.5 75.5q107 -5 162 -114q4 -8 2 -13.5t-10 -6.5t-25 7q-43 25 -120 28q-55 2 -104 -31t-51 -66q-1 -13 15.5 -35t44 -43t69 -32.5t83.5 -4.5v-1l51 9q58 11 76 15q3 1 5.5 0.5t0.5 -5.5l-17 -48q-9 -23 -15 -44q-276 -49 -424 -148z" />
    <glyph glyph-name="uniFE86" unicode="&#x624;" horiz-adv-x="818" arabic-form="final" 
d="M633 192q-17 119 -50 204q-76 201 -200 201q-67 0 -123.5 -71.5t-58.5 -157.5q-1 -26 0.5 -46.5t9 -37.5t15.5 -29.5t25.5 -22.5t32.5 -16.5t44 -11t52 -7t64.5 -3.5t74 -1.5t86.5 -0.5h28zM427 795q50 0 93.5 -23t74.5 -60t57 -90.5t42.5 -106t29.5 -115t20 -110.5
t12 -98h71v-192h-67q-5 -110 -32 -202t-65.5 -153t-88 -108.5t-96 -73.5t-93.5 -42.5t-77 -22t-50 -5.5q-42 0 -116.5 53t-95.5 84q-8 8 -2.5 17t23.5 10q13 0 97 5q200 12 342 144.5t151 293.5h-321q-95 0 -159 78t-60 229q2 110 51 225.5t121 189t138 73.5zM244 962l85 50
l25 16q-44 24 -73.5 67.5t-26.5 94.5q3 61 78.5 139.5t141.5 75.5q107 -5 162 -114q4 -8 2 -13.5t-10 -6.5t-25 7q-43 25 -120 28q-55 2 -104 -31t-51 -66q-1 -13 15.5 -35t44 -43t69 -32.5t83.5 -4.5l51 8q33 5 76 15q3 1 5.5 0.5t0.5 -5.5l-17 -48q-9 -23 -15 -44
q-276 -49 -424 -148z" />
    <glyph glyph-name="uniFE88" unicode="&#x625;" horiz-adv-x="501" arabic-form="final" 
d="M464 0q-113 0 -202.5 88t-89.5 233q0 256 -22 576t-34 410q15 13 34 31.5t32 29.5q14 12 39 36.5t36.5 34t14.5 4.5q7 -7 7 -30q11 -193 16 -361t5 -257.5t-1.5 -226.5t-1.5 -201q0 -113 88 -151q43 -24 90 -24h39v-192h-50zM187 -582l85 50l25 16q-44 24 -73.5 67.5
t-26.5 94.5q3 61 78.5 139.5t141.5 75.5q107 -5 162 -114q4 -8 2 -13.5t-10 -6.5t-25 7q-43 25 -120 28q-55 2 -104 -31t-51 -66q-1 -13 15.5 -35t44 -43t69 -32.5t83.5 -4.5v-1l51 9q58 11 76 15q3 1 5.5 0.5t0.5 -5.5l-17 -48q-9 -23 -15 -44q-276 -49 -424 -148z" />
    <glyph glyph-name="uniFE8A" unicode="&#x626;" horiz-adv-x="1516" arabic-form="final" 
d="M1532 192q-161 0 -266.5 6t-299.5 32q-2 0 -8 -6.5t-13 -17t-13.5 -20.5t-13 -19.5t-7.5 -11.5q0 -1 -11 -22.5t-20 -42t-5 -20.5q174 -54 323.5 -134t149.5 -127q0 -60 -156 -121.5t-379 -78.5q-103 -9 -187.5 1t-143 34.5t-102 64t-68.5 85t-38 102t-15.5 110t2.5 114
t14 109t22 99.5q10 41 24 85t23.5 70t18.5 54t9.5 38.5t-5.5 23.5q-16 16 -38 -8t-45 -78t-37.5 -95t-29.5 -88q-53 -166 -69.5 -303t-1 -235t60 -171.5t106 -118.5t144.5 -71t169.5 -33.5t186.5 -2.5q136 9 255.5 51t200.5 104.5t128 140t47 156.5q0 59 -48 113
q-27 29 -48 45q67 -5 184 -5v192zM464 212l85 50l25 16q-44 24 -73.5 67.5t-26.5 94.5q3 61 78.5 139.5t141.5 75.5q107 -5 162 -114q4 -8 2 -13.5t-10 -6.5t-25 7q-43 25 -120 28q-55 2 -104 -31t-51 -66q-1 -13 15.5 -35t44 -43t69 -32.5t83.5 -4.5l51 8q33 5 76 15
q3 1 5.5 0.5t0.5 -5.5l-17 -48q-9 -23 -15 -44q-276 -49 -424 -148z" />
    <glyph glyph-name="uniFE8B" unicode="&#x626;" horiz-adv-x="585" arabic-form="initial" 
d="M33 998l85 50l25 16q-44 24 -73.5 67.5t-26.5 94.5q3 61 78.5 139.5t141.5 75.5q107 -5 162 -114q4 -8 2 -13.5t-10 -6.5t-25 7q-43 25 -120 28q-55 2 -104 -31t-51 -66q-1 -13 15.5 -35t44 -43t69 -32.5t83.5 -4.5l51 8q33 5 76 15q3 1 5.5 0.5t0.5 -5.5l-17 -48
q-9 -23 -15 -44q-276 -49 -424 -148zM-111 96q0 40 28 68t68 28h81q58 0 99.5 2t107 9t109.5 26.5t60 49.5q9 69 -64 245q-55 115 -76 152l53 96q53 96 69 96q7 0 24 -36t37.5 -94.5t38 -131.5t25 -147t-1.5 -141q-20 -129 -138 -223.5t-310 -94.5h-114q-40 0 -68 28t-28 68
z" />
    <glyph glyph-name="uniFE8C" unicode="&#x626;" horiz-adv-x="626" arabic-form="medial" 
d="M-107 96q0 40 28 68t68 28h44q52 0 115 23q131 47 134 164q3 46 -17 127q-11 38 -19 60l49 67q48 69 59 58l2 -8q2 -8 5 -23t6.5 -35t7 -48t7 -58t5.5 -68.5t3 -77.5q0 -9 1.5 -23t14 -44t34 -53.5t67 -42t107.5 -18.5h19v-192h-7q-82 0 -164.5 49.5t-134.5 122.5v-3
q-46 -71 -127 -120t-178 -49h-33q-40 0 -68 28t-28 68zM116 774l85 50l25 16q-44 24 -73.5 67.5t-26.5 94.5q3 61 78.5 139.5t141.5 75.5q107 -5 162 -114q4 -8 2 -13.5t-10 -6.5t-25 7q-43 25 -120 28q-55 2 -104 -31t-51 -66q-1 -13 15.5 -35t44 -43t69 -32.5t83.5 -4.5
l51 8q33 5 76 15q3 1 5.5 0.5t0.5 -5.5l-17 -48q-9 -23 -15 -44q-276 -49 -424 -148z" />
    <glyph glyph-name="uniFE8E" unicode="&#x627;" horiz-adv-x="551" arabic-form="final" 
d="M505 0q-113 0 -202.5 88t-89.5 233q0 256 -22 576t-34 410q15 13 34 31.5t32 29.5q14 12 39 36.5t36.5 34t14.5 4.5q7 -7 7 -30q11 -193 16 -361t5 -257.5t-1.5 -226.5t-1.5 -201q0 -113 88 -151q41 -23 90 -23h39v-193h-50z" />
    <glyph glyph-name="uniFE90" unicode="&#x628;" horiz-adv-x="1817" arabic-form="final" 
d="M1651 489q-10 -32 -15 -66.5t-1.5 -77.5t19 -75.5t54.5 -55t97 -22.5h23v-192h-23q-55 0 -101.5 17t-77 46t-50 61t-29.5 67q-12 47 -15 86q-238 -286 -747 -286q-88 0 -151 3t-164 19t-167.5 44.5t-134 86t-93 137t-15 203.5t72.5 280q9 20 24.5 23.5t24.5 -9.5t3 -32
q-42 -112 -42 -202.5t28 -148t89 -99.5t120.5 -63t144 -33t138 -14.5t122.5 -2.5q101 0 190 9t157 23t127.5 37.5t100.5 44.5t78.5 52t59 53.5t43.5 55.5t31 50.5t22.5 45.5t16.5 35q23 42 49 38q20 -2 19 -28l-2 -10q-1 -3 -4.5 -19.5t-8.5 -37t-13 -43.5zM973 -376
l-146 -146l-147 147l146 146z" />
    <glyph glyph-name="uniFE91" unicode="&#x628;" horiz-adv-x="515" arabic-form="initial" 
d="M-103 96q0 40 28 68t68 28h88q65 2 108 11q107 21 117 76q9 69 -64 245q-55 115 -76 152l53 96q53 96 69 96q7 0 24 -36t37.5 -94.5t38 -131.5t25 -147t-1.5 -141q-18 -118 -111.5 -218t-185.5 -100h-121q-40 0 -68 28t-28 68zM400 -376l-146 -146l-147 147l146 146z" />
    <glyph glyph-name="uniFE92" unicode="&#x628;" horiz-adv-x="635" arabic-form="medial" 
d="M-101 96q0 40 28 68t68 28h44q52 0 115 23q131 47 134 164q3 46 -17 127q-11 38 -19 60l49 67q48 69 59 58l2 -8q2 -8 5 -23t6.5 -35t7 -48t7 -58t5.5 -68.5t3 -77.5q0 -9 1.5 -23t14 -44t34 -53.5t67 -42t107.5 -18.5h19v-192h-7q-82 0 -164.5 49.5t-134.5 122.5v-3
q-46 -71 -127 -120t-178 -49h-33q-40 0 -68 28t-28 68zM493 -376l-146 -146l-147 147l146 146z" />
    <glyph glyph-name="uniFE94" unicode="&#x629;" horiz-adv-x="919" arabic-form="final" 
d="M929 192v-192h-39q-62 0 -115.5 23.5t-90.5 64t-62.5 88t-39.5 100.5l-132 -127q-25 -7 -56 -12q-72 -8 -148 13q-112 28 -147.5 135t26.5 235q48 92 378 319q-4 22 -6 59l-3 21q62 67 69 74q70 70 86 61l11 -150q4 -38 14 -165t18 -212q12 -133 37.5 -205.5t68 -101
t115.5 -28.5h16zM159 442q13 -45 61.5 -73t113.5 -36.5t124.5 -8.5t112.5 7q-35 240 -50 367q-144 -60 -258.5 -136.5t-103.5 -119.5zM266 1213l-138 139l137 139l140 -140zM613 1213l-140 139l139 139l138 -140z" />
    <glyph glyph-name="uniFE96" unicode="&#x62a;" horiz-adv-x="1822" arabic-form="final" 
d="M1658 489q-10 -32 -15 -66.5t-1.5 -77.5t19 -75.5t54.5 -55t97 -22.5h23v-192h-23q-55 0 -101.5 17t-77 46t-50 61t-29.5 67q-12 47 -15 86q-238 -286 -747 -286q-88 0 -151 3t-164 19t-167.5 44.5t-134 86t-93 137t-15 203.5t72.5 280q9 20 24.5 23.5t24.5 -9.5t3 -32
q-42 -112 -42 -202.5t28 -148t89 -99.5t120.5 -63t144 -33t138 -14.5t122.5 -2.5q101 0 190 9t157 23t127.5 37.5t100.5 44.5t78.5 52t59 53.5t43.5 55.5t31 50.5t22.5 45.5t16.5 35q23 42 49 38q20 -2 19 -28l-2 -10q-1 -3 -4.5 -19.5t-8.5 -37t-13 -43.5zM663 636
l-138 139l137 139l140 -140zM1010 636l-140 139l139 139l138 -140z" />
    <glyph glyph-name="uniFE97" unicode="&#x62a;" horiz-adv-x="668" arabic-form="initial" 
d="M118 1012l-138 139l137 139l140 -140zM465 1012l-140 139l139 139l138 -140zM-109 96q0 40 28 68t68 28h108q348 0 396 87q9 69 -64 245q-55 115 -76 152l53 96q53 96 69 96q7 0 24 -36t37.5 -94.5t38 -131.5t25 -147t-1.5 -141q-9 -60 -45.5 -116t-94.5 -101.5
t-143.5 -73t-184.5 -27.5h-141q-40 0 -68 28t-28 68z" />
    <glyph glyph-name="uniFE98" unicode="&#x62a;" horiz-adv-x="788" arabic-form="medial" 
d="M-103 96q0 40 28 68t68 28h38q68 0 150 23q165 48 168 164q3 46 -17 127q-11 38 -19 60l49 67q48 69 59 58l2 -8q2 -8 5 -23t6.5 -35t7 -48t7 -58t5.5 -68.5t3 -77.5q0 -7 4 -22.5t21 -44.5t45.5 -53t85.5 -42.5t132 -18.5h51v-192h-7q-129 0 -236 49t-159 123v-3
q-46 -70 -145 -119.5t-229 -49.5h-27q-40 0 -68 28t-28 68zM217 825l-138 139l137 139l140 -140zM564 825l-140 139l139 139l138 -140z" />
    <glyph glyph-name="uniFE9A" unicode="&#x62b;" horiz-adv-x="1833" arabic-form="final" 
d="M1672 489q-10 -32 -15 -66.5t-1.5 -77.5t19 -75.5t54.5 -55t97 -22.5h23v-192h-23q-55 0 -101.5 17t-77 46t-50 61t-29.5 67q-12 47 -15 86q-238 -286 -747 -286q-88 0 -151 3t-164 19t-167.5 44.5t-134 86t-93 137t-15 203.5t72.5 280q9 20 24.5 23.5t24.5 -9.5t3 -32
q-42 -112 -42 -202.5t28 -148t89 -99.5t120.5 -63t144 -33t138 -14.5t122.5 -2.5q101 0 190 9t157 23t127.5 37.5t100.5 44.5t78.5 52t59 53.5t43.5 55.5t31 50.5t22.5 45.5t16.5 35q23 42 49 38q20 -2 19 -28l-2 -10q-1 -3 -4.5 -19.5t-8.5 -37t-13 -43.5zM679 573
l-138 139l137 139l140 -140zM1045 573l-140 139l139 139l138 -140zM995 958l-131 -131l-132 132l131 131z" />
    <glyph glyph-name="uniFE9B" unicode="&#x62b;" horiz-adv-x="668" arabic-form="initial" 
d="M122 1002l-138 139l137 139l140 -140zM488 1002l-140 139l139 139l138 -140zM438 1387l-131 -131l-132 132l131 131zM-101 96q0 40 28 68t68 28h108q348 0 396 87q9 69 -64 245q-55 115 -76 152l53 96q53 96 69 96q7 0 24 -36t37.5 -94.5t38 -131.5t25 -147t-1.5 -141
q-9 -60 -45.5 -116t-94.5 -101.5t-143.5 -73t-184.5 -27.5h-141q-40 0 -68 28t-28 68z" />
    <glyph glyph-name="uniFE9C" unicode="&#x62b;" horiz-adv-x="777" arabic-form="medial" 
d="M-103 96q0 40 28 68t68 28h38q68 0 150 23q165 48 168 164q3 46 -17 127q-11 38 -19 60l49 67q48 69 59 58l2 -8q2 -8 5 -23t6.5 -35t7 -48t7 -58t5.5 -68.5t3 -77.5q0 -7 4 -22.5t21 -44.5t45.5 -53t85.5 -42.5t132 -18.5h51v-192h-7q-129 0 -236 49t-159 123v-3
q-46 -70 -145 -119.5t-229 -49.5h-27q-40 0 -68 28t-28 68zM207 792l-138 139l137 139l140 -140zM573 792l-140 139l139 139l138 -140zM523 1177l-131 -131l-132 132l131 131z" />
    <glyph glyph-name="uniFE9E" unicode="&#x62c;" horiz-adv-x="1475" arabic-form="final" 
d="M1491 192v-192h-80q-56 0 -101.5 8t-79.5 21t-61 35.5t-44.5 44t-30 55t-19 61t-10 68.5t-4.5 70.5t-1 74.5q-176 -15 -320 -55t-238.5 -93.5t-159.5 -120t-93 -133.5t-28 -135q0 -64 25 -124.5t78 -115.5t129 -96t185 -65t238 -24q253 0 501 65q27 7 33.5 -1t-10.5 -26
q-194 -219 -573 -219q-226 0 -393 71t-250.5 207.5t-61.5 318.5q8 73 31.5 143t80 154t139 152.5t220 128.5t311.5 92q-53 18 -144.5 57.5t-161.5 62.5t-126 23q-86 0 -169 -64q-39 -34 -64 -64q-16 -24 -36.5 -30.5t-28.5 9t3 52.5q51 144 130.5 224.5t181.5 80.5
q58 0 138 -26.5t166.5 -65.5t180 -78t208 -68.5t221.5 -32.5q25 0 30 -8.5t-3 -19.5l-94 -164q-84 0 -179 -5q1 -70 10.5 -112.5t36.5 -77t77 -49t130 -14.5h80zM931 -90l-146 -146l-147 147l146 146z" />
    <glyph glyph-name="uniFE9F" unicode="&#x62c;" horiz-adv-x="1365" arabic-form="initial" 
d="M-105 96q0 40 28 68t68 28h108q154 0 421.5 79t439.5 191q-88 30 -219 83.5t-208.5 79t-134.5 25.5q-88 0 -167 -65q-35 -26 -65 -63q-16 -24 -36.5 -30.5t-29 8.5t2.5 53q103 285 312 285q59 0 135.5 -26.5t157.5 -64t169.5 -76t198.5 -66.5t217 -30q25 -1 30 -9t-3 -21
l-92 -151q-84 -21 -236.5 -89.5t-289.5 -133.5t-313.5 -118t-319.5 -53h-78q-40 0 -68 28t-28 68zM742 -254l-146 -146l-147 147l146 146z" />
    <glyph glyph-name="uniFEA0" unicode="&#x62c;" horiz-adv-x="1403" arabic-form="medial" 
d="M-106 96q0 40 28 68t68 28h101q96 0 248.5 32t325.5 95.5t286 138.5q-88 31 -218.5 84.5t-208.5 79t-134 25.5q-86 0 -167 -64q-33 -23 -65 -62q-16 -25 -37 -31.5t-29.5 9.5t2.5 52q103 284 312 284q59 0 135.5 -26t157.5 -64t169.5 -76t198.5 -66t216 -30
q26 -1 31 -9.5t-3 -19.5l-91 -152q-70 -18 -169 -61q12 -80 65 -109.5t183 -29.5h129v-192h-129q-68 0 -120.5 9t-88.5 28t-61 43t-39.5 58.5t-21.5 69.5t-11 81q-24 -11 -114 -52.5t-128.5 -58.5t-121.5 -52t-137 -51.5t-127 -37t-139 -29t-129 -8.5h-71q-40 0 -68 28
t-28 68zM750 -230l-146 -146l-147 147l146 146z" />
    <glyph glyph-name="uniFEA2" unicode="&#x62d;" horiz-adv-x="1479" arabic-form="final" 
d="M1491 192v-192h-80q-56 0 -101.5 8t-79.5 21t-61 35.5t-44.5 44t-30 55t-19 61t-10 68.5t-4.5 70.5t-1 74.5q-176 -15 -320 -55t-238.5 -93.5t-159.5 -120t-93 -133.5t-28 -135q0 -64 25 -124.5t78 -115.5t129 -96t185 -65t238 -24q253 0 501 65q27 7 33.5 -1t-10.5 -26
q-194 -219 -573 -219q-226 0 -393 71t-250.5 207.5t-61.5 318.5q8 73 31.5 143t80 154t139 152.5t220 128.5t311.5 92q-53 18 -144.5 57.5t-161.5 62.5t-126 23q-86 0 -169 -64q-39 -34 -64 -64q-16 -24 -36.5 -30.5t-28.5 9t3 52.5q51 144 130.5 224.5t181.5 80.5
q58 0 138 -26.5t166.5 -65.5t180 -78t208 -68.5t221.5 -32.5q25 0 30 -8.5t-3 -19.5l-94 -164q-84 0 -179 -5q1 -70 10.5 -112.5t36.5 -77t77 -49t130 -14.5h80z" />
    <glyph glyph-name="uniFEA3" unicode="&#x62d;" horiz-adv-x="1358" arabic-form="initial" 
d="M-105 96q0 40 28 68t68 28h108q154 0 421.5 79t439.5 191q-88 30 -219 83.5t-208.5 79t-134.5 25.5q-88 0 -167 -65q-35 -26 -65 -63q-16 -24 -36.5 -30.5t-29 8.5t2.5 53q103 285 312 285q59 0 135.5 -26.5t157.5 -64t169.5 -76t198.5 -66.5t217 -30q25 -1 30 -9t-3 -21
l-92 -151q-84 -21 -236.5 -89.5t-289.5 -133.5t-313.5 -118t-319.5 -53h-78q-40 0 -68 28t-28 68z" />
    <glyph glyph-name="uniFEA4" unicode="&#x62d;" horiz-adv-x="1410" arabic-form="medial" 
d="M-106 96q0 40 28 68t68 28h101q96 0 248.5 32t325.5 95.5t286 138.5q-88 31 -218.5 84.5t-208.5 79t-134 25.5q-86 0 -167 -64q-33 -23 -65 -62q-16 -25 -37 -31.5t-29.5 9.5t2.5 52q103 284 312 284q59 0 135.5 -26t157.5 -64t169.5 -76t198.5 -66t216 -30
q26 -1 31 -9.5t-3 -19.5l-91 -152q-70 -18 -169 -61q12 -80 65 -109.5t183 -29.5h129v-192h-129q-68 0 -120.5 9t-88.5 28t-61 43t-39.5 58.5t-21.5 69.5t-11 81q-24 -11 -114 -52.5t-128.5 -58.5t-121.5 -52t-137 -51.5t-127 -37t-139 -29t-129 -8.5h-71q-40 0 -68 28
t-28 68z" />
    <glyph glyph-name="uniFEA6" unicode="&#x62e;" horiz-adv-x="1477" arabic-form="final" 
d="M1491 192v-192h-80q-56 0 -101.5 8t-79.5 21t-61 35.5t-44.5 44t-30 55t-19 61t-10 68.5t-4.5 70.5t-1 74.5q-176 -15 -320 -55t-238.5 -93.5t-159.5 -120t-93 -133.5t-28 -135q0 -64 25 -124.5t78 -115.5t129 -96t185 -65t238 -24q253 0 501 65q27 7 33.5 -1t-10.5 -26
q-194 -219 -573 -219q-226 0 -393 71t-250.5 207.5t-61.5 318.5q8 73 31.5 143t80 154t139 152.5t220 128.5t311.5 92q-53 18 -144.5 57.5t-161.5 62.5t-126 23q-86 0 -169 -64q-39 -34 -64 -64q-16 -24 -36.5 -30.5t-28.5 9t3 52.5q51 144 130.5 224.5t181.5 80.5
q58 0 138 -26.5t166.5 -65.5t180 -78t208 -68.5t221.5 -32.5q25 0 30 -8.5t-3 -19.5l-94 -164q-84 0 -179 -5q1 -70 10.5 -112.5t36.5 -77t77 -49t130 -14.5h80zM651 1227l-146 -146l-147 147l146 146z" />
    <glyph glyph-name="uniFEA7" unicode="&#x62e;" horiz-adv-x="1365" arabic-form="initial" 
d="M-105 96q0 40 28 68t68 28h108q154 0 421.5 79t439.5 191q-88 30 -219 83.5t-208.5 79t-134.5 25.5q-88 0 -167 -65q-35 -26 -65 -63q-16 -24 -36.5 -30.5t-29 8.5t2.5 53q103 285 312 285q59 0 135.5 -26.5t157.5 -64t169.5 -76t198.5 -66.5t217 -30q25 -1 30 -9t-3 -21
l-92 -151q-84 -21 -236.5 -89.5t-289.5 -133.5t-313.5 -118t-319.5 -53h-78q-40 0 -68 28t-28 68zM534 1227l-146 -146l-147 147l146 146z" />
    <glyph glyph-name="uniFEA8" unicode="&#x62e;" horiz-adv-x="1403" arabic-form="medial" 
d="M-106 96q0 40 28 68t68 28h101q96 0 248.5 32t325.5 95.5t286 138.5q-88 31 -218.5 84.5t-208.5 79t-134 25.5q-86 0 -167 -64q-33 -23 -65 -62q-16 -25 -37 -31.5t-29.5 9.5t2.5 52q103 284 312 284q59 0 135.5 -26t157.5 -64t169.5 -76t198.5 -66t216 -30
q26 -1 31 -9.5t-3 -19.5l-91 -152q-70 -18 -169 -61q12 -80 65 -109.5t183 -29.5h129v-192h-129q-68 0 -120.5 9t-88.5 28t-61 43t-39.5 58.5t-21.5 69.5t-11 81q-24 -11 -114 -52.5t-128.5 -58.5t-121.5 -52t-137 -51.5t-127 -37t-139 -29t-129 -8.5h-71q-40 0 -68 28
t-28 68zM515 1212l-146 -146l-147 147l146 146z" />
    <glyph glyph-name="uniFEAA" unicode="&#x62f;" horiz-adv-x="1051" arabic-form="final" 
d="M867 326q33 -88 112 -119q51 -15 76 -15v-192q-52 0 -94.5 16t-73 45.5t-50.5 57t-40 64.5q-26 -56 -70 -95t-101 -58.5t-114 -27.5t-126 -8q-60 0 -109.5 14t-81 37t-54.5 50.5t-33.5 55.5t-15 51.5t-3 39.5t6.5 18q5 3 15 -3t29.5 -17.5t47.5 -23.5t79.5 -20.5
t115.5 -8.5q170 0 239 15q102 22 129 84q-117 266 -160 361l-117 258l51 87q53 88 69 88q23 -63 127 -350q80 -227 146 -404z" />
    <glyph glyph-name="uniFEAC" unicode="&#x630;" horiz-adv-x="1046" arabic-form="final" 
d="M867 326q33 -88 112 -119q51 -15 76 -15v-192q-52 0 -94.5 16t-73 45.5t-50.5 57t-40 64.5q-26 -56 -70 -95t-101 -58.5t-114 -27.5t-126 -8q-60 0 -109.5 14t-81 37t-54.5 50.5t-33.5 55.5t-15 51.5t-3 39.5t6.5 18q5 3 15 -3t29.5 -17.5t47.5 -23.5t79.5 -20.5
t115.5 -8.5q170 0 239 15q102 22 129 84q-117 266 -160 361l-117 258l51 87q53 88 69 88q23 -63 127 -350q80 -227 146 -404zM734 1343l-146 -146l-147 147l146 146z" />
    <glyph glyph-name="uniFEAE" unicode="&#x631;" horiz-adv-x="953" arabic-form="final" 
d="M585 583q7 0 19.5 -26t35.5 -78t45 -92q51 -89 115 -142t161 -53v-192q-66 0 -113 9t-77.5 27.5t-47 35.5t-35.5 45q0 -121 -41 -238t-102 -202t-130.5 -151t-129.5 -99.5t-95 -33.5q-36 0 -114.5 49.5t-99.5 77.5q-8 11 -2 21.5t22 10.5q78 0 166.5 38t164 98t138 128
t98.5 134t36 111q0 116 -135 330q34 71 71 131.5t50 60.5z" />
    <glyph glyph-name="uniFEB0" unicode="&#x632;" horiz-adv-x="952" arabic-form="final" 
d="M585 583q7 0 19.5 -26t35.5 -78t45 -92q51 -89 115 -142t161 -53v-192q-66 0 -113 9t-77.5 27.5t-47 35.5t-35.5 45q0 -121 -41 -238t-102 -202t-130.5 -151t-129.5 -99.5t-95 -33.5q-36 0 -114.5 49.5t-99.5 77.5q-8 11 -2 21.5t22 10.5q78 0 166.5 38t164 98t138 128
t98.5 134t36 111q0 116 -135 330q34 71 71 131.5t50 60.5zM704 1003l-146 -146l-147 147l146 146z" />
    <glyph glyph-name="uniFEB2" unicode="&#x633;" horiz-adv-x="2663" arabic-form="final" 
d="M2472 534q-3 -47 6 -103t29.5 -111t62 -91.5t96.5 -36.5v-192q-115 0 -181.5 64.5t-68.5 179.5q-26 -74 -56.5 -123t-66 -75t-71.5 -36t-83 -10q-136 0 -221 122q-38 58 -57 122q-16 -65 -54 -122q-34 -52 -92 -86t-137 -34q-122 0 -185 59q-27 21 -41 57q3 -90 0 -113
q-23 -279 -200.5 -444t-500.5 -163q-71 0 -141 17t-133.5 53t-116 87t-86.5 124t-46.5 159t5.5 196t68 232q6 14 20 49q54 136 83 162q20 18 36 0q8 -8 8.5 -17t-5.5 -25.5t-14.5 -36t-22.5 -56.5t-26 -78q-17 -60 -27.5 -114t-13.5 -119t6 -119t37 -108t73.5 -92.5t121 -66
t174.5 -34.5q170 -13 306 39.5t214.5 166t78.5 269.5q-11 197 -131 365q37 70 74.5 130t47.5 60q4 0 17.5 -33t32 -82.5t47.5 -107.5t62 -107.5t79.5 -82.5t95.5 -33q43 0 79.5 22t60 54.5t43.5 82.5t31.5 93t22.5 99q4 31 18 55.5t34 24.5q18 0 28.5 -26t10.5 -66
q0 -43 15 -98.5t42 -111t74.5 -93.5t103.5 -38q36 0 65.5 8.5t50.5 22t38.5 37t28.5 45t21.5 55t17 58.5t16 63.5t16.5 63.5q2 6 5 19.5t5 20t5.5 15.5t7.5 13.5t10.5 8t14.5 3.5q17 0 24.5 -12.5t8 -32.5t-0.5 -47z" />
    <glyph glyph-name="uniFEB3" unicode="&#x633;" horiz-adv-x="1491" arabic-form="initial" 
d="M1296 868q11 0 39.5 -74.5t51 -193t15.5 -212.5q-17 -184 -109.5 -286t-215.5 -102q-115 0 -181.5 64.5t-67.5 178.5q-26 -74 -57.5 -123t-68 -74.5t-73.5 -35.5t-85 -10q-161 0 -202 192q-9 32 -9 78q-6 -12 -37 -78q-50 -97 -117 -144.5t-183 -47.5v192
q56 0 103.5 18.5t80.5 46.5t62.5 74.5t49.5 90t42 104.5q1 3 5 12.5t6 14.5t6 14.5t7 15t7.5 13.5t8 12.5t8.5 9t9.5 6t9.5 1.5q31 -7 8 -114q-13 -45 -10.5 -100.5t14.5 -104t45.5 -81.5t82.5 -33q41 0 74 9.5t59.5 31.5t45 42.5t37 59.5t29 63.5t29 73.5t27.5 72
q9 24 16 39.5t21 30.5t28 11q33 -9 18 -92q-6 -33 -7 -75.5t7 -89.5t24.5 -86t49.5 -64.5t78 -25.5q57 1 106 25q105 52 118 170q6 81 -60 193q-30 52 -69 97l52 95q21 38 42 67t30 29z" />
    <glyph glyph-name="uniFEB4" unicode="&#x633;" horiz-adv-x="1597" arabic-form="medial" 
d="M1406 533q-3 -47 5.5 -102.5t29 -110.5t62.5 -91.5t98 -36.5v-192q-115 0 -183 65t-68 178q-51 -142 -115.5 -192.5t-161.5 -50.5q-116 0 -181.5 64t-67.5 179q-51 -141 -118 -192t-166 -51q-161 0 -202 192q-9 28 -9 78l-36 -78q-53 -98 -119 -145t-182 -47v192
q56 0 102.5 18.5t80 46.5t63.5 74.5t49.5 90.5t42.5 105q3 6 10 23.5t12 27.5t12.5 23t15.5 19t17 5q32 -6 9 -114q-13 -45 -11 -100.5t13.5 -104t45.5 -81.5t83 -33q36 0 66.5 9t53 21.5t43.5 36.5t35 44.5t30 55t25 58.5t24.5 64.5t24.5 63.5q9 25 16 39.5t21 29.5t28 11
q31 -9 18 -92q-6 -34 -7.5 -75.5t6 -89t24 -86.5t49 -64.5t77.5 -25.5q41 0 73.5 10t55.5 31.5t39 43.5t28.5 59t20 64.5t19 73t18.5 71.5q1 5 3.5 13.5t3.5 13t3.5 12t4 11.5t4 10t5.5 8.5t6.5 5.5t8 4.5t9.5 1.5q39 4 33 -92z" />
    <glyph glyph-name="uniFEB6" unicode="&#x634;" horiz-adv-x="2655" arabic-form="final" 
d="M2472 534q-3 -47 6 -103t29.5 -111t62 -91.5t96.5 -36.5v-192q-115 0 -181.5 64.5t-68.5 179.5q-26 -74 -56.5 -123t-66 -75t-71.5 -36t-83 -10q-136 0 -221 122q-38 58 -57 122q-16 -65 -54 -122q-34 -52 -92 -86t-137 -34q-122 0 -185 59q-27 21 -41 57q3 -90 0 -113
q-23 -279 -200.5 -444t-500.5 -163q-71 0 -141 17t-133.5 53t-116 87t-86.5 124t-46.5 159t5.5 196t68 232q6 14 20 49q54 136 83 162q20 18 36 0q8 -8 8.5 -17t-5.5 -25.5t-14.5 -36t-22.5 -56.5t-26 -78q-17 -60 -27.5 -114t-13.5 -119t6 -119t37 -108t73.5 -92.5t121 -66
t174.5 -34.5q170 -13 306 39.5t214.5 166t78.5 269.5q-11 197 -131 365q37 70 74.5 130t47.5 60q4 0 17.5 -33t32 -82.5t47.5 -107.5t62 -107.5t79.5 -82.5t95.5 -33q43 0 79.5 22t60 54.5t43.5 82.5t31.5 93t22.5 99q4 31 18 55.5t34 24.5q18 0 28.5 -26t10.5 -66
q0 -43 15 -98.5t42 -111t74.5 -93.5t103.5 -38q36 0 65.5 8.5t50.5 22t38.5 37t28.5 45t21.5 55t17 58.5t16 63.5t16.5 63.5q2 6 5 19.5t5 20t5.5 15.5t7.5 13.5t10.5 8t14.5 3.5q17 0 24.5 -12.5t8 -32.5t-0.5 -47zM1673 844l-138 139l137 139l140 -140zM2039 844l-140 139
l139 139l138 -140zM1989 1229l-131 -131l-132 132l131 131z" />
    <glyph glyph-name="uniFEB7" unicode="&#x634;" horiz-adv-x="1492" arabic-form="initial" 
d="M1296 868q11 0 39.5 -74.5t51 -193t15.5 -212.5q-17 -184 -109.5 -286t-215.5 -102q-115 0 -181.5 64.5t-67.5 178.5q-26 -74 -57.5 -123t-68 -74.5t-73.5 -35.5t-85 -10q-161 0 -202 192q-9 32 -9 78q-6 -12 -37 -78q-50 -97 -117 -144.5t-183 -47.5v192
q56 0 103.5 18.5t80.5 46.5t62.5 74.5t49.5 90t42 104.5q1 3 5 12.5t6 14.5t6 14.5t7 15t7.5 13.5t8 12.5t8.5 9t9.5 6t9.5 1.5q31 -7 8 -114q-13 -45 -10.5 -100.5t14.5 -104t45.5 -81.5t82.5 -33q41 0 74 9.5t59.5 31.5t45 42.5t37 59.5t29 63.5t29 73.5t27.5 72
q9 24 16 39.5t21 30.5t28 11q33 -9 18 -92q-6 -33 -7 -75.5t7 -89.5t24.5 -86t49.5 -64.5t78 -25.5q57 1 106 25q105 52 118 170q6 81 -60 193q-30 52 -69 97l52 95q21 38 42 67t30 29zM698 844l-138 139l137 139l140 -140zM1064 844l-140 139l139 139l138 -140zM1014 1229
l-131 -131l-132 132l131 131z" />
    <glyph glyph-name="uniFEB8" unicode="&#x634;" horiz-adv-x="1597" arabic-form="medial" 
d="M1406 533q-3 -47 5.5 -102.5t29 -110.5t62.5 -91.5t98 -36.5v-192q-115 0 -183 65t-68 178q-51 -142 -115.5 -192.5t-161.5 -50.5q-116 0 -181.5 64t-67.5 179q-51 -141 -118 -192t-166 -51q-161 0 -202 192q-9 28 -9 78l-36 -78q-53 -98 -119 -145t-182 -47v192
q56 0 102.5 18.5t80 46.5t63.5 74.5t49.5 90.5t42.5 105q3 6 10 23.5t12 27.5t12.5 23t15.5 19t17 5q32 -6 9 -114q-13 -45 -11 -100.5t13.5 -104t45.5 -81.5t83 -33q36 0 66.5 9t53 21.5t43.5 36.5t35 44.5t30 55t25 58.5t24.5 64.5t24.5 63.5q9 25 16 39.5t21 29.5t28 11
q31 -9 18 -92q-6 -34 -7.5 -75.5t6 -89t24 -86.5t49 -64.5t77.5 -25.5q41 0 73.5 10t55.5 31.5t39 43.5t28.5 59t20 64.5t19 73t18.5 71.5q1 5 3.5 13.5t3.5 13t3.5 12t4 11.5t4 10t5.5 8.5t6.5 5.5t8 4.5t9.5 1.5q39 4 33 -92zM696 790l-138 139l137 139l140 -140z
M1062 790l-140 139l139 139l138 -140zM1012 1175l-131 -131l-132 132l131 131z" />
    <glyph glyph-name="uniFEBA" unicode="&#x635;" horiz-adv-x="2539" arabic-form="final" 
d="M2542 193v-193h-28q-83 0 -139.5 36t-81.5 80q-70 -72 -215 -105.5t-292.5 -28.5t-276 35t-174.5 74q1 -1 0.5 -42t-0.5 -46q0 -281 -181.5 -445t-509.5 -162q-71 0 -140.5 17t-133.5 53t-116 87.5t-86 124.5t-46.5 159t5.5 197t68 233q51 127 65 155q44 84 74 54
q8 -8 8.5 -17t-6 -26t-15 -36.5t-22.5 -57t-26 -77.5q-174 -611 371 -652q170 -14 306.5 39t215 166.5t78.5 268.5q-3 46 -14 91.5t-24 78t-33 68.5t-32 54.5t-31 44t-21 28.5q87 158 112 182q8 8 13 8q8 0 19.5 -28.5t27 -75.5t35 -99t50 -107.5t65.5 -91.5
q35 42 75.5 87.5t103.5 109.5t126 120t139.5 111t146.5 91t143.5 52t135.5 1q56 -14 98.5 -41.5t67.5 -63.5t38 -78.5t12 -86.5t-13 -89q-34 -121 -85 -206q37 -51 115 -51h28zM1504 193q182 -25 332 -25t248.5 20t169.5 55.5t105.5 75.5t46.5 86q14 60 -38 117.5t-144 81.5
q-97 24 -203.5 -5.5t-184 -80.5t-158 -129t-112.5 -117t-62 -79z" />
    <glyph glyph-name="uniFEBB" unicode="&#x635;" horiz-adv-x="1559" arabic-form="initial" 
d="M-106 96q0 40 28 68t68 28h1q47 0 86.5 11.5t70.5 36t54 51t45 70t36 77.5t34 88q33 83 55 96q7 3 13 3q24 -5 12 -85q-1 -6 -3 -19l-2 -10q-21 -138 29 -224q19 -35 53 -58q34 52 81.5 116t127 155t159 162.5t174.5 122.5t175 51t138.5 -21.5t90.5 -55.5t49.5 -79.5
t20.5 -89.5t-2 -89.5t-12.5 -76t-15.5 -51.5q-15 -37 -25.5 -60.5t-30 -60t-37.5 -60.5t-47 -55.5t-60 -51.5t-74.5 -42t-93 -34.5t-113 -20.5t-136.5 -8q-147 0 -248.5 19.5t-160 59t-85.5 90t-33 121.5l-37 -78q-34 -66 -65.5 -104t-86.5 -63t-133 -25h-4q-40 0 -68 28
t-28 68zM1384 398q7 18 7.5 45.5t-11 61t-35.5 61.5t-73.5 45.5t-117.5 14.5q-323 -17 -600 -423q115 -32 297 -32q88 -1 163.5 9t127.5 26t94 38.5t67 43t43.5 44.5t25.5 38t12 28z" />
    <glyph glyph-name="uniFEBC" unicode="&#x635;" horiz-adv-x="1600" arabic-form="medial" 
d="M-103 96q0 40 28 68t68 28h2q47 0 87 11.5t71.5 36t55.5 51.5t46.5 69.5t37.5 78t35 87.5q1 3 5 12.5t6 14.5t6 14.5t7 15t7.5 13.5t8 12.5t8.5 9t9.5 6t9.5 1.5q8 -1 12 -8t4 -20t-1 -24t-3.5 -31.5t-3.5 -30.5q-21 -138 29 -224q19 -35 53 -58q34 53 81 116t127 154.5
t158.5 162.5t173.5 122.5t176 51.5q80 0 138.5 -21.5t90.5 -55.5t49.5 -79.5t20.5 -89.5t-2 -89.5t-12.5 -75.5t-15.5 -52q-48 -119 -89 -178q37 -3 120 -3h124v-192h-162l-111 2q-127 5 -220 16q-114 -38 -278 -38q-119 0 -208 13t-147 36.5t-95.5 60.5t-55 80t-22.5 100
q-8 -20 -36 -78q-36 -66 -68.5 -103.5t-89.5 -63t-137 -25.5h-2q-40 0 -68 28t-28 68zM564 203q117 -32 298 -32q121 -1 218 18.5t151 45.5t92.5 62t51.5 58t20 43q7 19 7.5 46.5t-11 61t-35.5 61.5t-73.5 45.5t-117.5 15.5q-87 -5 -173.5 -41t-150 -83t-123.5 -109
t-93 -105.5t-61 -86.5z" />
    <glyph glyph-name="uniFEBE" unicode="&#x636;" horiz-adv-x="2533" arabic-form="final" 
d="M2542 193v-193h-28q-83 0 -139.5 36t-81.5 80q-70 -72 -215 -105.5t-292.5 -28.5t-276 35t-174.5 74q1 -1 0.5 -42t-0.5 -46q0 -281 -181.5 -445t-509.5 -162q-71 0 -140.5 17t-133.5 53t-116 87.5t-86 124.5t-46.5 159t5.5 197t68 233q51 127 65 155q44 84 74 54
q8 -8 8.5 -17t-6 -26t-15 -36.5t-22.5 -57t-26 -77.5q-174 -611 371 -652q170 -14 306.5 39t215 166.5t78.5 268.5q-3 46 -14 91.5t-24 78t-33 68.5t-32 54.5t-31 44t-21 28.5q87 158 112 182q8 8 13 8q8 0 19.5 -28.5t27 -75.5t35 -99t50 -107.5t65.5 -91.5
q35 42 75.5 87.5t103.5 109.5t126 120t139.5 111t146.5 91t143.5 52t135.5 1q56 -14 98.5 -41.5t67.5 -63.5t38 -78.5t12 -86.5t-13 -89q-34 -121 -85 -206q37 -51 115 -51h28zM1504 193q182 -25 332 -25t248.5 20t169.5 55.5t105.5 75.5t46.5 86q14 60 -38 117.5t-144 81.5
q-97 24 -203.5 -5.5t-184 -80.5t-158 -129t-112.5 -117t-62 -79zM2250 1169l-146 -146l-147 147l146 146z" />
    <glyph glyph-name="uniFEBF" unicode="&#x636;" horiz-adv-x="1564" arabic-form="initial" 
d="M-106 96q0 40 28 68t68 28h1q47 0 86.5 11.5t70.5 36t54 51t45 70t36 77.5t34 88q33 83 55 96q7 3 13 3q24 -5 12 -85q-1 -6 -3 -19l-2 -10q-21 -138 29 -224q19 -35 53 -58q34 52 81.5 116t127 155t159 162.5t174.5 122.5t175 51t138.5 -21.5t90.5 -55.5t49.5 -79.5
t20.5 -89.5t-2 -89.5t-12.5 -76t-15.5 -51.5q-15 -37 -25.5 -60.5t-30 -60t-37.5 -60.5t-47 -55.5t-60 -51.5t-74.5 -42t-93 -34.5t-113 -20.5t-136.5 -8q-147 0 -248.5 19.5t-160 59t-85.5 90t-33 121.5l-37 -78q-34 -66 -65.5 -104t-86.5 -63t-133 -25h-4q-40 0 -68 28
t-28 68zM1384 398q7 18 7.5 45.5t-11 61t-35.5 61.5t-73.5 45.5t-117.5 14.5q-323 -17 -600 -423q115 -32 297 -32q88 -1 163.5 9t127.5 26t94 38.5t67 43t43.5 44.5t25.5 38t12 28zM1275 1158l-146 -146l-147 147l146 146z" />
    <glyph glyph-name="uniFEC0" unicode="&#x636;" horiz-adv-x="1600" arabic-form="medial" 
d="M-103 96q0 40 28 68t68 28h2q47 0 87 11.5t71.5 36t55.5 51.5t46.5 69.5t37.5 78t35 87.5q1 3 5 12.5t6 14.5t6 14.5t7 15t7.5 13.5t8 12.5t8.5 9t9.5 6t9.5 1.5q8 -1 12 -8t4 -20t-1 -24t-3.5 -31.5t-3.5 -30.5q-21 -138 29 -224q19 -35 53 -58q34 53 81 116t127 154.5
t158.5 162.5t173.5 122.5t176 51.5q80 0 138.5 -21.5t90.5 -55.5t49.5 -79.5t20.5 -89.5t-2 -89.5t-12.5 -75.5t-15.5 -52q-48 -119 -89 -178q37 -3 120 -3h124v-192h-162l-111 2q-127 5 -220 16q-114 -38 -278 -38q-119 0 -208 13t-147 36.5t-95.5 60.5t-55 80t-22.5 100
q-8 -20 -36 -78q-36 -66 -68.5 -103.5t-89.5 -63t-137 -25.5h-2q-40 0 -68 28t-28 68zM564 203q117 -32 298 -32q121 -1 218 18.5t151 45.5t92.5 62t51.5 58t20 43q7 19 7.5 46.5t-11 61t-35.5 61.5t-73.5 45.5t-117.5 15.5q-87 -5 -173.5 -41t-150 -83t-123.5 -109
t-93 -105.5t-61 -86.5zM1297 1163l-146 -146l-147 147l146 146z" />
    <glyph glyph-name="uniFEC2" unicode="&#x637;" horiz-adv-x="1492" arabic-form="final" 
d="M1524 192v-192q-199 0 -260 1q-186 0 -285 14q-117 -31 -254 -31q-265 0 -415 24q-46 7 -74 14l-21 6q-87 24 -129.5 66.5t-69.5 111.5q-6 17 -1 26t18 6q110 -25 326 -41q14 16 41 53t29 41q23 33 33 98t10 120v42q-9 407 -40 658q-9 99 -26 199q15 19 77 78
q78 78 93 67l6 -21q1 -3 1 -15l12 -219q0 -5 4 -151t3.5 -178t-0.5 -200q0 -222 -52 -325q349 412 568 412q80 0 139 -21.5t90.5 -55.5t49 -79t20.5 -89t-2 -89.5t-12.5 -76.5t-16.5 -53q-39 -107 -114 -199q25 -1 108 -1h144zM738 182q94 -1 175 9.5t136 27t101 41t72.5 45
t47.5 46.5t28.5 39t14.5 28q6 15 6.5 37t-4 49t-21 53t-41.5 47.5t-69.5 33.5t-100.5 9q-63 -3 -127.5 -25t-115.5 -50.5t-107.5 -75t-92 -80t-81 -86.5t-62 -75t-47.5 -62q31 -4 74 -6q60 -5 214 -5z" />
    <glyph glyph-name="uniFEC3" unicode="&#x637;" horiz-adv-x="1224" arabic-form="initial" 
d="M-115 96q0 40 28 68t68 28h102q6 10 24 34.5t33 44.5t16 21q42 66 42 219v41q-6 371 -37 658q-10 88 -29 199q22 25 77 78q81 75 93 67q6 -6 7 -20q1 -7 1 -16q1 -10 11 -218q11 -308 7 -531q0 -221 -52 -323q349 412 570 412q80 0 138.5 -21.5t90.5 -55.5t49.5 -79.5
t20.5 -89.5t-2 -89.5t-12.5 -76t-15.5 -52.5q-18 -46 -32.5 -78.5t-41.5 -76.5t-57.5 -74.5t-77.5 -64t-103 -53.5t-134 -33t-170 -13h-504q-3 -1 -14 -1q-40 0 -68 28t-28 68zM1040 420q5 14 6 36t-3.5 49t-21 53.5t-41.5 47.5t-69 33t-100 9q-63 -3 -127.5 -25t-116 -50.5
t-108 -75t-92.5 -80.5t-81 -87t-62.5 -75t-47.5 -62q36 -1 147.5 -1h183.5q89 0 164.5 10.5t126.5 26t93.5 39t66 43t43 44.5t26 37.5t13.5 27.5z" />
    <glyph glyph-name="uniFEC4" unicode="&#x637;" horiz-adv-x="1225" arabic-form="medial" 
d="M-123 96q0 40 28 68t68 28h105q9 15 39 55.5t33 43.5q22 35 33 100.5t11 118.5v41q-6 371 -37 658q-13 119 -30 199l77 78q78 78 92 67q6 -3 8 -20v-16l12 -218q10 -359 8 -531q0 -217 -52 -323q66 79 132 146.5t142 130.5t152.5 99t141.5 36q79 0 138 -21.5t91 -55.5
t50 -79.5t21 -89.5t-1 -89.5t-11.5 -76t-15.5 -52.5q-53 -128 -107 -198l188 -3h64v-192q-169 0 -249 4q-200 6 -264 26q-108 -30 -251 -30h-520q-40 0 -68 28t-28 68zM172 192h147.5t182.5 -1q122 0 219 20t150 45.5t92 62t50.5 57t21.5 43.5q7 18 7.5 45.5t-11 61
t-35.5 61.5t-73.5 45.5t-117.5 14.5q-63 -3 -128 -25.5t-115.5 -50t-107.5 -75t-91.5 -80t-81 -87.5t-61.5 -74.5t-48 -62.5z" />
    <glyph glyph-name="uniFEC6" unicode="&#x638;" horiz-adv-x="1509" arabic-form="final" 
d="M1524 192v-192q-199 0 -260 1q-186 0 -285 14q-117 -31 -254 -31q-265 0 -415 24q-46 7 -74 14l-21 6q-87 24 -129.5 66.5t-69.5 111.5q-6 17 -1 26t18 6q110 -25 326 -41q14 16 41 53t29 41q23 33 33 98t10 120v42q-9 407 -40 658q-9 99 -26 199q15 19 77 78
q78 78 93 67l6 -21q1 -3 1 -15l12 -219q0 -5 4 -151t3.5 -178t-0.5 -200q0 -222 -52 -325q349 412 568 412q80 0 139 -21.5t90.5 -55.5t49 -79t20.5 -89t-2 -89.5t-12.5 -76.5t-16.5 -53q-39 -107 -114 -199q25 -1 108 -1h144zM738 182q94 -1 175 9.5t136 27t101 41t72.5 45
t47.5 46.5t28.5 39t14.5 28q6 15 6.5 37t-4 49t-21 53t-41.5 47.5t-69.5 33.5t-100.5 9q-63 -3 -127.5 -25t-115.5 -50.5t-107.5 -75t-92 -80t-81 -86.5t-62 -75t-47.5 -62q31 -4 74 -6q60 -5 214 -5zM1240 1181l-146 -146l-147 147l146 146z" />
    <glyph glyph-name="uniFEC7" unicode="&#x638;" horiz-adv-x="1191" arabic-form="initial" 
d="M-115 96q0 40 28 68t68 28h102q6 10 24 34.5t33 44.5t16 21q42 66 42 219v41q-6 371 -37 658q-10 88 -29 199q22 25 77 78q81 75 93 67q6 -6 7 -20q1 -7 1 -16q1 -10 11 -218q11 -308 7 -531q0 -221 -52 -323q349 412 570 412q80 0 138.5 -21.5t90.5 -55.5t49.5 -79.5
t20.5 -89.5t-2 -89.5t-12.5 -76t-15.5 -52.5q-18 -46 -32.5 -78.5t-41.5 -76.5t-57.5 -74.5t-77.5 -64t-103 -53.5t-134 -33t-170 -13h-504q-3 -1 -14 -1q-40 0 -68 28t-28 68zM1040 420q5 14 6 36t-3.5 49t-21 53.5t-41.5 47.5t-69 33t-100 9q-63 -3 -127.5 -25t-116 -50.5
t-108 -75t-92.5 -80.5t-81 -87t-62.5 -75t-47.5 -62q36 -1 147.5 -1h183.5q89 0 164.5 10.5t126.5 26t93.5 39t66 43t43 44.5t26 37.5t13.5 27.5zM954 1184l-146 -146l-147 147l146 146z" />
    <glyph glyph-name="uniFEC8" unicode="&#x638;" horiz-adv-x="1241" arabic-form="medial" 
d="M-123 96q0 40 28 68t68 28h105q9 15 39 55.5t33 43.5q22 35 33 100.5t11 118.5v41q-6 371 -37 658q-13 119 -30 199l77 78q78 78 92 67q6 -3 8 -20v-16l12 -218q10 -359 8 -531q0 -217 -52 -323q66 79 132 146.5t142 130.5t152.5 99t141.5 36q79 0 138 -21.5t91 -55.5
t50 -79.5t21 -89.5t-1 -89.5t-11.5 -76t-15.5 -52.5q-53 -128 -107 -198l188 -3h64v-192q-169 0 -249 4q-200 6 -264 26q-108 -30 -251 -30h-520q-40 0 -68 28t-28 68zM172 192h147.5t182.5 -1q122 0 219 20t150 45.5t92 62t50.5 57t21.5 43.5q7 18 7.5 45.5t-11 61
t-35.5 61.5t-73.5 45.5t-117.5 14.5q-63 -3 -128 -25.5t-115.5 -50t-107.5 -75t-91.5 -80t-81 -87.5t-61.5 -74.5t-48 -62.5zM986 1181l-146 -146l-147 147l146 146z" />
    <glyph glyph-name="uniFECA" unicode="&#x639;" horiz-adv-x="1169" arabic-form="final" 
d="M1065 0q-40 0 -79.5 8t-77.5 25t-68 33t-67.5 44t-59 45t-58.5 48t-50 42q-43 -12 -101 -37.5t-124 -67.5t-120.5 -90.5t-91 -110.5t-36.5 -123q0 -147 175 -244t446 -97q106 0 187 11t158 32t82 22q27 7 32.5 1t-9.5 -27q-54 -84 -189.5 -151.5t-308.5 -67.5
q-143 0 -261 31t-206.5 92.5t-137.5 160.5t-49 229q0 176 106 319t307 228q-15 12 -75.5 65t-79.5 67q-63 47 -79.5 80t-3.5 69q13 46 26 86l9 30q5 12 18 27q12 14 68 44q124 66 318 82q147 10 252 -17t139 -98q17 -31 -1.5 -133.5t-70.5 -198.5q-28 -45 -71 -79t-136 -70
q30 -26 51 -40.5t61.5 -35.5t95 -31t123.5 -10h73v-192h-116zM378 649q37 -37 153 -134q65 -54 112 -95q54 17 101.5 35.5t90 40t72 45t46 47t13.5 49t-27 50.5q-31 29 -124.5 36t-215 -12.5t-221.5 -61.5z" />
    <glyph glyph-name="uniFECB" unicode="&#x639;" horiz-adv-x="958" arabic-form="initial" 
d="M-105 96q0 40 28 68t68 28h4q84 0 217 6q-132 94 -132 237q0 72 61.5 173.5t157 178.5t178.5 77q96 0 175.5 -45t143.5 -157q7 -15 4.5 -25t-18 -12.5t-47.5 11.5q-84 42 -232 42q-69 0 -136.5 -34t-107.5 -80t-40 -84q0 -27 33.5 -71.5t94.5 -88.5t148 -61.5t193 9.5
q131 36 208 76q8 3 10 -2q2 -2 2 -5l-67 -192q-81 -42 -202 -76h-2q-249 -69 -600 -69h-46q-40 0 -68 28t-28 68z" />
    <glyph glyph-name="uniFECC" unicode="&#x639;" horiz-adv-x="977" arabic-form="medial" 
d="M-104 96q0 40 28 68t68 28h119q111 0 169 8.5t126 34.5q-22 19 -112 95q-22 19 -56 48t-54 46t-28 25q-64 51 -78.5 81t-3.5 69l19 63q4 13 9 29.5t8 25.5l2 9q32 33 90 63q128 63 306 63q151 0 262 -35.5t147 -107.5q32 -69 -42.5 -202.5t-207.5 -269.5q49 -40 137 -45
h182v-192h-193q-74 0 -165 66q-40 26 -83 66q-92 -68 -185 -100t-245 -32h-123q-40 0 -68 28t-28 68zM228 611q52 -52 187 -165q131 -114 151 -131q76 54 158.5 153.5t58.5 134.5q-32 39 -119 61t-209 11t-227 -64z" />
    <glyph glyph-name="uniFECE" unicode="&#x63a;" horiz-adv-x="1164" arabic-form="final" 
d="M1065 0q-40 0 -79.5 8t-77.5 25t-68 33t-67.5 44t-59 45t-58.5 48t-50 42q-43 -12 -101 -37.5t-124 -67.5t-120.5 -90.5t-91 -110.5t-36.5 -123q0 -147 175 -244t446 -97q106 0 187 11t158 32t82 22q27 7 32.5 1t-9.5 -27q-54 -84 -189.5 -151.5t-308.5 -67.5
q-143 0 -261 31t-206.5 92.5t-137.5 160.5t-49 229q0 176 106 319t307 228q-15 12 -75.5 65t-79.5 67q-63 47 -79.5 80t-3.5 69q13 46 26 86l9 30q5 12 18 27q12 14 68 44q124 66 318 82q147 10 252 -17t139 -98q17 -31 -1.5 -133.5t-70.5 -198.5q-28 -45 -71 -79t-136 -70
q30 -26 51 -40.5t61.5 -35.5t95 -31t123.5 -10h73v-192h-116zM378 649q37 -37 153 -134q65 -54 112 -95q54 17 101.5 35.5t90 40t72 45t46 47t13.5 49t-27 50.5q-31 29 -124.5 36t-215 -12.5t-221.5 -61.5zM792 1223l-146 -146l-147 147l146 146z" />
    <glyph glyph-name="uniFECF" unicode="&#x63a;" horiz-adv-x="985" arabic-form="initial" 
d="M-105 96q0 40 28 68t68 28h4q84 0 217 6q-132 94 -132 237q0 72 61.5 173.5t157 178.5t178.5 77q96 0 175.5 -45t143.5 -157q7 -15 4.5 -25t-18 -12.5t-47.5 11.5q-84 42 -232 42q-69 0 -136.5 -34t-107.5 -80t-40 -84q0 -27 33.5 -71.5t94.5 -88.5t148 -61.5t193 9.5
q131 36 208 76q8 3 10 -2q2 -2 2 -5l-67 -192q-81 -42 -202 -76h-2q-249 -69 -600 -69h-46q-40 0 -68 28t-28 68zM618 1219l-146 -146l-147 147l146 146z" />
    <glyph glyph-name="uniFED0" unicode="&#x63a;" horiz-adv-x="979" arabic-form="medial" 
d="M-104 96q0 40 28 68t68 28h119q111 0 169 8.5t126 34.5q-22 19 -112 95q-22 19 -56 48t-54 46t-28 25q-64 51 -78.5 81t-3.5 69l19 63q4 13 9 29.5t8 25.5l2 9q32 33 90 63q128 63 306 63q151 0 262 -35.5t147 -107.5q32 -69 -42.5 -202.5t-207.5 -269.5q49 -40 137 -45
h182v-192h-193q-74 0 -165 66q-40 26 -83 66q-92 -68 -185 -100t-245 -32h-123q-40 0 -68 28t-28 68zM228 611q52 -52 187 -165q131 -114 151 -131q76 54 158.5 153.5t58.5 134.5q-32 39 -119 61t-209 11t-227 -64zM653 1227l-146 -146l-147 147l146 146z" />
    <glyph glyph-name="uniFED2" unicode="&#x641;" horiz-adv-x="1859" arabic-form="final" 
d="M1873 192v-192h-142q-79 0 -187 31q-23 6 -92 33q-209 -82 -614 -82q-67 0 -115.5 1.5t-126 9.5t-133 21.5t-122.5 41.5t-109 66t-77 97.5t-43 133.5t9.5 177t65.5 225q14 32 37 22t13 -40q-42 -112 -42 -202.5t28.5 -148t90 -99.5t121 -63t144 -33t138 -14.5t121.5 -2.5
q317 0 439 29q-4 4 -24.5 23.5t-30.5 32.5t-25 36.5t-22 54t-7 68.5q0 49 12.5 107.5t38 119t60.5 110.5t84 81.5t104 31.5q57 0 104 -28.5t77 -73t50.5 -102t29 -113t8.5 -108.5q0 -28 -3 -52.5t-10 -46t-12.5 -35.5t-18 -33t-18 -26.5t-21.5 -26.5t-19 -23q36 -8 106 -8
h133zM1465 266q44 21 83 51q83 67 83 135q0 73 -62 144t-137 71q-80 0 -134 -59t-54 -149q0 -78 110 -142q54 -31 111 -51zM1605 1240l-146 -146l-147 147l146 146z" />
    <glyph glyph-name="uniFED3" unicode="&#x641;" horiz-adv-x="829" arabic-form="initial" 
d="M-99 96q0 40 28 68t68 28h293q164 0 259 52t103 144l-15 -8q-81 -36 -230 -36q-68 0 -122 17.5t-85.5 44.5t-51.5 62.5t-27.5 67.5t-7.5 64q0 170 88 290.5t212 120.5q77 0 141 -48t103 -124.5t61.5 -162t27.5 -170.5q5 -106 -19 -192t-69.5 -144t-111 -96.5t-141 -56
t-162.5 -17.5h-246q-40 0 -68 28t-28 68zM637 570q-23 75 -56 130q-32 55 -81.5 93t-112.5 38q-90 0 -140 -54t-50 -117q0 -77 53.5 -105t161.5 -28q149 0 213 36zM519 1364l-146 -146l-147 147l146 146z" />
    <glyph glyph-name="uniFED4" unicode="&#x641;" horiz-adv-x="868" arabic-form="medial" 
d="M-99 96q0 40 28 68t68 28h144q8 0 27 -0.5t31 -0.5t28.5 1.5t30.5 4.5q-2 2 -24.5 24t-32 34.5t-26 38t-23.5 56.5t-7 68q0 49 12.5 107.5t38 119t60.5 110.5t84 81.5t104 31.5q70 0 124.5 -42.5t84.5 -109t45 -136.5t15 -137q0 -33 -5.5 -62.5t-10 -46.5t-20 -43
t-19 -31.5t-26.5 -32.5l-22 -27q35 -8 107 -8h166v-192h-175q-86 0 -185 30q-51 15 -90 31q-36 -19 -75 -31q-88 -30 -179 -30h-182q-40 0 -68 28t-28 68zM524 317q84 64 84 135q0 72 -63 143.5t-136 71.5q-79 0 -134 -59t-55 -149q0 -79 111 -142q42 -26 110 -51
q52 25 83 51zM583 1230l-146 -146l-147 147l146 146z" />
    <glyph glyph-name="uniFED6" unicode="&#x642;" horiz-adv-x="1364" arabic-form="final" 
d="M1374 192v-192h-61q0 -184 -79.5 -321t-236.5 -212t-375 -73q-72 0 -141.5 17t-133.5 53t-115.5 87t-85.5 123.5t-46 159t6 197t68 233.5q5 11 12.5 30.5t14 35t15 36t16 36t16 31.5t17 26t16.5 16.5t16.5 6t15.5 -8.5q7 -7 7.5 -16.5t-5.5 -26.5t-14 -36t-22 -56.5
t-26 -77.5q-18 -60 -29 -115t-14.5 -119.5t6 -119t37.5 -107.5t74 -92t121 -66t174 -34q159 -12 292.5 27t218 134.5t84.5 231.5h-325q-97 0 -160.5 77.5t-59.5 228.5q2 110 51 225.5t121.5 189t138.5 73.5q50 0 93.5 -23t74.5 -60t57 -90.5t42.5 -106t29.5 -115t19.5 -110
t11.5 -97.5h63zM754 368q-5 -101 59 -138q58 -33 233 -37q46 -1 153 -1h1h5q-25 119 -60 202q-87 202 -209 202q-67 0 -123.5 -70.5t-58.5 -157.5zM798 1051l-138 139l137 139l140 -140zM1145 1051l-140 139l139 139l138 -140z" />
    <glyph glyph-name="uniFED7" unicode="&#x642;" horiz-adv-x="835" arabic-form="initial" 
d="M-99 96q0 40 28 68t68 28h293q164 0 259 52t103 144l-15 -8q-81 -36 -230 -36q-68 0 -122 17.5t-85.5 44.5t-51.5 62.5t-27.5 67.5t-7.5 64q0 170 88 290.5t212 120.5q77 0 141 -48t103 -124.5t61.5 -162t27.5 -170.5q5 -106 -19 -192t-69.5 -144t-111 -96.5t-141 -56
t-162.5 -17.5h-246q-40 0 -68 28t-28 68zM637 570q-23 75 -56 130q-32 55 -81.5 93t-112.5 38q-90 0 -140 -54t-50 -117q0 -77 53.5 -105t161.5 -28q149 0 213 36zM208 1218l-138 139l137 139l140 -140zM555 1218l-140 139l139 139l138 -140z" />
    <glyph glyph-name="uniFED8" unicode="&#x642;" horiz-adv-x="868" arabic-form="medial" 
d="M-99 96q0 40 28 68t68 28h144q8 0 27 -0.5t31 -0.5t28.5 1.5t30.5 4.5q-2 2 -24.5 24t-32 34.5t-26 38t-23.5 56.5t-7 68q0 49 12.5 107.5t38 119t60.5 110.5t84 81.5t104 31.5q70 0 124.5 -42.5t84.5 -109t45 -136.5t15 -137q0 -33 -5.5 -62.5t-10 -46.5t-20 -43
t-19 -31.5t-26.5 -32.5l-22 -27q35 -8 107 -8h166v-192h-175q-86 0 -185 30q-51 15 -90 31q-36 -19 -75 -31q-88 -30 -179 -30h-182q-40 0 -68 28t-28 68zM524 317q84 64 84 135q0 72 -63 143.5t-136 71.5q-79 0 -134 -59t-55 -149q0 -79 111 -142q42 -26 110 -51
q52 25 83 51zM259 1090l-138 139l137 139l140 -140zM606 1090l-140 139l139 139l138 -140z" />
    <glyph glyph-name="uniFEDA" unicode="&#x643;" horiz-adv-x="1915" arabic-form="final" 
d="M1641 181q-38 -47 -92 -83t-124 -57.5t-135.5 -35t-156 -19.5t-154 -7.5t-158.5 -1.5q-67 0 -115.5 1.5t-126.5 9.5t-134 21.5t-123 41.5t-109 66t-77 97.5t-43 133.5t9.5 177t65.5 225q14 32 37.5 22t13.5 -40q-42 -112 -42 -202.5t28.5 -148t89.5 -99.5t121 -63
t144.5 -33t138 -14.5t122.5 -2.5q21 0 97 -0.5t112.5 0t98 2t110.5 5t93 9.5q21 4 26.5 5t33.5 7.5t41 11.5t40.5 15.5t43 21t37 26.5t33 34t21 41.5t10.5 50.5q5 197 -12 507q-13 179 -14 219l-10 149q13 18 37 44.5t29 32.5t19 22t21.5 23.5l18 18t17 13.5t10.5 1
q5 -5 6 -21q2 -6 2 -16l2 -462q0 -456 8 -584q4 -98 78 -134q34 -18 74 -19h34v-192h-44q-77 0 -161 54.5t-92 126.5zM724 542l85 50l25 16q-44 24 -73.5 67.5t-26.5 94.5q3 61 78.5 139.5t141.5 75.5q107 -5 162 -114q4 -8 2 -13.5t-10 -6.5t-25 7q-43 25 -120 28
q-55 2 -104 -31t-51 -66q-1 -13 15.5 -35t44 -43t69 -32.5t83.5 -4.5l51 8q33 5 76 15q3 1 5.5 0.5t0.5 -5.5l-17 -48q-9 -23 -15 -44q-276 -49 -424 -148z" />
    <glyph glyph-name="uniFEDB" unicode="&#x643;" horiz-adv-x="963" arabic-form="initial" 
d="M-114 96q0 40 28 68t68 28h318q50 1 99 25q100 46 114 171q8 63 -21.5 136t-79 134.5t-110.5 122.5t-114 103.5t-93 74t-43 36.5q-10 10 8 95l22 79l425 191q432 191 441 182t-12 -95l-23 -89l-635 -267q363 -420 337 -701q-17 -186 -108.5 -288t-214.5 -102h-310
q-40 0 -68 28t-28 68z" />
    <glyph glyph-name="uniFEDC" unicode="&#x643;" horiz-adv-x="1056" arabic-form="medial" 
d="M-113 96q0 40 28 68t68 28h235q89 1 164 25q165 47 179 170q9 75 -33.5 162t-111.5 161t-137.5 134.5t-123.5 103t-58 46.5q-10 14 9 95l24 79l423 191q417 187 441 182q9 -3 -13 -94q-1 -6 -9 -38.5t-13 -51.5l-633 -267q133 -164 216 -296q19 -32 55 -101.5t67 -129.5
t77.5 -131.5t91.5 -121.5t104 -84t119 -34h4v-192h-4q-195 0 -404 323q-30 -159 -144.5 -241t-297.5 -82h-227q-40 0 -68 28t-28 68z" />
    <glyph glyph-name="uniFEDE" unicode="&#x644;" horiz-adv-x="1364" arabic-form="final" 
d="M1376 192v-192h-13q-44 0 -95.5 31t-69.5 70q2 -313 -160.5 -492t-464.5 -179q-101 0 -190 28.5t-159 92t-106.5 153.5t-26.5 224t75 293q5 12 12.5 31t14 35.5t14.5 36t15.5 35.5t16 32t16.5 26t16.5 16.5t17 6t16.5 -8.5t8.5 -17t-5.5 -26t-15 -36t-23 -56t-26 -78
q-17 -60 -27 -110.5t-13.5 -109t5.5 -104.5t33.5 -91t66 -77t108.5 -54t156 -29q135 -10 239 18.5t168.5 89t95 146t24.5 191.5l-72 1212l75 71q83 71 95 71h1q1 0 1 -0.5t1 -0.5q2 -2 3.5 -7t2.5 -12t2 -10q0 -514 -9 -1027q0 -123 83 -169q38 -23 83 -24h10z" />
    <glyph glyph-name="uniFEDF" unicode="&#x644;" horiz-adv-x="540" arabic-form="initial" 
d="M-108 96q0 40 28 68t68 28h182q38 0 88 24q31 17 57 52q27 36 24 100q-21 849 -39 938q18 20 67 69q71 65 84 70q6 2 8 -1q7 -12 7 -31q4 -405 1.5 -656.5t-16.5 -447.5q-6 -76 -38.5 -137t-80 -97.5t-102 -55.5t-108.5 -19h-134q-40 0 -68 28t-28 68z" />
    <glyph glyph-name="uniFEE0" unicode="&#x644;" horiz-adv-x="590" arabic-form="medial" 
d="M-108 96q0 40 28 68t68 28h122q43 1 84 20q82 40 88 151q6 246 -10 542q-13 179 -14 219l-10 149q13 18 37 44.5t29 32.5t19 22t21.5 23.5l18 18t17 13.5t10.5 1q5 -5 6 -21q2 -6 2 -16l2 -462q0 -456 8 -584q4 -98 78 -134q34 -18 74 -19h34v-192h-44q-134 0 -212 119
q-42 -58 -102 -88.5t-126 -30.5h-132q-40 0 -68 28t-28 68z" />
    <glyph glyph-name="uniFEE2" unicode="&#x645;" horiz-adv-x="1234" arabic-form="final" 
d="M1242 192v-192h-12q-47 0 -89 16t-69.5 40.5t-41 40t-21.5 27.5q-32 -59 -76.5 -83.5t-93.5 -6.5l-427 144q-33 11 -55.5 16t-44 3.5t-32.5 -16t-11 -42.5q0 -5 0.5 -33.5t1 -72t0.5 -86.5v-155q0 -306 -7 -333q-13 -32 -57 -82l-45 -49l-19 389q-18 326 -18 429
q0 104 37.5 161t95.5 75q62 20 132 7q119 182 163 239q122 156 213 156q95 0 184.5 -123t105.5 -275q8 -60 29 -101.5t48 -60t50 -25.5t47 -7h12zM908 211q37 -13 56 45q23 73 -3 167q-32 121 -124 158q-35 14 -75 14q-63 0 -158 -127q-43 -58 -88 -126l151 -51
q112 -40 241 -80z" />
    <glyph glyph-name="uniFEE3" unicode="&#x645;" horiz-adv-x="970" arabic-form="initial" 
d="M-104 96q0 40 28 68t68 28h26q59 0 114 31t98.5 80.5t84 109.5t78 120.5t74 110t78.5 80.5t84 31q67 0 135 -59t112.5 -158.5t44.5 -205.5q0 -76 -27.5 -153.5t-79.5 -131.5t-113 -54q-91 0 -269 91q-83 43 -157 92q-39 -50 -76 -85.5t-63 -52.5t-55 -26t-43.5 -10.5
t-36.5 -1.5h-9q-40 0 -68 28t-28 68zM788 204q42 30 50.5 95.5t-12 130.5t-75 114.5t-126.5 49.5q-63 0 -159 -128q-25 -31 -87 -126q90 -59 166 -96q181 -86 243 -40z" />
    <glyph glyph-name="uniFEE4" unicode="&#x645;" horiz-adv-x="1060" arabic-form="medial" 
d="M-111 96q0 40 28 68t68 28h31q59 0 114 30t98.5 77.5t84 105t78 115t74 105t78 77.5t83.5 30q61 0 114.5 -47.5t88.5 -115t61 -154.5l11 -38.5t15 -49.5t20 -47t29 -45.5t39.5 -29.5t53.5 -13h12v-192h-12q-95 0 -159 87q-30 42 -46 87q-15 -68 -74.5 -124t-112.5 -56
q-91 0 -253 91q-72 41 -140 92q-48 -62 -90.5 -101t-78.5 -54t-56.5 -18.5t-48.5 -3.5h-14q-40 0 -68 28t-28 68zM753 204q40 29 44.5 92t-19 124.5t-67 108.5t-88.5 47q-58 0 -160 -118q-56 -73 -86 -117q84 -63 150 -96q164 -87 226 -41z" />
    <glyph glyph-name="uniFEE6" unicode="&#x646;" horiz-adv-x="1547" arabic-form="final" 
d="M1554 192v-192h-11q-81 0 -149 35t-114 83v-114q0 -282 -181 -445.5t-509 -161.5q-71 0 -141 17t-133.5 53t-116 87t-86.5 123.5t-46.5 159t5.5 197.5t68 233q6 14 20 47q55 137 84 162q19 17 35 0q8 -7 8.5 -16t-5.5 -26t-14 -36.5t-22 -57t-26 -77.5
q-176 -612 370 -653q170 -13 306 39.5t214.5 166t78.5 269.5q-2 39 -9.5 77.5t-20.5 72t-25 60t-29 54t-27 42t-25.5 35.5t-17.5 24q36 71 73 130.5t49 59.5q4 0 16.5 -24.5t31.5 -64t44 -87.5t57.5 -96t68 -87.5t80 -64t88.5 -24.5h11zM839 584l-146 -146l-147 147l146 146
z" />
    <glyph glyph-name="uniFEE7" unicode="&#x646;" horiz-adv-x="513" arabic-form="initial" 
d="M-103 96q0 40 28 68t68 28h88q65 2 108 11q107 21 117 76q9 69 -64 245q-55 115 -76 152l53 96q53 96 69 96q7 0 24 -36t37.5 -94.5t38 -131.5t25 -147t-1.5 -141q-18 -118 -111.5 -218t-185.5 -100h-121q-40 0 -68 28t-28 68zM425 1185l-146 -146l-147 147l146 146z" />
    <glyph glyph-name="uniFEE8" unicode="&#x646;" horiz-adv-x="627" arabic-form="medial" 
d="M-105 96q0 40 28 68t68 28h44q52 0 115 23q131 47 134 164q3 46 -17 127q-11 38 -19 60l49 67q48 69 59 58l2 -8q2 -8 5 -23t6.5 -35t7 -48t7 -58t5.5 -68.5t3 -77.5q0 -9 1.5 -23t14 -44t34 -53.5t67 -42t107.5 -18.5h19v-192h-7q-82 0 -164.5 49.5t-134.5 122.5v-3
q-46 -71 -127 -120t-178 -49h-33q-40 0 -68 28t-28 68zM483 984l-146 -146l-147 147l146 146z" />
    <glyph glyph-name="uniFEEA" unicode="&#x647;" horiz-adv-x="931" arabic-form="final" 
d="M942 192v-192h-39q-62 0 -115.5 23.5t-90.5 64t-62.5 88t-39.5 100.5l-132 -127q-25 -7 -56 -12q-72 -8 -148 13q-112 28 -147.5 135t26.5 235q48 92 378 319q-4 22 -6 59l-3 21q63 67 69 74q70 70 86 61l11 -150q4 -38 14 -165t18 -212q12 -133 37.5 -205.5t68 -101
t115.5 -28.5h16zM172 442q13 -45 61.5 -73t113.5 -36.5t124.5 -8.5t112.5 7q-35 240 -50 367q-144 -60 -258.5 -136.5t-103.5 -119.5z" />
    <glyph glyph-name="uniFEEB" unicode="&#x647;" horiz-adv-x="1127" arabic-form="initial" 
d="M-108 96q0 40 28 68t68 28h187h84q-51 36 -72 101.5t-18 125t19 119.5q19 66 81 152q32 42 59 73l-84 28q33 45 60 78q59 78 79 73q8 -2 37.5 -11.5t84.5 -31.5t116.5 -50.5t130 -69.5t128.5 -88t107.5 -107.5t72.5 -124.5t18 -143t-51 -160q-38 -68 -101 -105.5
t-123.5 -45t-128 0t-105.5 18.5t-66 22q-40 -22 -107.5 -33t-107.5 -12t-123 -1h-177q-40 0 -68 28t-28 68zM634 360q16 49 -1 123.5t-55.5 132.5t-77.5 64q-91 14 -159.5 -36t-84.5 -137q-10 -56 11.5 -101.5t67.5 -76.5t91 -50t102 -34q17 4 39 19q42 27 67 96zM975 226
q14 31 14.5 64t-10.5 62t-28.5 56.5t-43 52.5t-49.5 45.5t-51 39t-46.5 30t-36.5 20.5q27 -90 -14 -243q-10 -36 -41 -100l-27 -53q76 -20 141 -27q52 -12 113 -0.5t79 53.5z" />
    <glyph glyph-name="uniFEEC" unicode="&#x647;" horiz-adv-x="787" arabic-form="medial" 
d="M-102 96q0 40 28 68t68 28h13q29 0 131 5q10 158 56.5 303.5t107.5 230.5t116 85q47 0 95 -62.5t73.5 -159.5t10.5 -185q-47 -310 -360 -384q41 -260 201 -367q-15 47 -16 94q-8 111 52 218q77 142 200 195q54 24 109 27h9v-192h-9q-66 -1 -122 -24q-130 -50 -156 -167
q-27 -114 56 -187q34 -34 87 -55l-93 -174q-99 49 -175 118.5t-124 150.5t-75.5 166.5t-38.5 180.5l-43 -5q-36 -4 -101 -4h-4q-40 0 -68 28t-28 68zM379 643q-37 0 -72.5 -61t-58.5 -163t-24 -214q246 31 286 139q16 35 10 86.5t-22.5 98.5t-49 80.5t-69.5 33.5z" />
    <glyph glyph-name="uniFEEE" unicode="&#x648;" horiz-adv-x="816" arabic-form="final" 
d="M633 192q-17 119 -50 204q-76 201 -200 201q-67 0 -123.5 -71.5t-58.5 -157.5q-1 -26 0.5 -46.5t9 -37.5t15.5 -29.5t25.5 -22.5t32.5 -16.5t44 -11t52 -7t64.5 -3.5t74 -1.5t86.5 -0.5h28zM427 795q50 0 93.5 -23t74.5 -60t57 -90.5t42.5 -106t29.5 -115t20 -110.5
t12 -98h71v-192h-67q-5 -110 -32 -202t-65.5 -153t-88 -108.5t-96 -73.5t-93.5 -42.5t-77 -22t-50 -5.5q-42 0 -116.5 53t-95.5 84q-8 8 -2.5 17t23.5 10q13 0 97 5q200 12 342 144.5t151 293.5h-321q-95 0 -159 78t-60 229q2 110 51 225.5t121 189t138 73.5z" />
    <glyph glyph-name="uniFEF0" unicode="&#x649;" horiz-adv-x="1526" arabic-form="final" 
d="M1532 0q-117 0 -184 5q21 -16 48 -45q48 -54 48 -113q0 -79 -47 -156.5t-128 -140t-200.5 -104.5t-255.5 -51q-100 -5 -186.5 2.5t-169.5 33.5t-144.5 71t-106 118.5t-60 171.5t1 235t69.5 303q15 47 29.5 88t37.5 95t45 78t38 8q6 -13 5.5 -23.5t-9.5 -38.5t-18.5 -54
t-23.5 -70t-24 -85q-13 -51 -22 -99.5t-14 -109t-2.5 -114t15.5 -110t38 -102t68.5 -85t102 -64t143 -34.5t187.5 -1q223 17 379 78.5t156 121.5q0 47 -149.5 127t-323.5 134q-4 0 5 20.5t20 42t11 22.5q1 2 7.5 11.5t13 19.5t13.5 20.5t13 17t8 6.5q194 -26 299.5 -32
t266.5 -6v-192z" />
    <glyph glyph-name="uniFEF2" unicode="&#x64a;" horiz-adv-x="1525" arabic-form="final" 
d="M1532 0q-117 0 -184 5q21 -16 48 -45q48 -54 48 -113q0 -79 -47 -156.5t-128 -140t-200.5 -104.5t-255.5 -51q-100 -5 -186.5 2.5t-169.5 33.5t-144.5 71t-106 118.5t-60 171.5t1 235t69.5 303q15 47 29.5 88t37.5 95t45 78t38 8q6 -13 5.5 -23.5t-9.5 -38.5t-18.5 -54
t-23.5 -70t-24 -85q-13 -51 -22 -99.5t-14 -109t-2.5 -114t15.5 -110t38 -102t68.5 -85t102 -64t143 -34.5t187.5 -1q223 17 379 78.5t156 121.5q0 47 -149.5 127t-323.5 134q-4 0 5 20.5t20 42t11 22.5q1 2 7.5 11.5t13 19.5t13.5 20.5t13 17t8 6.5q194 -26 299.5 -32
t266.5 -6v-192zM565 -1093l-138 139l137 139l140 -140zM912 -1093l-140 139l139 139l138 -140z" />
    <glyph glyph-name="uniFEF3" unicode="&#x64a;" horiz-adv-x="673" arabic-form="initial" 
d="M-101 96q0 40 28 68t68 28h108q348 0 396 87q9 69 -64 245q-55 115 -76 152l53 96q53 96 69 96q7 0 24 -36t37.5 -94.5t38 -131.5t25 -147t-1.5 -141q-9 -60 -45.5 -116t-94.5 -101.5t-143.5 -73t-184.5 -27.5h-141q-40 0 -68 28t-28 68zM120 -487l-138 139l137 139
l140 -140zM467 -487l-140 139l139 139l138 -140z" />
    <glyph glyph-name="uniFEF4" unicode="&#x64a;" horiz-adv-x="782" arabic-form="medial" 
d="M-103 96q0 40 28 68t68 28h38q68 0 150 23q165 48 168 164q3 46 -17 127q-11 38 -19 60l49 67q48 69 59 58l2 -8q2 -8 5 -23t6.5 -35t7 -48t7 -58t5.5 -68.5t3 -77.5q0 -7 4 -22.5t21 -44.5t45.5 -53t85.5 -42.5t132 -18.5h51v-192h-7q-129 0 -236 49t-159 123v-3
q-46 -70 -145 -119.5t-229 -49.5h-27q-40 0 -68 28t-28 68zM227 -506l-138 139l137 139l140 -140zM574 -506l-140 139l139 139l138 -140z" />
    <glyph glyph-name=".notdef" horiz-adv-x="1229" 
d="M102 -362v1806h1024v-1806h-1024zM217 -248h795v1577h-795v-1577z" />
    <glyph glyph-name=".null" 
 />
    <glyph glyph-name="nonmarkingreturn" horiz-adv-x="682" 
 />
    <glyph glyph-name="space" unicode=" " horiz-adv-x="657" 
 />
    <glyph glyph-name="exclam" unicode="!" horiz-adv-x="596" 
d="M396 1221q0 -80 -31 -285q-33 -212 -41 -326q-11 -185 -15 -307h-46q-5 105 -15 269l-3 37q-5 86 -44 333q-31 202 -31 283q0 276 113 276t113 -280zM398 104q0 -45 -32.5 -76.5t-77.5 -31.5q-44 0 -76 32t-32 76q0 46 31.5 78t76.5 32t77 -32q33 -32 33 -78z" />
    <glyph glyph-name="quotedbl" unicode="&#x22;" horiz-adv-x="685" 
d="M144 947l-50 279v240h205v-240l-45 -279h-110zM475 947l-49 279v240h205v-240l-48 -279h-108z" />
    <glyph glyph-name="numbersign" unicode="#" horiz-adv-x="1169" 
d="M103 -25l87 426h-169v149h199l74 363h-273v149h303l87 429h150l-87 -429h315l87 429h151l-87 -429h173v-149h-203l-75 -363h278v-149h-308l-87 -426h-150l86 426h-314l-87 -426h-150zM370 550h314l75 363h-315z" />
    <glyph glyph-name="dollar" unicode="$" horiz-adv-x="1108" 
d="M510 -211v180q-135 17 -220 60q-84 43 -146 141q-61 97 -71 237l181 34q21 -145 74 -213q76 -96 182 -107v573q-109 21 -227 86q-87 48 -133 132.5t-46 193.5q0 193 136 311q92 80 270 98v86h106v-86q157 -15 249 -92q118 -97 142 -269l-186 -28q-16 105 -66 162t-139 75
v-519q140 -35 180 -53q247 -108 247 -374q0 -187 -119 -312t-308 -134v-182h-106zM510 1365q-105 -17 -166 -84q-60 -67 -60 -161q0 -95 53 -156t173 -97v498zM616 121q104 13 173 91t69 193q0 99 -49 157q-49 60 -193 107v-548z" />
    <glyph glyph-name="percent" unicode="%" horiz-adv-x="1681" 
d="M50 1114q0 158 79 267q80 110 229 110q138 0 228 -99q91 -97 91 -289q0 -186 -92 -287q-91 -100 -225 -100t-222 99q-88 97 -88 299zM363 1367q-67 0 -112 -58q-44 -59 -44 -213q0 -140 45 -199q45 -57 111 -57q69 0 112 58q45 58 45 212q0 142 -45 199q-45 58 -112 58z
M364 -54l802 1545h146l-799 -1545h-149zM998 344q0 158 79 267q80 110 230 110q138 0 228 -99q91 -97 91 -289q0 -186 -92 -287q-91 -100 -226 -100q-134 0 -222 99q-88 100 -88 299zM1312 597q-68 0 -113 -58q-44 -59 -44 -213q0 -140 45 -198t111 -58q70 0 113 58
q45 59 45 212q0 142 -45 199q-45 58 -112 58z" />
    <glyph glyph-name="ampersand" unicode="&#x26;" horiz-adv-x="1375" 
d="M973 173q-179 -198 -421 -198q-225 0 -357 152q-107 125 -107 277q0 272 349 438q-97 112 -132 185q-33 71 -33 137q0 132 103 229q104 98 261 98q150 0 245 -92q96 -91 96 -221q0 -209 -277 -357l263 -335q45 91 70 204l187 -40q-48 -192 -130 -316q103 -134 229 -225
l-121 -143q-110 70 -225 207zM607 937q117 69 151 121q35 53 35 115q0 75 -48 122q-47 48 -118 48q-72 0 -122 -47q-48 -46 -48 -115t70 -151zM530 724q-146 -89 -197 -162q-51 -74 -51 -147q0 -87 71 -185q71 -96 201 -96q81 0 167 50q87 50 139 131z" />
    <glyph glyph-name="quotesingle" unicode="'" horiz-adv-x="379" 
d="M136 947l-46 274v245h205v-245l-48 -274h-111z" />
    <glyph glyph-name="parenleft" unicode="(" horiz-adv-x="902" 
d="M723 -423q0 -21 -15 -29q-14 -6 -30 4q-225 154 -355 364q-142 229 -142 484q0 220 120 439q92 166 231 305q116 114 151 114q42 0 42 -31q0 -11 -8 -22q-178 -241 -217 -315q-134 -245 -134 -495q0 -310 265 -683q79 -113 92 -135z" />
    <glyph glyph-name="parenright" unicode=")" horiz-adv-x="885" 
d="M167 -423q13 22 92 135q265 373 265 683q0 250 -134 495q-39 74 -217 315q-8 11 -8 22q0 31 42 31q35 0 151 -114q139 -139 231 -305q120 -219 120 -439q0 -255 -142 -484q-130 -210 -355 -364q-16 -10 -30 -4q-15 8 -15 29z" />
    <glyph glyph-name="asterisk" unicode="*" horiz-adv-x="1707" 
d="M817 447q-43 0 -74 30.5t-31 73.5q0 44 30.5 74.5t74.5 30.5t75.5 -31t31.5 -74q0 -42 -32 -73t-75 -31zM814 721q-7 4 -13 15q-89 158 -89 291q0 101 108 101q40 0 72 -29t32 -67q0 -138 -97 -296q-6 -15 -13 -15zM553 966q99 -104 142 -277q3 -15 0 -18q-5 -5 -18 0
q-179 48 -271 143q-30 32 -30 71q0 44 31.5 74.5t76.5 30.5q46 0 69 -24zM680 429q15 3 19 0q1 -6 0 -18q-51 -178 -145 -270q-32 -29 -71 -29q-45 0 -74.5 30.5t-29.5 75.5q0 67 112 131q93 54 189 80zM240 554q0 40 29 72t67 32q138 0 296 -97q12 -8 15 -13q-4 -7 -15 -13
q-154 -88 -291 -88q-101 0 -101 107zM1293 656q101 0 101 -108q0 -38 -29 -70t-67 -32q-143 0 -298 95q-11 8 -11 13q0 7 11 13q161 89 293 89zM743 4q-33 27 -33 67q0 135 97 297q7 13 13 13l13 -13q89 -161 89 -292q0 -102 -108 -102q-38 0 -71 30zM939 433q6 3 18 0
q182 -51 269 -143q32 -35 32 -73q0 -42 -33 -73.5t-75 -31.5q-43 0 -69 26q-95 99 -142 275q-3 14 0 20zM1256 884q0 -43 -26 -69q-105 -99 -275 -141q-3 -1 -13 -1q-4 0 -5 1q-5 3 0 17q50 183 141 271q33 30 72 30q43 0 74.5 -32t31.5 -76z" />
    <glyph glyph-name="plus" unicode="+" horiz-adv-x="1187" 
d="M496 -105v402h-399v168h399v399h170v-399h399v-168h-399v-402h-170z" />
    <glyph glyph-name="comma" unicode="," horiz-adv-x="518" 
d="M88 130q0 44 37 84q48 54 122 54q85 0 134 -64q44 -55 44 -147q0 -218 -182 -316q-23 -12 -60 -14q-36 -3 -36 14q9 11 39 38q109 94 109 230q-40 -13 -79 -13q-128 0 -128 134z" />
    <glyph glyph-name="hyphen" unicode="-" horiz-adv-x="1195" 
d="M195 440v181h814v-181h-814z" />
    <glyph glyph-name="period" unicode="." horiz-adv-x="551" 
d="M397 114q0 -46 -35 -81q-34 -34 -81 -34q-48 0 -82 34t-34 81t34 81q35 35 82 35q46 0 81 -35t35 -81z" />
    <glyph glyph-name="slash" unicode="/" horiz-adv-x="818" 
d="M637 1465l-346 -1576h-121l347 1576h120z" />
    <glyph glyph-name="zero" unicode="0" horiz-adv-x="1158" 
d="M85 723q0 257 53 418q112 331 425 331q236 0 354 -185q56 -85 91 -218q33 -127 33 -346q0 -255 -53 -417q-112 -331 -425 -331q-211 0 -333 152q-145 181 -145 596zM270 723q0 -361 84 -481q86 -119 209 -119q124 0 208 120q85 118 85 480q0 363 -85 481
q-84 119 -210 119q-125 0 -198 -105q-93 -134 -93 -495z" />
    <glyph glyph-name="one" unicode="1" horiz-adv-x="974" 
d="M687 0h-180v1147q-69 -66 -171 -124q-105 -61 -189 -93v174q150 70 264 172q113 101 160 196h116v-1472z" />
    <glyph glyph-name="two" unicode="2" horiz-adv-x="1141" 
d="M1031 173v-173h-969q-2 65 21 125q37 98 118 195q94 107 236 222q241 199 323 310q84 116 84 217q0 106 -77 180t-199 74q-130 0 -208 -78t-79 -216l-185 19q18 206 141.5 315t334.5 109t334 -117t123 -290q0 -87 -36 -173q-35 -85 -120 -179q-80 -92 -277 -258
q-171 -146 -208 -185q-44 -44 -76 -97h719z" />
    <glyph glyph-name="three" unicode="3" horiz-adv-x="1113" 
d="M266 411q56 -288 287 -288q127 0 214 88q88 88 88 218q0 125 -81 204q-81 81 -206 81q-47 0 -127 -20l20 158q24 -2 29 -2q116 0 207 60q92 60 92 185q0 100 -67 164q-68 65 -173 65q-107 0 -176 -67t-89 -197l-180 32q33 181 150 280q115 100 291 100q121 0 221 -52
q102 -53 154 -140q54 -88 54 -189q0 -97 -51.5 -174.5t-150.5 -122.5q131 -30 202.5 -124t71.5 -237q0 -192 -140 -326q-139 -133 -354 -133q-194 0 -321 115t-145 298z" />
    <glyph glyph-name="four" unicode="4" horiz-adv-x="1119" 
d="M662 0v351h-636v165l669 950h147v-950h198v-165h-198v-351h-180zM662 516v661l-459 -661h459z" />
    <glyph glyph-name="five" unicode="5" horiz-adv-x="1158" 
d="M274 400q20 -134 96 -205.5t186 -71.5q130 0 220 98q90 97 90 260q0 155 -87 243q-86 89 -226 89q-86 0 -156 -38.5t-111 -103.5l-169 22l142 753h729v-172h-585l-79 -394q134 92 277 92q192 0 324 -133t132 -342q0 -198 -116 -344q-141 -178 -385 -178q-200 0 -327 112
q-126 113 -144 297z" />
    <glyph glyph-name="six" unicode="6" horiz-adv-x="1119" 
d="M840 1093q-24 104 -68 154q-74 77 -180 77q-86 0 -151 -48q-84 -61 -134 -181q-49 -119 -51 -339q64 97 157 146t199 49q180 0 306 -133q127 -130 127 -342q0 -138 -60 -257q-60 -118 -163 -181t-236 -63q-224 0 -367 165q-142 166 -142 546q0 425 157 618
q136 168 369 168q174 0 283 -97q111 -97 133 -268zM284 475q0 -93 39 -178q39 -82 109.5 -128t150.5 -46q113 0 196 92q82 91 82 250q0 152 -81 239q-81 88 -204 88q-122 0 -207 -88q-85 -85 -85 -229z" />
    <glyph glyph-name="seven" unicode="7" horiz-adv-x="1169" 
d="M97 1274v173h949v-140q-142 -151 -278 -396q-136 -246 -212 -508q-54 -184 -69 -403h-185q3 170 68 418q64 245 186 472q120 227 259 384h-718z" />
    <glyph glyph-name="eight" unicode="8" horiz-adv-x="1136" 
d="M362 795q-220 83 -220 299q0 160 115 269t306 109q194 0 309 -112q117 -111 117 -271q0 -211 -216 -294q135 -45 205.5 -141.5t70.5 -234.5q0 -189 -133 -316q-134 -128 -350 -128t-350 128q-133 129 -133 321q0 144 72 240t207 131zM326 1100q0 -104 67 -170t174 -66
q102 0 170 65q67 66 67 161q0 98 -69 166q-68 68 -170 68q-103 0 -171 -66t-68 -158zM268 423q0 -77 36 -149q37 -72 109 -112q72 -39 155 -39q127 0 213 83q84 83 84 211q0 130 -87 215q-85 85 -216 85q-127 0 -211 -84q-83 -86 -83 -210z" />
    <glyph glyph-name="nine" unicode="9" horiz-adv-x="1113" 
d="M285 355q41 -232 243 -232q160 0 248 139q40 64 67 172t27 220q0 20 -1 36q-56 -88 -148 -140q-95 -53 -202 -53q-182 0 -308 132t-126 348q0 222 131 359q132 136 330 136q142 0 261 -77t180 -220q62 -145 62 -412q0 -284 -61 -448q-60 -166 -180 -253t-284 -87
q-171 0 -281 95q-108 95 -131 269zM849 986q0 154 -83 246q-82 91 -198 91q-120 0 -209 -98t-89 -254q0 -139 84 -228q86 -87 209 -87q125 0 205 87q81 89 81 243z" />
    <glyph glyph-name="colon" unicode=":" horiz-adv-x="518" 
d="M376 762q0 -56 -39 -95t-95 -39q-55 0 -95 39t-40 95t40 95.5t95 39.5q56 0 95 -39.5t39 -95.5zM384 134q0 -56 -39 -95t-95 -39q-55 0 -95 39t-40 95t40 95.5t95 39.5q56 0 95 -39.5t39 -95.5z" />
    <glyph glyph-name="semicolon" unicode=";" horiz-adv-x="646" 
d="M86 129q0 43 42 87q37 45 117 45q82 0 130 -64q40 -53 40 -141q0 -212 -175 -309q-27 -13 -60 -15q-26 -2 -32 6l39 38v-1q58 50 85 105.5t27 131.5q-55 -17 -85 -17q-60 0 -94 35.5t-34 98.5zM372 796q0 -58 -40.5 -98.5t-98.5 -40.5q-57 0 -98.5 41t-41.5 98
q0 58 41.5 99t98.5 41q58 0 98.5 -41t40.5 -99zM144 -266l3 7q0 -2 1 -3z" />
    <glyph glyph-name="less" unicode="&#x3c;" horiz-adv-x="1191" 
d="M112 641v168l971 410v-179l-770 -316l770 -319v-179z" />
    <glyph glyph-name="equal" unicode="=" horiz-adv-x="1102" 
d="M987 450h-908v165h908v-165zM987 136h-908v162h908v-162z" />
    <glyph glyph-name="greater" unicode="&#x3e;" horiz-adv-x="1214" 
d="M1083 641l-971 -415v179l769 319l-769 316v179l971 -410v-168z" />
    <glyph glyph-name="question" unicode="?" horiz-adv-x="1069" 
d="M472 361q-1 24 -1 54q0 107 30 183q23 61 71 117q32 39 129 125q93 81 122 132q28 49 28 107q0 105 -82 184q-83 80 -201 80t-194 -74t-99 -223l-185 22q25 206 147.5 314.5t327.5 108.5q215 0 343 -117t128 -283q0 -96 -45 -177t-176 -197q-88 -78 -115 -115
q-27 -40 -40 -85q-14 -48 -15 -156h-173zM461 0v205h205v-205h-205z" />
    <glyph glyph-name="at" unicode="@" horiz-adv-x="2043" 
d="M1161 163q-67 -77 -147.5 -121.5t-159.5 -44.5q-91 0 -173 52q-83 51 -137 160q-52 105 -52 237q0 159 81 318q82 160 203 240q122 80 235 80q89 0 167.5 -46.5t134.5 -137.5l34 155h179l-144 -671q-30 -140 -30 -155q0 -27 20.5 -46.5t49.5 -19.5q54 0 139 61
q113 80 180 214q67 133 67 278q0 166 -86 312q-85 145 -255 232q-169 87 -374 87q-234 0 -428 -110q-193 -109 -300 -314q-106 -202 -106 -438q0 -247 106 -422q107 -178 308 -261q200 -85 447 -85q264 0 439 88q177 88 265 214h181q-51 -105 -175 -214t-295 -172
q-168 -64 -412 -64q-223 0 -410 57q-184 56 -318 170t-200 265q-84 189 -84 408q0 247 100 465q123 273 348 416t543 143q248 0 445 -102q199 -101 312 -302q97 -172 97 -376q0 -290 -204 -515q-181 -202 -398 -202q-132 0 -174 81q-13 25 -19 86zM677 434q0 -136 65 -213
q64 -76 149 -76q121 0 236 133q57 66 93 167q36 102 36 204q0 134 -68 211q-68 75 -164 75q-127 0 -230 -137q-54 -75 -85 -175q-32 -107 -32 -189z" />
    <glyph glyph-name="A" unicode="A" horiz-adv-x="1392" 
d="M-3 0l563 1466h209l600 -1466h-221l-171 444h-613l-161 -444h-206zM420 602h497l-153 406q-69 181 -104 304q-28 -139 -79 -280z" />
    <glyph glyph-name="B" unicode="B" horiz-adv-x="1369" 
d="M150 0v1466h550q168 0 269 -45q103 -44 159 -137q58 -91 58 -193q0 -96 -52.5 -179t-152.5 -132q132 -40 204 -133t72 -222q0 -101 -44 -192q-44 -89 -107 -136q-129 -97 -397 -97h-559zM344 850h317q126 0 185 17q149 44 149 201q0 72 -35 128t-100 76q-64 21 -223 21
h-293v-443zM344 173h365q100 0 132 7q70 12 112 40q46 29 74.5 83t28.5 122q0 82 -42 142q-42 61 -117 85q-71 25 -214 25h-339v-504z" />
    <glyph glyph-name="C" unicode="C" horiz-adv-x="1498" 
d="M1398 465q-61 -240 -220 -365q-158 -125 -387 -125q-237 0 -386 96q-148 97 -226 280q-77 186 -77 393q0 230 87 399q89 171 249 259q164 89 356 89q222 0 370 -112q150 -112 209 -315l-191 -45q-50 158 -146.5 232t-245.5 74q-169 0 -283 -81q-112 -81 -159 -218
q-46 -134 -46 -281q0 -187 54 -327q56 -140 170 -208q116 -69 249 -69q165 0 277.5 95t151.5 278z" />
    <glyph glyph-name="D" unicode="D" horiz-adv-x="1453" 
d="M158 0v1466h505q171 0 261 -21q126 -28 215 -105q231 -195 231 -599q0 -316 -139 -510q-60 -82 -134 -133q-147 -98 -410 -98h-529zM352 173h313q145 0 227 27q83 27 132 76q146 146 146 468q0 232 -76 353q-75 124 -183 166q-78 30 -251 30h-308v-1120z" />
    <glyph glyph-name="E" unicode="E" horiz-adv-x="1358" 
d="M162 0v1466h1060v-173h-866v-449h811v-172h-811v-499h900v-173h-1094z" />
    <glyph glyph-name="F" unicode="F" horiz-adv-x="1230" 
d="M168 0v1466h989v-173h-795v-454h688v-173h-688v-666h-194z" />
    <glyph glyph-name="G" unicode="G" horiz-adv-x="1564" 
d="M844 575v172l621 1v-544q-287 -229 -607 -229q-214 0 -393 92q-178 95 -266 268q-90 175 -90 391q0 212 89 399q88 183 254.5 274.5t390.5 91.5q162 0 287 -52q128 -52 201 -142.5t112 -240.5l-175 -48q-33 112 -82 176q-48 64 -140.5 102.5t-201.5 38.5
q-189 0 -307.5 -81t-171.5 -211q-56 -139 -56 -295q0 -198 67 -328q69 -133 197 -196q127 -64 274 -64q126 0 246 48q123 51 182 104v273h-431z" />
    <glyph glyph-name="H" unicode="H" horiz-adv-x="1442" 
d="M164 0v1466h194v-602h762v602h194v-1466h-194v691h-762v-691h-194z" />
    <glyph glyph-name="I" unicode="I" horiz-adv-x="612" 
d="M191 0v1466h194v-1466h-194z" />
    <glyph glyph-name="J" unicode="J" horiz-adv-x="1080" 
d="M234 440q7 -168 63 -230t155 -62q74 0 126 33q53 34 73 91q20 62 20 184v1010h194v-999q0 -185 -45 -285q-45 -101 -140 -154t-227 -53q-194 0 -296 112t-98 329z" />
    <glyph glyph-name="K" unicode="K" horiz-adv-x="1492" 
d="M150 0v1466h194v-727l728 727h263l-615 -594l642 -872h-256l-522 742l-240 -234v-508h-194z" />
    <glyph glyph-name="L" unicode="L" horiz-adv-x="1158" 
d="M150 0v1466h194v-1293h722v-173h-916z" />
    <glyph glyph-name="M" unicode="M" horiz-adv-x="1707" 
d="M152 0v1466h292l347 -1038q41 -126 70 -217q22 69 78 235l351 1020h261v-1466h-187v1227l-426 -1227h-175l-424 1248v-1248h-187z" />
    <glyph glyph-name="N" unicode="N" horiz-adv-x="1481" 
d="M156 0v1466h199l770 -1151v1151h186v-1466h-199l-770 1152v-1152h-186z" />
    <glyph glyph-name="O" unicode="O" horiz-adv-x="1626" 
d="M99 714q0 366 196 571q197 207 506 207q203 0 366 -97q163 -98 248 -271q86 -175 86 -393q0 -223 -90 -399t-255 -267q-165 -90 -356 -90q-207 0 -370 100t-247 273q-84 172 -84 366zM299 711q0 -267 142 -418q143 -152 358 -152q219 0 360 154q142 154 142 437
q0 181 -61 312q-60 134 -177 207q-116 74 -261 74q-207 0 -355 -142q-148 -141 -148 -472z" />
    <glyph glyph-name="P" unicode="P" horiz-adv-x="1375" 
d="M158 0v1466h553q141 0 223 -14q108 -18 181 -69q73 -49 117 -141q45 -92 45 -200q0 -186 -119 -317q-118 -129 -430 -129h-376v-596h-194zM352 769h379q188 0 267 70t79 197q0 92 -46 157t-123 87q-46 13 -181 13h-375v-524z" />
    <glyph glyph-name="Q" unicode="Q" horiz-adv-x="1642" 
d="M1269 157q137 -94 249 -136l-57 -135q-157 57 -315 180q-163 -91 -360 -91q-199 0 -361 96q-162 97 -250 270q-87 174 -87 392q0 219 88 395q88 178 250 271q164 93 364 93q203 0 366 -97q163 -95 248 -270q86 -175 86 -391q0 -362 -221 -577zM842 405q168 -47 277 -140
q171 156 171 469q0 180 -61 311q-59 133 -177 206q-116 74 -261 74q-217 0 -360 -149t-143 -443q0 -286 141 -439q143 -153 362 -153q105 0 196 39q-91 58 -192 84z" />
    <glyph glyph-name="R" unicode="R" horiz-adv-x="1559" 
d="M161 0v1466h650q199 0 298 -40q102 -39 163 -139t61 -221q0 -156 -101 -263t-312 -136q76 -36 117 -73q85 -78 161 -195l255 -399h-244l-194 305q-83 132 -141 203t-96.5 97t-89.5 39q-29 7 -108 7h-225v-651h-194zM355 819h417q133 0 208 27q73 27 113 86.5t40 133.5
q0 104 -76 171q-73 67 -238 67h-464v-485z" />
    <glyph glyph-name="S" unicode="S" horiz-adv-x="1364" 
d="M275 487q13 -110 60 -181q48 -71 148 -114q98 -43 225 -43q165 -2 266.5 71t97.5 178q0 71 -40.5 122t-131.5 85q-64 25 -261 71q-201 49 -283 92q-208 108 -208 319q0 111 63 207q63 98 184 147q124 50 269 50q160 0 287 -53q123 -51 190.5 -151.5t73.5 -233.5l-186 -14
q-30 281 -357 281q-174 0 -257 -65q-80 -65 -80 -155q0 -79 57 -130q56 -51 292 -105q237 -53 325 -93q250 -116 250 -358q0 -118 -67 -221q-68 -103 -193 -161q-125 -57 -282 -57q-202 0 -334 58q-134 58 -211 174q-76 116 -80 264z" />
    <glyph glyph-name="T" unicode="T" horiz-adv-x="1336" 
d="M531 0v1293h-483v173h1162v-173h-485v-1293h-194z" />
    <glyph glyph-name="U" unicode="U" horiz-adv-x="1475" 
d="M1120 1466h194v-847q0 -218 -50 -351q-50 -129 -181 -212q-131 -81 -342 -81q-206 0 -337 71t-187 205q-56 138 -56 368v847h194v-846q0 -188 35 -282q36 -91 122 -139.5t212 -48.5q214 0 305 97t91 373v846z" />
    <glyph glyph-name="V" unicode="V" horiz-adv-x="1386" 
d="M577 0l-568 1466h210l381 -1065q44 -121 77 -240q40 140 79 240l396 1065h198l-574 -1466h-199z" />
    <glyph glyph-name="W" unicode="W" horiz-adv-x="1921" 
d="M414 0l-389 1466h199l223 -961q39 -163 62 -300q57 239 66 271l279 990h234l210 -742q80 -276 114 -519q34 168 73 319l230 942h195l-402 -1466h-187l-309 1117q-28 97 -46 172q-18 -82 -43 -172l-311 -1117h-198z" />
    <glyph glyph-name="X" unicode="X" horiz-adv-x="1397" 
d="M9 0l567 764l-500 702h231l266 -376q89 -125 118 -180q51 81 116 167l295 389h211l-515 -691l555 -775h-240l-369 523q-12 18 -34.5 52.5t-29.5 45.5q-61 -98 -70 -110l-368 -511h-233z" />
    <glyph glyph-name="Y" unicode="Y" horiz-adv-x="1386" 
d="M571 0v621l-565 845h236l289 -442q90 -143 149 -248q76 133 160 259l284 431h226l-585 -845v-621h-194z" />
    <glyph glyph-name="Z" unicode="Z" horiz-adv-x="1247" 
d="M41 0v180l751 939q72 92 152 174h-818v173h1050v-173l-823 -1017l-89 -103h936v-173h-1159z" />
    <glyph glyph-name="bracketleft" unicode="[" horiz-adv-x="624" 
d="M139 -407v1873h397v-149h-217v-1575h217v-149h-397z" />
    <glyph glyph-name="backslash" unicode="\" horiz-adv-x="646" 
d="M425 -25l-425 1516h145l424 -1516h-144z" />
    <glyph glyph-name="bracketright" unicode="]" horiz-adv-x="573" 
d="M436 -407h-397v149h217v1575h-217v149h397v-1873z" />
    <glyph glyph-name="asciicircum" unicode="^" horiz-adv-x="991" 
d="M239 690h-185l353 801h145l355 -801h-181l-247 597z" />
    <glyph glyph-name="underscore" unicode="_" horiz-adv-x="1147" 
d="M-31 -407v130h1193v-130h-1193z" />
    <glyph glyph-name="grave" unicode="`" horiz-adv-x="551" 
d="M465 1194h-145l-231 280h241z" />
    <glyph glyph-name="a" unicode="a" horiz-adv-x="1175" 
d="M828 131q-100 -85 -193 -120q-94 -35 -198 -35q-175 0 -269 85t-94 219q0 115 73.5 196t184.5 109q53 14 160 27q219 26 321 62q1 25 1 47q0 110 -51 155q-67 61 -205 61q-126 0 -188 -45q-60 -44 -89 -157l-176 24q24 115 79 182q55 70 158.5 107.5t241.5 37.5
q133 0 221 -32q83 -31 124 -79t57 -124q9 -46 9 -166v-240q0 -247 11 -318q12 -68 46 -127h-188q-29 56 -36 131zM813 533q-95 -39 -294 -68q-111 -17 -157 -36q-46 -20 -71 -58t-25 -86q0 -75 55.5 -121.5t158.5 -46.5q104 0 184.5 45.5t119.5 124.5q29 64 29 180v66z" />
    <glyph glyph-name="b" unicode="b" horiz-adv-x="1164" 
d="M301 0h-167v1466h180v-523q114 143 291 143q99 0 185.5 -39.5t143.5 -111.5q121 -153 121 -388q0 -273 -135 -422t-324 -149t-295 157v-133zM299 539q0 -191 52 -276q85 -139 230 -139q119 0 204 102q86 104 86 306q0 206 -83 307q-82 99 -199 99q-119 0 -204 -103
q-86 -104 -86 -296z" />
    <glyph glyph-name="c" unicode="c" horiz-adv-x="1097" 
d="M1005 366q-29 -183 -149 -287q-118 -103 -293 -103q-218 0 -351 142q-132 142 -132 409q0 172 57 301q57 128 173 193q119 65 254 65q174 0 283.5 -87t140.5 -249l-175 -27q-24 106 -87 160.5t-155 54.5q-135 0 -221 -98q-85 -97 -85 -308q0 -214 82 -311t214 -97
q109 0 179 66.5t88 198.5z" />
    <glyph glyph-name="d" unicode="d" horiz-adv-x="1147" 
d="M824 0v134q-101 -158 -297 -158q-128 0 -234 70t-164.5 196t-58.5 288q0 156 53 288q52 130 159 199q106 69 237 69q187 0 293 -146v526h179v-1466h-167zM255 530q0 -204 86 -305t203 -101q118 0 200 96q83 98 83 295q0 218 -84 320t-207 102q-120 0 -201 -98
q-80 -98 -80 -309z" />
    <glyph glyph-name="e" unicode="e" horiz-adv-x="1164" 
d="M1048 319q-45 -166 -164 -254.5t-303 -88.5q-233 0 -370 143q-136 142 -136 403q0 268 138 416t358 148q213 0 348 -145t135 -408q0 -27 -1 -48h-792q10 -175 99 -268q88 -93 222 -93q201 0 280 218zM864 633q-12 133 -68 201q-86 104 -223 104q-123 0 -209 -83
q-84 -83 -93 -222h593z" />
    <glyph glyph-name="f" unicode="f" horiz-adv-x="690" 
d="M178 0v922h-159v140h159v113q0 109 19 159q59 157 275 157q76 0 168 -18l-27 -157q-53 10 -106 10q-81 0 -116 -35q-34 -34 -34 -131v-98h207v-140h-207v-922h-179z" />
    <glyph glyph-name="g" unicode="g" horiz-adv-x="1108" 
d="M277 -114q11 -81 61 -118q68 -50 183 -50q234 0 285 190q14 59 13 231q-118 -139 -294 -139q-219 0 -339 158t-120 379q0 155 55 280q55 130 159.5 199.5t245.5 69.5q188 0 310 -152v128h166v-918q0 -248 -51 -351q-52 -107 -161 -165.5t-268 -58.5q-188 0 -307 86
q-118 86 -113 257zM251 550q0 -207 83 -305q82 -96 208 -96q124 0 208 95q84 96 84 300q0 195 -87 294q-85 99 -208 99q-120 0 -204 -98q-84 -97 -84 -289z" />
    <glyph glyph-name="h" unicode="h" horiz-adv-x="1141" 
d="M135 0v1466h180v-526q126 146 318 146q116 0 205 -47q87 -46 124 -128q38 -85 38 -238v-673h-180v673q0 258 -224 258q-80 0 -151 -42q-70 -42 -100 -112.5t-30 -195.5v-581h-180z" />
    <glyph glyph-name="i" unicode="i" horiz-adv-x="490" 
d="M136 1259v207h180v-207h-180zM136 0v1062h180v-1062h-180z" />
    <glyph glyph-name="j" unicode="j" horiz-adv-x="512" 
d="M134 1257v209h180v-209h-180zM-60 -259q58 -14 85 -14q55 0 82 37q27 36 27 182v1116h180v-1120q0 -196 -51 -273q-64 -100 -216 -100q-77 0 -141 19z" />
    <glyph glyph-name="k" unicode="k" horiz-adv-x="1158" 
d="M136 0v1466h180v-836l426 432h233l-406 -394l447 -668h-222l-351 543l-127 -122v-421h-180z" />
    <glyph glyph-name="l" unicode="l" horiz-adv-x="501" 
d="M131 0v1466h180v-1466h-180z" />
    <glyph glyph-name="m" unicode="m" horiz-adv-x="1707" 
d="M135 0v1062h161v-149q53 80 136 126.5t186 46.5q116 0 192.5 -48.5t107.5 -137.5q126 186 328 186q328 0 328 -357v-729h-179v669q0 109 -18 155q-17 49 -63 77.5t-108 28.5q-112 0 -186 -75q-74 -74 -74 -238v-617h-180v690q0 122 -45 181t-143 59q-77 0 -141 -40
q-65 -40 -93 -117q-29 -79 -29 -222v-551h-180z" />
    <glyph glyph-name="n" unicode="n" horiz-adv-x="1152" 
d="M135 0v1062h162v-151q117 175 338 175q94 0 176 -35q78 -33 119.5 -87t57.5 -136q10 -47 10 -175v-653h-180v646q0 110 -21 164q-21 55 -74.5 87.5t-125.5 32.5q-117 0 -199 -73q-83 -74 -83 -277v-580h-180z" />
    <glyph glyph-name="o" unicode="o" horiz-adv-x="1197" 
d="M68 531q0 294 164 437q136 118 334 118q218 0 358 -144q139 -142 139 -396q0 -204 -62 -323q-61 -117 -179 -182q-119 -65 -256 -65q-223 0 -361 143q-137 143 -137 412zM253 531q0 -202 89 -306q89 -101 224 -101q134 0 223 102q89 104 89 311q0 197 -90 298
q-88 102 -222 102q-135 0 -224 -101t-89 -305z" />
    <glyph glyph-name="p" unicode="p" horiz-adv-x="1169" 
d="M135 -407v1469h164v-138q59 83 132.5 122.5t175.5 39.5q137 0 240 -70q104 -70 157 -198q53 -130 53 -279q0 -161 -59 -294q-58 -130 -170 -200q-111 -69 -234 -69q-87 0 -159 36.5t-120 97.5v-517h-180zM298 525q0 -205 83 -303t201 -98q119 0 205 101q86 104 86 315
q0 204 -84 304q-83 101 -199 101t-204 -108q-88 -106 -88 -312z" />
    <glyph glyph-name="q" unicode="q" horiz-adv-x="1136" 
d="M812 -407v520q-44 -61 -118 -98q-75 -39 -160 -39q-190 0 -326 151t-136 414q0 162 55 287q56 128 161 192q106 66 232 66q198 0 310 -166v142h162v-1469h-180zM257 534q0 -204 86 -308q85 -102 206 -102q116 0 198 97q83 98 83 297q0 213 -88 319q-87 107 -205 107
q-117 0 -199 -100q-81 -99 -81 -310z" />
    <glyph glyph-name="r" unicode="r" horiz-adv-x="779" 
d="M133 0v1062h162v-161q62 113 114 149t116 36q91 0 185 -58l-62 -167q-66 39 -132 39q-60 0 -106.5 -35.5t-66.5 -98.5q-30 -96 -30 -210v-556h-180z" />
    <glyph glyph-name="s" unicode="s" horiz-adv-x="1035" 
d="M241 345q31 -221 275 -221q122 0 184 50q60 51 60 119q0 61 -53 96q-41 24 -184 61q-202 51 -275 86q-75 36 -115 100.5t-40 143.5q0 71 32 131.5t89 100.5q45 32 117.5 53t152.5 21q124 0 219 -36t140 -98q45 -61 62 -164l-176 -24q-26 174 -232 174q-124 0 -177 -41
t-53 -96q0 -35 22 -63q23 -28 69 -48q28 -10 159 -46q193 -51 266 -84q162 -69 162 -248q0 -90 -53 -170q-52 -79 -150.5 -122.5t-224.5 -43.5q-204 0 -314 85t-140 256z" />
    <glyph glyph-name="t" unicode="t" horiz-adv-x="640" 
d="M554 2q-71 -16 -136 -16q-100 0 -152 31q-54 32 -76 81q-22 48 -22 213v611h-132v140h132v263l179 108v-371h181v-140h-181v-621q0 -77 9 -99q22 -48 93 -48q33 0 79 7z" />
    <glyph glyph-name="u" unicode="u" horiz-adv-x="1152" 
d="M831 0v156q-125 -180 -337 -180q-94 0 -176 36q-78 35 -119 88.5t-57 135.5q-11 58 -11 168v658h180v-589q0 -138 11 -190q17 -72 72 -112t136 -40t152 41q72 43 100 113q30 72 30 208v569h180v-1062h-161z" />
    <glyph glyph-name="v" unicode="v" horiz-adv-x="1063" 
d="M430 0l-404 1062h190l228 -636q36 -98 68 -214q23 81 67 202l236 648h185l-402 -1062h-168z" />
    <glyph glyph-name="w" unicode="w" horiz-adv-x="1492" 
d="M331 0l-325 1062h186l169 -613l63 -228l55 219l169 622h185l159 -616l53 -203l61 205l182 614h175l-332 -1062h-187l-169 636l-41 181l-215 -817h-188z" />
    <glyph glyph-name="x" unicode="x" horiz-adv-x="1035" 
d="M15 0l388 552l-359 510h225l163 -249q34 -51 74 -119q44 66 81 117l179 251h215l-367 -500l395 -562h-221l-218 330l-58 89l-279 -419h-218z" />
    <glyph glyph-name="y" unicode="y" horiz-adv-x="1058" 
d="M107 -240q55 -16 103 -16q106 0 155 76q21 37 55 134q1 2 16 44l-403 1064h194l221 -615q43 -116 77 -246q31 122 74 242l227 619h180l-404 -1080q-63 -171 -101 -241q-48 -90 -109.5 -131t-148.5 -41q-54 0 -116 22z" />
    <glyph glyph-name="z" unicode="z" horiz-adv-x="1019" 
d="M40 0v146l676 776q-115 -6 -203 -6h-433v146h868v-119l-575 -674l-111 -123q122 9 227 9h491v-155h-940z" />
    <glyph glyph-name="braceleft" unicode="{" horiz-adv-x="985" 
d="M68 636q132 19 215 96q95 84 95 210q0 44 -24 147q-35 160 -35 230q0 195 134 335q128 131 324 167v-47q-294 -68 -294 -302q0 -58 23 -176q34 -158 34 -234q0 -302 -366 -454q370 -147 370 -436q0 -62 -39 -275q-16 -83 -16 -148q0 -120 86 -201q80 -77 202 -95v-52
q-198 31 -323 165q-131 140 -131 334q0 74 36 243q20 97 20 159q0 218 -311 286v48z" />
    <glyph glyph-name="bar" unicode="|" horiz-adv-x="534" 
d="M188 -431v1922h157v-1922h-157z" />
    <glyph glyph-name="braceright" unicode="}" horiz-adv-x="907" 
d="M777 588q-311 -68 -311 -286q0 -62 20 -159q36 -169 36 -243q0 -194 -131 -334q-125 -134 -323 -165v52q122 18 202 95q86 81 86 201q0 65 -16 148q-39 213 -39 275q0 289 370 436q-366 152 -366 454q0 76 34 234q23 118 23 176q0 234 -294 302v47q196 -36 324 -167
q134 -140 134 -335q0 -70 -35 -230q-24 -103 -24 -147q0 -126 95 -210q83 -77 215 -96v-48z" />
    <glyph glyph-name="asciitilde" unicode="~" horiz-adv-x="1247" 
d="M87 762q106 120 278 120q60 0 126 -18q65 -16 188 -69q67 -27 103 -38q34 -9 70 -9q65 0 134 39q67 36 124 98v-212q-64 -60 -129.5 -87t-147.5 -27q-57 0 -115 14q-46 12 -173 67q-121 53 -197 53q-66 0 -121 -28q-58 -27 -140 -108v205z" />
    <glyph glyph-name="exclamdown" unicode="&#xa1;" horiz-adv-x="674" 
d="M447 1062v-205h-207v205h207zM400 697l55 -776v-325h-223v325l52 776h116z" />
    <glyph glyph-name="cent" unicode="&#xa2;" horiz-adv-x="1097" 
d="M522 128q33 -9 61 -9q102 0 179 71t93 199l179 -20q-33 -185 -157 -291q-121 -106 -291 -106q-45 0 -103 14l-118 -395l-112 32l115 398q-115 56 -188 183t-73 322q0 180 58 305q59 128 175 192q115 64 238 64q31 0 100 -8l113 387l110 -32l-112 -387q97 -42 151 -114
t75 -183l-175 -27q-26 113 -96 171zM638 940q-31 3 -50 3q-84 0 -154 -46q-70 -44 -106 -138.5t-36 -223.5q0 -266 123 -358z" />
    <glyph glyph-name="sterling" unicode="&#xa3;" horiz-adv-x="1158" 
d="M711 809v-148h-284q19 -41 19 -88q0 -193 -178 -382q76 22 144 22q86 0 187 -25q176 -41 233 -41q71 0 192 56l58 -165q-93 -39 -143 -51q-49 -12 -100 -12q-39 0 -85 8q-28 5 -130 36q-107 33 -132 38q-50 8 -94 8q-72 0 -153.5 -25t-148.5 -68l-69 173q94 51 163 151
q67 97 67 241q0 58 -17 124h-196v148h154q-33 111 -42 163t-9 101q0 208 154 325q125 93 300 93q183 0 298 -100q118 -99 145 -279l-179 -27q-15 120 -90 189q-73 69 -178 69q-111 0 -185 -72q-73 -70 -73 -172q0 -111 57 -290h315z" />
    <glyph glyph-name="currency" unicode="&#xa4;" horiz-adv-x="1164" 
d="M74 1097l115 119l139 -139q106 72 237 72q132 0 237 -72l139 139l116 -119l-139 -136q71 -110 71 -235q0 -126 -71 -236l139 -136l-116 -119l-139 140q-103 -73 -237 -73q-131 0 -237 73l-139 -140l-115 119l139 136q-71 110 -71 236q0 125 71 235zM305 726
q0 -108 76 -184t183 -76t183 76t76 184q0 107 -76 183q-75 76 -183 76q-107 0 -183 -76t-76 -183z" />
    <glyph glyph-name="yen" unicode="&#xa5;" horiz-adv-x="1175" 
d="M477 0v325h-415v139h415v143h-415v148h341l-406 711h200l290 -516q47 -85 76 -154q21 48 82 163l274 507h214l-405 -711h341v-148h-412v-143h412v-139h-412v-325h-180z" />
    <glyph glyph-name="brokenbar" unicode="&#xa6;" horiz-adv-x="562" 
d="M345 1491v-790h-157v790h157zM345 360v-791h-157v791h157z" />
    <glyph glyph-name="section" unicode="&#xa7;" horiz-adv-x="1147" 
d="M324 -44q28 -130 89 -182q62 -53 166 -53t159 52q58 52 58 122q0 51 -36 94q-63 77 -340 245q-152 94 -207 142q-60 54 -96 124.5t-36 143.5q0 96 60 174q59 78 165 109q-70 67 -99.5 124.5t-29.5 123.5q0 128 100 222t265 94q375 0 418 -347l-187 -19q-22 120 -72.5 169
t-142.5 49q-90 0 -149 -50q-56 -50 -56 -109q0 -52 36 -96q56 -68 306 -220q160 -98 212 -141q138 -115 138 -263q0 -114 -73 -193q-42 -47 -154 -93q159 -120 159 -281q0 -86 -50 -166q-49 -79 -144 -120q-95 -42 -203 -42q-190 0 -302.5 94.5t-134.5 266.5zM728 244
q72 37 109.5 87t37.5 100q0 59 -52 120q-54 64 -225 169q-136 84 -204 138q-80 -45 -115 -90.5t-35 -103.5q0 -65 46 -120q45 -57 207 -152q149 -89 231 -148z" />
    <glyph glyph-name="dieresis" unicode="&#xa8;" horiz-adv-x="707" 
d="M61 1270v205h188v-205h-188zM434 1270v205h188v-205h-188z" />
    <glyph glyph-name="copyright" unicode="&#xa9;" horiz-adv-x="1525" 
d="M758 1491q189 0 371 -98q181 -97 282 -279t101 -378q0 -197 -100 -375q-100 -180 -279 -280q-179 -99 -375 -99t-376 99q-178 100 -279 280q-100 178 -100 375q0 196 101 378q102 182 283 279q182 98 371 98zM758 1366q-159 0 -310 -82q-150 -80 -235 -233
q-85 -151 -85 -315q0 -161 83 -313q84 -149 234 -233q152 -83 313 -83t313 83q150 84 233 233q83 152 83 313q0 164 -85 315q-86 154 -235 233q-151 82 -309 82zM1123 578q-30 -125 -128 -200q-98 -74 -236 -74q-177 0 -286 114q-110 116 -110 316q-4 197 109.5 312.5
t294.5 113.5q131 0 219.5 -63t121.5 -173l-119 -29q-30 75 -88.5 114t-137.5 39q-115 0 -190 -82q-74 -83 -74 -235q0 -153 70 -232q71 -78 183 -78q91 0 158 52q68 53 90 141z" />
    <glyph glyph-name="ordfeminine" unicode="&#xaa;" horiz-adv-x="757" 
d="M548 853q-122 -107 -256 -107q-115 0 -179 61q-66 61 -66 158q0 142 145 193q34 10 99 21l147 22q64 12 96 20q-1 71 -14 94q-31 59 -143 59q-147 0 -166 -125l-137 34q12 90 88 148q76 60 217 60q165 0 232 -61t67 -181v-240l-1 -61q0 -134 41 -184h-148q-21 43 -22 89z
M533 1104q-53 -14 -192 -36q-90 -14 -117 -39q-28 -25 -28 -64q0 -43 34.5 -71t95.5 -28q73 0 127 39t72 96q6 17 8 103z" />
    <glyph glyph-name="guillemotleft" unicode="&#xab;" horiz-adv-x="1102" 
d="M340 528l259 -456h-146l-319 456l319 456h148zM727 528l264 -456h-152l-313 456l313 456h152z" />
    <glyph glyph-name="logicalnot" unicode="&#xac;" horiz-adv-x="1225" 
d="M1082 424h-170v438h-798v168h968v-606z" />
    <glyph glyph-name="uni00AD" unicode="&#xad;" horiz-adv-x="707" 
d="M65 440v181h553v-181h-553z" />
    <glyph glyph-name="registered" unicode="&#xae;" horiz-adv-x="1525" 
d="M758 1491q189 0 371 -98q181 -97 282 -279t101 -378q0 -197 -100 -375q-100 -180 -279 -280q-179 -99 -375 -99t-376 99q-178 100 -279 280q-100 178 -100 375q0 196 101 378q102 182 283 279q182 98 371 98zM758 1366q-159 0 -310 -82q-150 -80 -235 -233
q-85 -151 -85 -315q0 -161 83 -313q84 -149 234 -233q152 -83 313 -83t313 83q150 84 233 233q83 152 83 313q0 164 -85 315q-86 154 -235 233q-151 82 -309 82zM427 319v812h279q140 0 207 -23q65 -22 102 -78q38 -56 38 -119q0 -91 -64 -155q-63 -66 -168 -74
q44 -18 69 -43q49 -46 120 -161l99 -159h-160l-72 128q-85 152 -137 189q-34 28 -105 28h-77v-345h-131zM558 776h159q115 0 155 34q42 34 42 90q0 35 -20 64q-19 29 -56 43t-131 14h-149v-245z" />
    <glyph glyph-name="overscore" unicode="&#xaf;" horiz-adv-x="1141" 
d="M-31 1566v129h1193v-129h-1193z" />
    <glyph glyph-name="degree" unicode="&#xb0;" horiz-adv-x="752" 
d="M128 1214q0 115 81 196q83 81 196 81q116 0 197 -81t81 -196t-82 -197q-81 -81 -196 -81q-113 0 -196 81q-81 81 -81 197zM237 1214q0 -71 49 -120t120 -49q69 0 118 49q50 50 50 120q0 69 -50 119t-118 50q-70 0 -120 -50q-49 -49 -49 -119z" />
    <glyph glyph-name="plusminus" unicode="&#xb1;" horiz-adv-x="1136" 
d="M477 260v403h-399v167h399v399h170v-399h399v-167h-399v-403h-170zM1046 0h-968v168h968v-168z" />
    <glyph glyph-name="uni00B2" unicode="&#xb2;" horiz-adv-x="740" 
d="M25 733q6 55 47 114q68 90 207 190q144 105 171 135q37 40 37 84q0 50 -35.5 80t-102.5 30q-66 0 -99 -24q-32 -23 -53 -90l-151 16q30 112 101.5 164t204.5 52q150 0 221 -59t71 -144q0 -82 -59 -159q-47 -56 -205 -171q-84 -61 -118 -97h386v-121h-623z" />
    <glyph glyph-name="uni00B3" unicode="&#xb3;" horiz-adv-x="674" 
d="M179 944q19 -58 52 -82q43 -30 102 -30q71 0 114 39t43 94q0 110 -159 110q-3 0 -33 -2q-9 -1 -22 -1l22 110q78 0 117 28t39 74q0 39 -30.5 64t-88.5 25q-56 0 -87.5 -22t-54.5 -80l-143 23q40 105 103 148q63 42 183 42q145 0 209 -54q66 -52 66 -133q0 -56 -36 -99
t-102 -61q173 -42 173 -191q0 -93 -79 -162t-225 -69q-265 0 -309 214z" />
    <glyph glyph-name="acute" unicode="&#xb4;" horiz-adv-x="707" 
d="M222 1194l133 280h236l-220 -280h-149z" />
    <glyph glyph-name="mu" unicode="&#xb5;" horiz-adv-x="1097" 
d="M1018 1062v-1062h-161v126q-52 -81 -103 -110q-71 -41 -163 -41q-83 0 -147 33q-48 26 -106 99v-514h-178v1469h178v-450q0 -242 26 -318q26 -72 84.5 -114t134.5 -42q78 0 143 44q63 44 89 113q26 73 26 314v453h177z" />
    <glyph glyph-name="paragraph" unicode="&#xb6;" horiz-adv-x="1197" 
d="M405 -407v1045q-187 10 -296 121q-108 113 -108 285q0 193 120 307q121 115 353 115h633v-173h-144v-1700h-170v1700h-223v-1700h-165z" />
    <glyph glyph-name="middot" unicode="&#xb7;" horiz-adv-x="596" 
d="M238 637v205h205v-205h-205z" />
    <glyph glyph-name="cedilla" unicode="&#xb8;" horiz-adv-x="651" 
d="M268 23h134l-33 -107q81 -9 126 -50.5t45 -96.5q0 -75 -72 -132q-70 -58 -217 -58q-83 0 -144 12l11 117q57 -4 94 -4q94 0 132 26q29 20 29 49q-3 21 -11 32.5t-43.5 22.5t-102.5 12z" />
    <glyph glyph-name="uni00B9" unicode="&#xb9;" horiz-adv-x="640" 
d="M331 733v554q-102 -81 -224 -113v123q59 19 138 73q77 52 123 114h108v-751h-145z" />
    <glyph glyph-name="ordmasculine" unicode="&#xba;" horiz-adv-x="752" 
d="M373 1491q145 0 236 -100q92 -101 92 -276q0 -174 -92 -275q-91 -100 -235 -100q-145 0 -237 98t-92 273q0 180 91 280t237 100zM373 1358q-85 0 -132.5 -59.5t-47.5 -183.5q0 -121 49 -182t131 -61q84 0 132 60.5t48 187.5q0 118 -49 178t-131 60z" />
    <glyph glyph-name="guillemotright" unicode="&#xbb;" horiz-adv-x="1119" 
d="M791 528l-261 456h148l319 -456l-319 -456h-147zM404 528l-264 456h151l314 -456l-314 -456h-151z" />
    <glyph glyph-name="onequarter" unicode="&#xbc;" horiz-adv-x="1707" 
d="M252 -57l1102 1548h156l-1101 -1548h-157zM331 733v554q-102 -81 -224 -113v123q59 19 138 73q77 52 123 114h108v-751h-145zM1430 -31v154h-383v123l405 474h122v-489h104v-108h-104v-154h-144zM1430 231v263l-230 -263h230z" />
    <glyph glyph-name="onehalf" unicode="&#xbd;" horiz-adv-x="1707" 
d="M228 -57l1101 1548h157l-1101 -1548h-157zM331 733v554q-102 -81 -224 -113v123q59 19 138 73q77 52 123 114h108v-751h-145zM1049 -31q6 56 48 113q62 87 206 191q144 103 171 135q37 40 37 84q0 50 -35.5 79.5t-102.5 29.5q-66 0 -99 -24q-32 -23 -53 -89l-151 15
q30 113 102 165t204 52q150 0 221 -59t71 -144q0 -82 -59 -159q-53 -63 -204 -172q-87 -64 -119 -96h386v-121h-623z" />
    <glyph glyph-name="threequarters" unicode="&#xbe;" horiz-adv-x="1707" 
d="M252 -57l1101 1548h157l-1101 -1548h-157zM179 944q19 -58 52 -82q43 -30 102 -30q71 0 114 39t43 94q0 110 -156 110q-49 -3 -58 -3l22 110q78 0 117 28t39 74q0 39 -30.5 64t-88.5 25q-56 0 -87.5 -22t-54.5 -80l-143 23q40 105 103 148q63 42 183 42q145 0 209 -54
q66 -52 66 -133q0 -56 -36 -99t-102 -61q173 -42 173 -191q0 -93 -79 -162t-225 -69q-265 0 -309 214zM1429 -31v154h-382v123l404 474h123v-489h104v-108h-104v-154h-145zM1429 231v263l-229 -263h229z" />
    <glyph glyph-name="questiondown" unicode="&#xbf;" horiz-adv-x="1186" 
d="M733 1062v-205h-205v205h205zM721 701q1 -23 1 -51q0 -110 -30 -187q-23 -61 -71 -117q-34 -41 -130 -125q-91 -81 -121 -131q-27 -50 -27 -107q0 -106 82 -185t201 -79q117 0 193.5 73.5t99.5 222.5l184 -21q-24 -203 -148 -313t-326 -110q-217 0 -344 117t-127 283
q0 97 44 177q47 82 176 196q85 75 116 116q27 37 39 85q13 48 15 156h173z" />
    <glyph glyph-name="multiply" unicode="&#xd7;" horiz-adv-x="1147" 
d="M161 409l315 315l-314 314l122 122l314 -314l313 313l120 -121l-312 -313l314 -314l-122 -122l-314 314l-315 -315z" />
    <glyph glyph-name="divide" unicode="&#xf7;" horiz-adv-x="1136" 
d="M459 922v205h205v-205h-205zM1046 639h-968v168h968v-168zM459 319v205h205v-205h-205z" />
    <glyph glyph-name="OE" unicode="&#x152;" horiz-adv-x="2043" 
d="M1983 173v-173h-862v212q-135 -237 -400 -237q-302 0 -456 232q-136 205 -136 528q0 322 142 539t450 217q264 0 400 -223v198h831v-173h-650v-448h599v-172h-599v-500h681zM720 1334q-99 0 -197 -65q-98 -66 -146 -199.5t-48 -349.5q0 -304 115 -446q116 -143 276 -143
q161 0 275 142q115 142 115 472q0 304 -116 447q-115 142 -274 142z" />
    <glyph glyph-name="oe" unicode="&#x153;" horiz-adv-x="1932" 
d="M978 175q-151 -199 -396 -199q-225 0 -363 143q-137 143 -137 399q0 171 58 302q58 133 178 200q120 66 266 66q140 0 240 -58q103 -57 154 -145q65 96 165.5 149.5t223.5 53.5q220 0 356 -151q136 -149 134 -452h-784q3 -165 92 -263q90 -96 224 -96q101 0 171.5 56
t102.5 166l180 -26q-43 -166 -160.5 -255t-296.5 -89q-134 0 -239 52t-169 147zM267 533q0 -185 71 -283q92 -126 239 -126q130 0 221 106q92 107 92 305q0 200 -91 300q-90 103 -222 103q-87 0 -160 -49q-71 -47 -110.5 -143.5t-39.5 -212.5zM1667 631q-12 149 -92 229
q-79 78 -197 78q-122 0 -204 -82q-83 -83 -94 -225h587z" />
    <glyph glyph-name="Scaron" unicode="&#x160;" horiz-adv-x="1336" 
d="M655 1660l110 170h204l-225 -280h-192l-216 280h206zM275 487q13 -110 60 -181q48 -71 148 -114q98 -43 225 -43q165 -2 266.5 71t97.5 178q0 71 -40.5 122t-131.5 85q-64 25 -261 71q-201 49 -283 92q-208 108 -208 319q0 111 63 207q63 98 184 147q124 50 269 50
q160 0 287 -53q123 -51 190.5 -151.5t73.5 -233.5l-186 -14q-30 281 -357 281q-174 0 -257 -65q-80 -65 -80 -155q0 -79 57 -130q56 -51 292 -105q237 -53 325 -93q250 -116 250 -358q0 -118 -67 -221q-68 -103 -193 -161q-125 -57 -282 -57q-202 0 -334 58
q-134 58 -211 174q-76 116 -80 264z" />
    <glyph glyph-name="scaron" unicode="&#x161;" horiz-adv-x="1035" 
d="M507 1304l110 170h204l-225 -280h-192l-216 280h206zM241 345q31 -221 275 -221q122 0 184 50q60 51 60 119q0 61 -53 96q-41 24 -184 61q-202 51 -275 86q-75 36 -115 100.5t-40 143.5q0 71 32 131.5t89 100.5q45 32 117.5 53t152.5 21q124 0 219 -36t140 -98
q45 -61 62 -164l-176 -24q-26 174 -232 174q-124 0 -177 -41t-53 -96q0 -35 22 -63q23 -28 69 -48q28 -10 159 -46q193 -51 266 -84q162 -69 162 -248q0 -90 -53 -170q-52 -79 -150.5 -122.5t-224.5 -43.5q-204 0 -314 85t-140 256z" />
    <glyph glyph-name="Ydieresis" unicode="&#x178;" horiz-adv-x="1386" 
d="M401 1556v205h188v-205h-188zM774 1556v205h188v-205h-188zM571 0v621l-565 845h236l289 -442q90 -143 149 -248q76 133 160 259l284 431h226l-585 -845v-621h-194z" />
    <glyph glyph-name="Zcaron" unicode="&#x17d;" horiz-adv-x="1247" 
d="M655 1660l110 170h204l-225 -280h-192l-216 280h206zM41 0v180l751 939q72 92 152 174h-818v173h1050v-173l-823 -1017l-89 -103h936v-173h-1159z" />
    <glyph glyph-name="zcaron" unicode="&#x17e;" horiz-adv-x="1019" 
d="M543 1304l110 170h204l-225 -280h-192l-216 280h206zM40 0v146l676 776q-115 -6 -203 -6h-433v146h868v-119l-575 -674l-111 -123q122 9 227 9h491v-155h-940z" />
    <glyph glyph-name="florin" unicode="&#x192;" horiz-adv-x="1152" 
d="M81 -250q100 -22 152 -22q55 0 83 28t45 124l177 1042h-201l24 140h201l24 133q22 120 45 165q64 132 239 132q77 0 215 -38l-35 -153q-103 24 -154 24q-56 0 -84 -28q-28 -26 -47 -132l-19 -103h204l-25 -140h-204l-191 -1092q-26 -148 -87 -204q-61 -57 -173 -57
q-89 0 -224 26z" />
    <glyph glyph-name="circumflex" unicode="&#x2c6;" horiz-adv-x="707" 
d="M344 1364l-113 -170h-206l216 280h192l225 -280h-204z" />
    <glyph glyph-name="tilde" unicode="&#x2dc;" horiz-adv-x="724" 
d="M7 1219q-2 104 57 166q57 62 146 62q62 0 169 -54q59 -30 94 -30q33 0 49.5 18.5t23.5 68.5h130q-3 -111 -56 -169.5t-140 -58.5q-62 0 -166 56q-67 36 -98 36q-34 0 -55 -24q-23 -24 -21 -71h-133z" />
    <glyph glyph-name="uni060C" unicode="&#x60c;" horiz-adv-x="512" 
d="M412 116q0 -44 -37 -84q-48 -54 -122 -54q-85 0 -134 64q-44 55 -44 147q0 218 182 316q23 12 60 14q36 3 36 -14q-9 -11 -39 -38q-109 -94 -109 -230q40 13 79 13q128 0 128 -134z" />
    <glyph glyph-name="uni060D" unicode="&#x60d;" horiz-adv-x="723" 
d="M549 209q-286 -281 -383 -594q-29 9 -47.5 38t-18.5 63q0 46 47 155q95 210 359 483z" />
    <glyph glyph-name="uni0615" unicode="&#x615;" 
d="M294 1177q56 0 92 -21t48.5 -50.5t14 -66t-3.5 -61t-11 -42.5q-13 -32 -28 -58t-43 -56t-63 -50.5t-90 -34t-122 -13.5q-137 0 -214 13q-7 1 -16 2t-14 2t-9 2l-11 4q-44 12 -67 34t-36 58q-3 9 0 13.5t12 2.5q47 -13 165 -20q7 7 22 27l16 21q23 33 23 113v22
q-1 56 -3.5 99.5t-4.5 63.5t-6 52.5t-6 47.5q-8 71 -13 103q13 17 37 41q44 38 50 36l2 -12q1 -1 1 -7l7 -114q3 -69 3 -197q0 -110 -27 -168q179 214 295 214zM394 949q2 9 4 23.5t-5.5 31.5t-19.5 31.5t-37.5 23.5t-60.5 8q-42 -2 -86 -21t-75 -41t-67.5 -58.5t-52 -55
t-40.5 -49.5q-3 -3 -4.5 -5.5t-3.5 -4.5l39 -3q37 -3 110 -3q240 0 299 123z" />
    <glyph glyph-name="uni061B" unicode="&#x61b;" horiz-adv-x="512" 
d="M418 666q0 -44 -37 -84q-48 -54 -122 -54q-85 0 -134 64q-44 55 -44 147q0 218 182 316q23 12 60 14q36 3 36 -14q-9 -11 -39 -38q-109 -94 -109 -230q40 13 79 13q128 0 128 -134zM118 111q0 60 42 102.5t102 42.5t102.5 -42.5t42.5 -102.5t-42.5 -102t-102.5 -42
q-61 0 -102.5 41.5t-41.5 102.5z" />
    <glyph glyph-name="uni061F" unicode="&#x61f;" horiz-adv-x="1024" 
d="M849 1200q0 -85 -41 -144q-48 -69 -134 -69q-52 0 -88 33t-36 83q0 55 40 92q40 39 97 39q45 0 91 -27q1 93 -77 153q-73 57 -174 57q-88 0 -153 -68q-63 -67 -63 -151q-14 -165 130 -325q144 -161 140 -318q0 -9 -5 -211l-82 1l3 127q9 74 -92 167q-185 167 -195 180
q-108 125 -108 275q0 165 112 283q114 126 287 126q143 0 244 -83q104 -87 104 -220zM641 103q0 -45 -32.5 -77t-77.5 -32q-44 0 -79 32q-32 32 -32 77t33 78t78 33t77 -33q33 -31 33 -78z" />
    <glyph glyph-name="uni0621" unicode="&#x621;" horiz-adv-x="973" 
d="M101 14l154 88l45 28q-77 44 -130 123.5t-45 170.5q3 50 43 118t97.5 127.5t129.5 99.5t131 37q194 -15 289 -210q6 -14 2.5 -24t-18 -12t-44.5 13q-73 45 -215 53q-66 4 -132.5 -23t-106.5 -68t-43 -79q-1 -19 16.5 -48.5t53 -62t80.5 -59.5t106 -39.5t123 -2.5v-2
l92 15q17 3 68.5 12t69.5 13q4 3 9 1t0 -10l-31 -86q-20 -50 -28 -79q-509 -84 -767 -256z" />
    <glyph glyph-name="uni0622" unicode="&#x622;" horiz-adv-x="546" 
d="M269 -20q-5 -7 -8.5 -8.5t-5 1t-1.5 6.5q-7 564 -32 956q-13 220 -25 370q70 70 82 81q6 5 14 12t14 12t13.5 12t12.5 11t12 9l10.5 7.5t8.5 5t7 2t5 -0.5q6 -6 7 -21q1 -3 1 -15q4 -165 2 -407q0 -391 -30 -800q-21 -116 -87 -233zM440 1679q46 0 91 16t68 28.5t27 8.5
t-1.5 -18.5t-21.5 -35.5t-40 -41.5t-64 -36.5t-87 -21q-45 -6 -132.5 5t-113.5 9q-29 -1 -57.5 -28t-47.5 -51t-28 -21q-10 4 2 59.5t42.5 110t63.5 54.5q44 0 145.5 -19t153.5 -19z" />
    <glyph glyph-name="uni0623" unicode="&#x623;" horiz-adv-x="502" 
d="M210 -20q-5 -7 -8.5 -8.5t-5 1t-1.5 6.5q-7 564 -32 956q-13 220 -25 370q70 70 82 81q6 5 14 12t14 12t13.5 12t12.5 11t12 9l10.5 7.5t8.5 5t7 2t5 -0.5q6 -6 7 -21q1 -3 1 -15q4 -165 2 -407q0 -391 -30 -800q-21 -116 -87 -233zM62 1511l85 50l25 16
q-44 24 -73.5 67.5t-26.5 94.5q3 61 78.5 139.5t141.5 75.5q107 -5 162 -114q4 -8 2 -13.5t-10 -6.5t-25 7q-43 25 -120 28q-55 2 -104 -31t-51 -66q-1 -13 15.5 -35t44 -43t69 -32.5t83.5 -4.5v-1l51 9q58 11 76 15q3 1 5.5 0.5t0.5 -5.5l-17 -48q-9 -23 -15 -44
q-276 -49 -424 -148z" />
    <glyph glyph-name="uni0624" unicode="&#x624;" horiz-adv-x="852" 
d="M426 788q70 0 126.5 -43t91.5 -114t60 -150t36.5 -162.5t16.5 -139t5 -92.5q0 -109 -31 -211t-80 -176t-107 -135.5t-115 -99.5t-101 -58.5t-68 -20.5h-3q-40 2 -118 51t-95 75q-7 11 -2.5 21t19.5 13h7h2q3 -1 5 -1q49 0 98 17q57 18 112 44t116.5 68t110.5 92.5t88 121
t54 150.5l-20 -8q-102 -37 -211 -37q-313 0 -306 307q2 110 51.5 225.5t121 189t136.5 73.5zM632 233q-21 95 -56 178q-32 76 -82 127.5t-112 51.5q-65 0 -122.5 -71.5t-59.5 -157.5q-4 -94 47.5 -132t164.5 -38q140 0 207 35zM242 964l85 50l25 16q-44 24 -73.5 67.5
t-26.5 94.5q3 61 78.5 139.5t141.5 75.5q107 -5 162 -114q4 -8 2 -13.5t-10 -6.5t-25 7q-43 25 -120 28q-55 2 -104 -31t-51 -66q-1 -13 15.5 -35t44 -43t69 -32.5t83.5 -4.5l51 8q33 5 76 15q3 1 5.5 0.5t0.5 -5.5l-17 -48q-9 -23 -15 -44q-276 -49 -424 -148z" />
    <glyph glyph-name="uni0625" unicode="&#x625;" horiz-adv-x="468" 
d="M193 -20q-5 -7 -8.5 -8.5t-5 1t-1.5 6.5q-7 564 -32 956q-13 220 -25 370q69 70 82 81q6 5 14 12t14 12t13.5 12t12.5 11t12 9l10.5 7.5t8.5 5t7 2t5 -0.5q6 -6 7 -21q1 -3 1 -15q4 -165 2 -407q0 -391 -30 -800q-21 -116 -87 -233zM46 -575l85 50l25 16
q-44 24 -73.5 67.5t-26.5 94.5q3 61 78.5 139.5t141.5 75.5q107 -5 162 -114q4 -8 2 -13.5t-10 -6.5t-25 7q-43 25 -120 28q-55 2 -104 -31t-51 -66q-1 -13 15.5 -35t44 -43t69 -32.5t83.5 -4.5v-1l51 9q58 11 76 15q3 1 5.5 0.5t0.5 -5.5l-17 -48q-9 -23 -15 -44
q-276 -49 -424 -148z" />
    <glyph glyph-name="uni0626" unicode="&#x626;" horiz-adv-x="1536" 
d="M1409 10q26 -57 29.5 -117t-16 -117.5t-57.5 -111.5t-98 -100t-133.5 -82t-167.5 -58.5t-197 -28.5q-100 -6 -186.5 1t-169.5 33t-145 71t-106 119t-59.5 172t2 235t70.5 303q89 277 137 275q7 0 13 -6q7 -3 5.5 -18t-5.5 -28.5t-12.5 -39.5t-17.5 -50.5t-20.5 -61.5
t-19.5 -73q-13 -53 -22 -101t-14 -109t-2.5 -114t15.5 -109t38 -101t68.5 -84.5t101.5 -64t142 -35t187 -1.5q119 10 219 36t163 58.5t107.5 68.5t63 66t18.5 52q0 24 -38.5 40t-96.5 23.5t-126 22t-126.5 34t-98 61t-40.5 101.5q-1 105 30 209t84 187.5t126 147.5t152 96
t165.5 26.5t163.5 -55.5q7 -12 1 -56.5t-25 -87t-36 -29.5q-60 34 -132 30t-147.5 -43t-138 -92t-104 -116t-45.5 -116q-3 -35 39 -58.5t109 -39t136.5 -33t131.5 -50.5t85 -81zM404 382l85 50l25 16q-44 24 -73.5 67.5t-26.5 94.5q3 61 78.5 139.5t141.5 75.5
q107 -5 162 -114q4 -8 2 -13.5t-10 -6.5t-25 7q-43 25 -120 28q-55 2 -104 -31t-51 -66q-1 -13 15.5 -35t44 -43t69 -32.5t83.5 -4.5l51 8q33 5 76 15q3 1 5.5 0.5t0.5 -5.5l-17 -48q-9 -23 -15 -44q-276 -49 -424 -148z" />
    <glyph glyph-name="uni0627" unicode="&#x627;" horiz-adv-x="426" 
d="M190 -13q-5 -7 -8.5 -8.5t-5 1t-1.5 6.5q-7 564 -32 956q-13 220 -25 370q70 69 82 81q6 5 14 12t14 12t13.5 12t12.5 11t12 9l10.5 7.5t8.5 5t7 2t5 -0.5q6 -6 7 -21q1 -3 1 -15q4 -165 2 -407q0 -391 -30 -800q-21 -116 -87 -233z" />
    <glyph glyph-name="uni0628" unicode="&#x628;" horiz-adv-x="1770" 
d="M1593 879q12 0 48.5 -95.5t61.5 -228.5t3 -212q-51 -191 -265 -271t-633 -80q-67 0 -115.5 1.5t-126.5 9.5t-134 21.5t-123 41.5t-109 66t-77 97.5t-43 133.5t9.5 177t65.5 225q13 31 37 21.5t14 -39.5q-42 -113 -43.5 -203t24.5 -148t85.5 -100t117.5 -63t144 -33
t142 -14t132 -2q458 0 661 60q97 25 130 60q14 76 -57 237q-31 70 -71 145l52 96q55 97 70 97zM1054 -296l-146 -146l-147 147l146 146z" />
    <glyph glyph-name="uni0629" unicode="&#x629;" horiz-adv-x="874" 
d="M785 427q9 -106 -16.5 -191.5t-76.5 -139.5t-118.5 -83t-145.5 -29q-69 0 -131 26t-104.5 73t-60 113.5t2.5 147.5q22 94 79 226q25 54 51 100l52 95q53 96 72 96q4 0 25 -8t55 -26t73 -42.5t80 -61.5t75 -79t58 -99t30 -118zM439 175q54 0 114.5 12.5t108.5 40.5t48 63
q0 119 -186 240q-73 48 -185 92q-77 -98 -103 -184t-5 -142.5t75.5 -89t132.5 -32.5zM237 1025l-138 139l137 139l140 -140zM584 1025l-140 139l139 139l138 -140z" />
    <glyph glyph-name="uni062A" unicode="&#x62a;" horiz-adv-x="1798" 
d="M1592 879q12 0 48.5 -95.5t61.5 -228.5t3 -212q-51 -191 -265 -271t-633 -80q-67 0 -115.5 1.5t-126.5 9.5t-134 21.5t-123 41.5t-109 66t-77 97.5t-43 133.5t9.5 177t65.5 225q13 31 37 21.5t14 -39.5q-42 -113 -43.5 -203t24.5 -148t85.5 -100t117.5 -63t144 -33
t142 -14t132 -2q459 0 661 60q97 25 130 60q14 76 -57 237q-31 70 -71 145l52 96q55 97 70 97zM704 660l-138 139l137 139l140 -140zM1051 660l-140 139l139 139l138 -140z" />
    <glyph glyph-name="uni062B" unicode="&#x62b;" horiz-adv-x="1770" 
d="M1591 879q12 0 48.5 -95.5t61.5 -228.5t3 -212q-51 -191 -265 -271t-633 -80q-67 0 -115.5 1.5t-126.5 9.5t-134 21.5t-123 41.5t-109 66t-77 97.5t-43 133.5t9.5 177t65.5 225q13 31 37 21.5t14 -39.5q-42 -113 -43.5 -203t24.5 -148t85.5 -100t117.5 -63t144 -33
t142 -14t132 -2q458 0 661 60q97 25 130 60q14 76 -57 237q-31 70 -71 145l52 96q55 97 70 97zM708 574l-138 139l137 139l140 -140zM1074 574l-140 139l139 139l138 -140zM1024 959l-131 -131l-132 132l131 131z" />
    <glyph glyph-name="uni062C" unicode="&#x62c;" horiz-adv-x="1403" 
d="M220 -98q0 -80 41 -154.5t119.5 -136t207 -98t288.5 -36.5q256 0 501 65q27 7 33.5 0t-10.5 -27q-196 -219 -573 -219q-227 0 -394 71t-250.5 207.5t-61.5 318.5q8 73 31.5 143t80 154t139 152t219.5 128.5t311 92.5q-52 17 -144 57t-161.5 63t-125.5 23q-86 0 -169 -64
q-35 -29 -64 -64q-15 -23 -36.5 -29.5t-30 8.5t4.5 52q51 144 130.5 224.5t181.5 80.5q58 0 138 -26.5t166.5 -65.5t180 -78t208 -68.5t221.5 -32.5q25 0 29.5 -8.5t-2.5 -19.5l-94 -164q-235 0 -427 -33t-317.5 -87.5t-211 -127t-122.5 -148t-37 -153.5zM1007 -52
l-146 -146l-147 147l146 146z" />
    <glyph glyph-name="uni062D" unicode="&#x62d;" horiz-adv-x="1402" 
d="M220 -98q0 -80 41 -154.5t119.5 -136t207 -98t288.5 -36.5q256 0 501 65q27 7 33.5 0t-10.5 -27q-196 -219 -573 -219q-227 0 -394 71t-250.5 207.5t-61.5 318.5q8 73 31.5 143t80 154t139 152t219.5 128.5t311 92.5q-52 17 -144 57t-161.5 63t-125.5 23q-86 0 -169 -64
q-35 -29 -64 -64q-15 -23 -36.5 -29.5t-30 8.5t4.5 52q51 144 130.5 224.5t181.5 80.5q58 0 138 -26.5t166.5 -65.5t180 -78t208 -68.5t221.5 -32.5q25 0 29.5 -8.5t-2.5 -19.5l-94 -164q-235 0 -427 -33t-317.5 -87.5t-211 -127t-122.5 -148t-37 -153.5z" />
    <glyph glyph-name="uni062E" unicode="&#x62e;" horiz-adv-x="1408" 
d="M220 -98q0 -80 41 -154.5t119.5 -136t207 -98t288.5 -36.5q256 0 501 65q27 7 33.5 0t-10.5 -27q-196 -219 -573 -219q-227 0 -394 71t-250.5 207.5t-61.5 318.5q8 73 31.5 143t80 154t139 152t219.5 128.5t311 92.5q-52 17 -144 57t-161.5 63t-125.5 23q-86 0 -169 -64
q-35 -29 -64 -64q-15 -23 -36.5 -29.5t-30 8.5t4.5 52q51 144 130.5 224.5t181.5 80.5q58 0 138 -26.5t166.5 -65.5t180 -78t208 -68.5t221.5 -32.5q25 0 29.5 -8.5t-2.5 -19.5l-94 -164q-235 0 -427 -33t-317.5 -87.5t-211 -127t-122.5 -148t-37 -153.5zM603 1227
l-146 -146l-147 147l146 146z" />
    <glyph glyph-name="uni062F" unicode="&#x62f;" horiz-adv-x="939" 
d="M344 981q53 88 69 88q6 0 52 -35.5t113 -102.5t131 -149.5t109.5 -192t45.5 -213.5q0 -382 -478 -382q-61 0 -110.5 14t-81 36.5t-54 50.5t-33 56t-15 51.5t-3 39t6.5 18.5q6 3 15.5 -3t29 -17t47.5 -22.5t79.5 -20t115.5 -8.5q170 0 239 15q102 22 129 84
q55 134 -194 383q-121 118 -264 221z" />
    <glyph glyph-name="uni0630" unicode="&#x630;" horiz-adv-x="958" 
d="M344 981q53 88 69 88q6 0 52 -35.5t113 -102.5t131 -149.5t109.5 -192t45.5 -213.5q0 -382 -478 -382q-61 0 -110.5 14t-81 36.5t-54 50.5t-33 56t-15 51.5t-3 39t6.5 18.5q6 3 15.5 -3t29 -17t47.5 -22.5t79.5 -20t115.5 -8.5q170 0 239 15q102 22 129 84
q55 134 -194 383q-121 118 -264 221zM528 1342l-146 -146l-147 147l146 146z" />
    <glyph glyph-name="uni0631" unicode="&#x631;" horiz-adv-x="764" 
d="M564 642q7 0 24 -31.5t37 -89t37.5 -127.5t26 -158.5t1.5 -169.5q-8 -102 -50.5 -206.5t-102 -185.5t-125 -146t-123 -100t-93.5 -35q-43 0 -121 48.5t-97 77.5q-7 9 -1.5 20.5t19.5 11.5q90 0 199.5 55.5t196.5 134t146.5 168.5t59.5 155q0 84 -58.5 211.5t-97.5 175.5
q35 68 73 129.5t49 61.5z" />
    <glyph glyph-name="uni0632" unicode="&#x632;" horiz-adv-x="813" 
d="M564 642q7 0 24 -31.5t37 -89t37.5 -127.5t26 -158.5t1.5 -169.5q-8 -102 -50.5 -206.5t-102 -185.5t-125 -146t-123 -100t-93.5 -35q-43 0 -121 48.5t-97 77.5q-7 9 -1.5 20.5t19.5 11.5q90 0 199.5 55.5t196.5 134t146.5 168.5t59.5 155q0 84 -58.5 211.5t-97.5 175.5
q35 68 73 129.5t49 61.5zM665 1003l-146 -146l-147 147l146 146z" />
    <glyph glyph-name="uni0633" unicode="&#x633;" horiz-adv-x="2539" 
d="M2357 869q12 0 40.5 -74.5t51.5 -193t14 -211.5q-17 -186 -109 -288t-215 -102q-135 0 -221 122q-39 57 -57 122q-15 -66 -54 -122q-34 -52 -92.5 -86.5t-137.5 -34.5q-122 0 -184 58q-27 24 -41 59q3 -90 0 -115q-11 -136 -59.5 -246t-134 -191.5t-214.5 -125.5
t-293 -42q-72 0 -141.5 17t-133.5 53t-116 87t-86 123.5t-46 158.5t5.5 196.5t67.5 232.5q5 11 12.5 30.5t14 35.5t15 36.5t16 36.5t16.5 32t17 26t16.5 17t16.5 6t15 -9q8 -8 8.5 -17t-5.5 -26t-14.5 -36t-22.5 -56.5t-26 -78.5q-174 -611 371 -652q170 -13 306 39.5
t214.5 165.5t78.5 269q-12 204 -131 364q103 191 122 191q4 0 17.5 -33t32 -83t47.5 -107.5t62 -107.5t79.5 -83t95.5 -33q43 0 78.5 22t59.5 54.5t44 82.5t31.5 93.5t22.5 98.5q17 81 52 81q19 0 29.5 -26t10.5 -66q0 -43 15.5 -98.5t43 -111t74.5 -93.5t102 -38
q21 0 35 0.5t38.5 4.5t41 11t37.5 21.5t34 35t24 52t14 71.5q6 83 -60 191q-25 41 -68 98l51 96q53 96 72 96z" />
    <glyph glyph-name="uni0634" unicode="&#x634;" horiz-adv-x="2522" 
d="M2357 869q12 0 40.5 -74.5t51.5 -193t14 -211.5q-17 -186 -109 -288t-215 -102q-135 0 -221 122q-39 57 -57 122q-15 -66 -54 -122q-34 -52 -92.5 -86.5t-137.5 -34.5q-122 0 -184 58q-27 24 -41 59q3 -90 0 -115q-11 -136 -59.5 -246t-134 -191.5t-214.5 -125.5
t-293 -42q-72 0 -141.5 17t-133.5 53t-116 87t-86 123.5t-46 158.5t5.5 196.5t67.5 232.5q5 11 12.5 30.5t14 35.5t15 36.5t16 36.5t16.5 32t17 26t16.5 17t16.5 6t15 -9q8 -8 8.5 -17t-5.5 -26t-14.5 -36t-22.5 -56.5t-26 -78.5q-174 -611 371 -652q170 -13 306 39.5
t214.5 165.5t78.5 269q-12 204 -131 364q103 191 122 191q4 0 17.5 -33t32 -83t47.5 -107.5t62 -107.5t79.5 -83t95.5 -33q43 0 78.5 22t59.5 54.5t44 82.5t31.5 93.5t22.5 98.5q17 81 52 81q19 0 29.5 -26t10.5 -66q0 -43 15.5 -98.5t43 -111t74.5 -93.5t102 -38
q21 0 35 0.5t38.5 4.5t41 11t37.5 21.5t34 35t24 52t14 71.5q6 83 -60 191q-25 41 -68 98l51 96q53 96 72 96zM1669 846l-138 139l137 139l140 -140zM2035 846l-140 139l139 139l138 -140zM1985 1231l-131 -131l-132 132l131 131z" />
    <glyph glyph-name="uni0635" unicode="&#x635;" horiz-adv-x="2556" 
d="M2278 808q94 -26 147 -78.5t66 -112t1 -131.5t-36 -131t-58 -117q-52 -92 -145.5 -152t-199.5 -83t-221 -26t-214.5 14t-175.5 43.5t-109 56.5v-89q0 -280 -181.5 -444.5t-508.5 -160.5q-71 0 -140.5 17t-133.5 52.5t-116.5 86.5t-86.5 124t-46.5 159t5.5 197t68 233
q5 11 12.5 30t14 35t15 36.5t16 36t16.5 32t17 26.5t16.5 16.5t16.5 6t15 -8.5q8 -8 8.5 -17t-5.5 -26t-14.5 -36t-22.5 -56.5t-26 -78.5q-174 -611 371 -652q170 -14 306 38.5t214.5 166.5t78.5 269q-2 31 -7 61t-13.5 57.5t-17 51t-21 47.5t-21.5 40t-22.5 36t-20 29
t-18.5 24.5t-13 17.5q34 67 72.5 129t51.5 62t34.5 -71t64 -173t99.5 -159q45 59 115 135t169.5 164.5t198 156.5t203 103t182.5 13zM2403 404q16 60 -36.5 118t-144.5 82q-97 26 -202 -3t-184.5 -82.5t-156.5 -128t-114 -120t-61 -77.5v-1q181 -25 331 -25t248 20t169 56
t105.5 76t45.5 85z" />
    <glyph glyph-name="uni0636" unicode="&#x636;" horiz-adv-x="2566" 
d="M2278 808q94 -26 147 -78.5t66 -112t1 -131.5t-36 -131t-58 -117q-52 -92 -145.5 -152t-199.5 -83t-221 -26t-214.5 14t-175.5 43.5t-109 56.5v-89q0 -280 -181.5 -444.5t-508.5 -160.5q-71 0 -140.5 17t-133.5 52.5t-116.5 86.5t-86.5 124t-46.5 159t5.5 197t68 233
q5 11 12.5 30t14 35t15 36.5t16 36t16.5 32t17 26.5t16.5 16.5t16.5 6t15 -8.5q8 -8 8.5 -17t-5.5 -26t-14.5 -36t-22.5 -56.5t-26 -78.5q-174 -611 371 -652q170 -14 306 38.5t214.5 166.5t78.5 269q-2 31 -7 61t-13.5 57.5t-17 51t-21 47.5t-21.5 40t-22.5 36t-20 29
t-18.5 24.5t-13 17.5q34 67 72.5 129t51.5 62t34.5 -71t64 -173t99.5 -159q45 59 115 135t169.5 164.5t198 156.5t203 103t182.5 13zM2403 404q16 60 -36.5 118t-144.5 82q-97 26 -202 -3t-184.5 -82.5t-156.5 -128t-114 -120t-61 -77.5v-1q181 -25 331 -25t248 20t169 56
t105.5 76t45.5 85zM2256 1158l-146 -146l-147 147l146 146z" />
    <glyph glyph-name="uni0637" unicode="&#x637;" horiz-adv-x="1485" 
d="M1122 857q80 0 138.5 -21.5t90.5 -55.5t49.5 -79t20.5 -89t-2 -90t-12.5 -76.5t-15.5 -52.5q-25 -61 -54 -111t-83.5 -108t-122 -97t-173 -65.5t-233.5 -26.5q-262 0 -412 24q-43 6 -77 14l-20 6q-87 24 -129.5 66.5t-69.5 111.5q-7 17 -1 26t21 6q105 -25 323 -41
q10 11 26 33.5t29 40.5t15 20q23 33 33 98t10 120v42q-4 317 -36 658q-17 125 -30 199q19 21 76 78q5 4 14 12t14 12t13 11t12.5 10.5t11.5 9t10 7t8.5 4.5t6.5 2t5 -1q2 -3 4 -21q1 -3 1 -15l12 -219q13 -252 9 -529q0 -220 -53 -325q349 412 571 412zM1314 419
q7 18 7.5 45.5t-11 61.5t-35.5 62t-73.5 45.5t-117.5 14.5q-63 -3 -127 -25t-115.5 -50.5t-107.5 -74.5t-92 -80.5t-81 -87t-62.5 -75t-47.5 -61.5q32 -5 74 -6q60 -5 213 -5q95 0 176.5 11t136.5 26.5t101 40.5t71.5 44t47 46t28 38.5t15.5 29.5z" />
    <glyph glyph-name="uni0638" unicode="&#x638;" horiz-adv-x="1481" 
d="M1122 857q80 0 138.5 -21.5t90.5 -55.5t49.5 -79t20.5 -89t-2 -90t-12.5 -76.5t-15.5 -52.5q-25 -61 -54 -111t-83.5 -108t-122 -97t-173 -65.5t-233.5 -26.5q-262 0 -412 24q-43 6 -77 14l-20 6q-87 24 -129.5 66.5t-69.5 111.5q-7 17 -1 26t21 6q105 -25 323 -41
q10 11 26 33.5t29 40.5t15 20q23 33 33 98t10 120v42q-4 317 -36 658q-17 125 -30 199q19 21 76 78q5 4 14 12t14 12t13 11t12.5 10.5t11.5 9t10 7t8.5 4.5t6.5 2t5 -1q2 -3 4 -21q1 -3 1 -15l12 -219q13 -252 9 -529q0 -220 -53 -325q349 412 571 412zM1314 419
q7 18 7.5 45.5t-11 61.5t-35.5 62t-73.5 45.5t-117.5 14.5q-63 -3 -127 -25t-115.5 -50.5t-107.5 -74.5t-92 -80.5t-81 -87t-62.5 -75t-47.5 -61.5q32 -5 74 -6q60 -5 213 -5q95 0 176.5 11t136.5 26.5t101 40.5t71.5 44t47 46t28 38.5t15.5 29.5zM1242 1181l-146 -146
l-147 147l146 146z" />
    <glyph glyph-name="uni0639" unicode="&#x639;" horiz-adv-x="1214" 
d="M1177 -456q24 5 30 -2t-7 -26q-60 -85 -193 -152t-306 -67q-316 0 -485 139t-169 374q0 164 109 301t277 218q-88 43 -146.5 114t-58.5 168q0 55 38 129.5t94.5 141t129.5 113t137 46.5q207 0 320 -203q7 -14 4.5 -24t-18.5 -13t-49 11q-84 42 -231 42q-104 0 -195 -69
t-91 -130q0 -26 34 -66t88 -77t133.5 -56t158.5 -2l97 22q75 16 143 35q4 4 9 2.5t2 -11.5q-6 -32 -27 -87l-25 -80q-266 -57 -371 -89q-382 -115 -460 -314q-21 -54 -21 -114t37 -118t109 -109t195.5 -82.5t279.5 -31.5q82 0 158 8.5t109.5 15.5t95.5 24.5t65 18.5z" />
    <glyph glyph-name="uni063A" unicode="&#x63a;" horiz-adv-x="1186" 
d="M1195 -456q24 5 30 -2t-7 -26q-60 -85 -193 -152t-306 -67q-316 0 -485 139t-169 374q0 164 109 301t277 218q-88 43 -146.5 114t-58.5 168q0 55 38 129.5t94.5 141t129.5 113t137 46.5q207 0 320 -203q7 -14 4.5 -24t-18.5 -13t-49 11q-84 42 -231 42q-104 0 -195 -69
t-91 -130q0 -26 34 -66t88 -77t133.5 -56t158.5 -2l97 22q75 16 143 35q4 4 9 2.5t2 -11.5q-6 -32 -27 -87l-25 -80q-266 -57 -371 -89q-382 -115 -460 -314q-21 -54 -21 -114t37 -118t109 -109t195.5 -82.5t279.5 -31.5q82 0 158 8.5t109.5 15.5t95.5 24.5t65 18.5z
M814 1345l-146 -146l-147 147l146 146z" />
    <glyph glyph-name="uni0640" unicode="&#x640;" horiz-adv-x="682" 
d="M684 192q12 0 12 -8v-174q0 -10 -12 -10h-689q-11 0 -11 10v174q0 8 11 8h689z" />
    <glyph glyph-name="uni0641" unicode="&#x641;" horiz-adv-x="1770" 
d="M1706 513q5 -46 0 -100q-7 -81 -41.5 -146t-83.5 -108.5t-121.5 -75.5t-144 -49.5t-164.5 -28t-168.5 -13.5t-169.5 -3q-89 0 -152.5 3t-164.5 19t-167.5 44.5t-133.5 86t-92 137.5t-14.5 204t72.5 280q6 20 22 23.5t26 -9.5t2 -32q-42 -112 -42 -202.5t28.5 -148
t89.5 -99.5t121 -63t144.5 -33t138 -14.5t122.5 -2.5q95 0 172 2.5t171 9.5t165.5 22t136.5 37.5t105.5 58.5t51.5 83l-15 -8q-87 -36 -232 -36q-68 0 -121.5 18t-85 44.5t-51.5 62.5t-27 67.5t-7 63.5q0 170 87.5 290.5t211.5 120.5q63 0 117 -32t90.5 -83.5t64 -118.5
t41.5 -135.5t18 -135.5zM1600 577q-22 69 -56 130q-32 55 -81.5 93t-112.5 38q-90 0 -140 -54t-50 -117q0 -77 53 -105t159 -28q149 0 216 35zM1488 1360l-146 -146l-147 147l146 146z" />
    <glyph glyph-name="uni0642" unicode="&#x642;" horiz-adv-x="1347" 
d="M956 788q59 0 109 -32t83.5 -83t60.5 -118.5t42 -134.5t25 -135.5t13.5 -116.5t3.5 -82q0 -183 -49 -317.5t-142.5 -215.5t-218.5 -119.5t-286 -38.5q-84 0 -164 24t-152 70t-122 120t-74.5 167t-10 219.5t72.5 268.5q5 12 13 31.5t14.5 35t15 35.5t16 35t16 30.5
t16.5 25.5t16.5 16.5t16.5 6.5t16 -7t8.5 -16t-5.5 -25.5t-14.5 -36t-22.5 -56.5t-26 -78q-174 -611 370 -652q246 -22 409 94.5t181 331.5q-1 0 -16.5 -4.5t-29.5 -8t-38 -9t-46 -9.5t-49.5 -6.5t-52.5 -2.5q-154 0 -233 74t-75 231q2 111 50.5 226t120.5 188.5t138 73.5z
M1156 233q-16 96 -52 178q-77 180 -191 180q-67 0 -124 -71.5t-59 -156.5q-4 -95 48 -133t165 -38q137 0 202 35zM764 1046l-138 139l137 139l140 -140zM1111 1046l-140 139l139 139l138 -140z" />
    <glyph glyph-name="uni0643" unicode="&#x643;" horiz-adv-x="1815" 
d="M1720 1403q5 -358 4.5 -603t-11.5 -415v-1q-1 -17 -7 -54l-6 -33q-15 -59 -43.5 -106t-76 -79.5t-90.5 -56.5t-115 -38t-119 -22.5t-133.5 -12t-128 -4t-130.5 -0.5h-44q-67 0 -115 1.5t-126 9.5t-133.5 21.5t-122.5 41.5t-109.5 66t-78 97.5t-43 133.5t9.5 177t65 225
q8 20 23 23t25 -10t4 -32q-33 -88 -40.5 -162.5t5.5 -128.5t47 -97t73.5 -71t98 -48t107 -30.5t113 -16.5t105 -7t92.5 -1q45 0 147.5 -2t163 -2t140 6.5t134.5 21.5q78 21 133 80t53 150q-19 780 -37 872q18 20 67 69q71 65 84 70q6 2 8 -1q7 -12 7 -31zM690 542l85 50
l25 16q-44 24 -73.5 67.5t-26.5 94.5q3 61 78.5 139.5t141.5 75.5q107 -5 162 -114q4 -8 2 -13.5t-10 -6.5t-25 7q-43 25 -120 28q-55 2 -104 -31t-51 -66q-1 -13 15.5 -35t44 -43t69 -32.5t83.5 -4.5l51 8q33 5 76 15q3 1 5.5 0.5t0.5 -5.5l-17 -48q-9 -23 -15 -44
q-276 -49 -424 -148z" />
    <glyph glyph-name="uni0644" unicode="&#x644;" horiz-adv-x="1328" 
d="M1206 1411q-6 -676 -9 -906q-4 -304 -5 -418q10 -326 -147 -492t-473 -166q-101 0 -190 28.5t-159.5 92t-107 153.5t-27 224t74.5 293q57 149 86 189q31 44 54 21q8 -8 8.5 -17t-5.5 -26t-14.5 -36t-22.5 -56.5t-26 -77.5q-17 -61 -27 -111.5t-13.5 -108.5t5.5 -104
t33.5 -91.5t66 -77t108.5 -53.5t156 -29q135 -10 239 18.5t167.5 89t94 146t25.5 191.5q-1 19 -7 120.5t-15 251t-16 275.5l-33 565l74 71q6 5 17 14.5t17.5 15t15.5 13t14.5 12t12 8.5t11 6t7.5 2t4 -1q6 -10 6 -29z" />
    <glyph glyph-name="uni0645" unicode="&#x645;" horiz-adv-x="1162" 
d="M766 755q67 0 135.5 -66t113 -172t44.5 -212q0 -95 -31 -172t-82.5 -112.5t-107.5 -15.5q-382 129 -425 144q-33 11 -56.5 16t-45 3.5t-32.5 -16t-11 -42.5q0 -5 0.5 -33.5t1 -72t0.5 -86.5v-307q0 -153 -7 -181q-13 -32 -57 -82q-7 -7 -22 -23.5t-24 -25.5l-18 389
q-17 308 -17 429q0 104 37.5 161t95.5 75q62 20 132 7q117 180 158 234q125 160 218 161zM907 182q38 -13 57 45q23 72 -3 166q-33 119 -123 158q-35 15 -77 15q-62 0 -157 -127q-54 -73 -87 -126l150 -51q138 -50 240 -80z" />
    <glyph glyph-name="uni0646" unicode="&#x646;" horiz-adv-x="1351" 
d="M1155 640q7 0 21.5 -26.5t32 -78.5t34 -117.5t27.5 -154.5t11 -178q0 -687 -692 -687q-62 0 -123 13.5t-119.5 39t-107.5 66.5t-88 93.5t-61.5 122t-27.5 149t14 178.5t63 207q5 11 12.5 30.5t14 35t15 36t16 35.5t16.5 31t17 26t16.5 17t16.5 6.5t15 -7.5q8 -8 8.5 -17
t-5.5 -26t-14.5 -36t-22.5 -56.5t-26 -78.5q-174 -611 371 -652q170 -14 306 38.5t214.5 166.5t78.5 269q-2 34 -9 68.5t-15 62t-22 57.5t-23.5 49t-26 44t-23.5 35t-21 28.5t-15 19.5q103 191 122 191zM796 482l-146 -146l-147 147l146 146z" />
    <glyph glyph-name="uni0647" unicode="&#x647;" horiz-adv-x="830" 
d="M748 427q9 -106 -16.5 -191.5t-76.5 -139.5t-118.5 -83t-145.5 -29q-69 0 -131 26t-104.5 73t-60 113.5t2.5 147.5q22 94 79 226q25 54 51 100l52 95q53 96 72 96q4 0 25 -8t55 -26t73 -42.5t80 -61.5t75 -79t58 -99t30 -118zM402 175q54 0 114.5 12.5t108.5 40.5t48 63
q0 119 -186 240q-73 48 -185 92q-77 -98 -103 -184t-5 -142.5t75.5 -89t132.5 -32.5z" />
    <glyph glyph-name="uni0648" unicode="&#x648;" horiz-adv-x="849" 
d="M426 788q70 0 126.5 -43t91.5 -114t60 -150t36.5 -162.5t16.5 -139t5 -92.5q0 -109 -31 -211t-80 -176t-107 -135.5t-115 -99.5t-101 -58.5t-68 -20.5h-3q-40 2 -118 51t-95 75q-7 11 -2.5 21t19.5 13h7h2q3 -1 5 -1q49 0 98 17q57 18 112 44t116.5 68t110.5 92.5t88 121
t54 150.5l-20 -8q-102 -37 -211 -37q-313 0 -306 307q2 110 51.5 225.5t121 189t136.5 73.5zM632 233q-21 95 -56 178q-32 76 -82 127.5t-112 51.5q-65 0 -122.5 -71.5t-59.5 -157.5q-4 -94 47.5 -132t164.5 -38q140 0 207 35z" />
    <glyph glyph-name="uni0649" unicode="&#x649;" horiz-adv-x="1662" 
d="M1453 10q26 -57 29.5 -117t-16 -117.5t-57.5 -111.5t-98 -100t-133.5 -82t-167.5 -58.5t-197 -28.5q-100 -6 -186.5 1t-169.5 33t-145 71t-106 119t-59.5 172t2 235t70.5 303q89 277 137 275q7 0 13 -6q7 -3 5.5 -18t-5.5 -28.5t-12.5 -39.5t-17.5 -50.5t-20.5 -61.5
t-19.5 -73q-13 -53 -22 -101t-14 -109t-2.5 -114t15.5 -109t38 -101t68.5 -84.5t101.5 -64t142 -35t187 -1.5q119 10 219 36t163 58.5t107.5 68.5t63 66t18.5 52q0 24 -38.5 40t-96.5 23.5t-126 22t-126.5 34t-98 61t-40.5 101.5q-1 105 30 209t84 187.5t126 147.5t152 96
t165.5 26.5t163.5 -55.5q7 -12 1 -56.5t-25 -87t-36 -29.5q-60 34 -132 30t-147.5 -43t-138 -92t-104 -116t-45.5 -116q-3 -35 39 -58.5t109 -39t136.5 -33t131.5 -50.5t85 -81z" />
    <glyph glyph-name="uni064A" unicode="&#x64a;" horiz-adv-x="1677" 
d="M1453 10q26 -57 29.5 -117t-16 -117.5t-57.5 -111.5t-98 -100t-133.5 -82t-167.5 -58.5t-197 -28.5q-100 -6 -186.5 1t-169.5 33t-145 71t-106 119t-59.5 172t2 235t70.5 303q89 277 137 275q7 0 13 -6q7 -3 5.5 -18t-5.5 -28.5t-12.5 -39.5t-17.5 -50.5t-20.5 -61.5
t-19.5 -73q-13 -53 -22 -101t-14 -109t-2.5 -114t15.5 -109t38 -101t68.5 -84.5t101.5 -64t142 -35t187 -1.5q119 10 219 36t163 58.5t107.5 68.5t63 66t18.5 52q0 24 -38.5 40t-96.5 23.5t-126 22t-126.5 34t-98 61t-40.5 101.5q-1 105 30 209t84 187.5t126 147.5t152 96
t165.5 26.5t163.5 -55.5q7 -12 1 -56.5t-25 -87t-36 -29.5q-60 34 -132 30t-147.5 -43t-138 -92t-104 -116t-45.5 -116q-3 -35 39 -58.5t109 -39t136.5 -33t131.5 -50.5t85 -81zM696 -1161l-138 139l137 139l140 -140zM1043 -1161l-140 139l139 139l138 -140z" />
    <glyph glyph-name="uni064B" unicode="&#x64b;" 
d="M344 1156l-392 -161v102l392 156v-97zM344 1396l-392 -161v103l392 154v-96z" />
    <glyph glyph-name="uni064C" unicode="&#x64c;" 
d="M358 1128l-18 3l-15 1q-51 -72 -140.5 -114.5t-183.5 -42.5h-17q-10 0 -17 1l-2 6q28 73 28 128q0 53 -22 53q-41 0 -131 -49l-4 4l17 95q30 18 70.5 35t56.5 17q66 0 66 -119q0 -47 -7 -82q41 -2 108 22t113 60q-96 23 -132 55.5t-36 82.5q0 61 53 115.5t119 54.5
q39 0 64 -27.5t34 -63.5t9 -79q0 -42 -10 -75q8 -2 48 -4zM153 1328q0 -10 6 -21.5t21 -27.5t49 -32t83 -27q5 11 5 29q0 51 -27.5 88.5t-63.5 37.5q-29 0 -51 -14.5t-22 -32.5z" />
    <glyph glyph-name="uni064D" unicode="&#x64d;" 
d="M351 -521l-392 -161v102l392 155v-96zM351 -281l-392 -161v103l392 154v-96z" />
    <glyph glyph-name="uni064E" unicode="&#x64e;" 
d="M377 1188l-392 -161v103l392 155v-97z" />
    <glyph glyph-name="uni064F" unicode="&#x64f;" 
d="M283 1143q-74 -96 -272 -169q-24 0 -73.5 6.5t-55.5 16.5l-2 7q250 100 325 154q-81 15 -118.5 46t-37.5 87q0 72 55.5 125t119.5 53q44 0 78 -45t34 -139q0 -25 -8 -55q-10 -40 -27 -63q-9 -13 -18 -24zM110 1335q0 -66 162 -97q3 12 3 23q0 46 -28 87t-62 41
q-29 0 -52 -17.5t-23 -36.5z" />
    <glyph glyph-name="uni0650" unicode="&#x650;" 
d="M390 -337l-392 -161v103l392 155v-97z" />
    <glyph glyph-name="uni0651" unicode="&#x651;" 
d="M349 1422q4 0 19.5 -29.5t30 -77.5t14.5 -87q0 -78 -34.5 -124.5t-85.5 -50.5q-44 -6 -66.5 4t-39.5 36q-30 -62 -116 -64q-39 -1 -66 9t-39.5 30.5t-19 40.5t-4.5 49.5t5 47t8 42.5q1 4 13 27q15 24 30 10v-30t-1 -56t14.5 -53.5t47.5 -22.5q24 1 41 10t25.5 19.5t14 33
t7 36.5t3.5 45q0 14 6.5 24.5t17.5 11.5q8 2 15.5 -9t10.5 -28q1 -4 3.5 -17t3.5 -17.5t3.5 -16.5t4.5 -17t6 -14.5t8 -13.5l10 -10t12 -8.5t14.5 -4t18.5 -0.5q8 1 22.5 2.5t20.5 3.5q43 14 40 43q-1 25 -32 89q0 1 -30 52l18 43q17 38 26 42z" />
    <glyph glyph-name="uni0652" unicode="&#x652;" 
d="M189 1393q25 0 51 -10.5t51.5 -32.5t41.5 -64t16 -97q0 -44 -18 -78.5t-45 -53t-53 -28t-47 -9.5q-71 0 -110 49.5t-39 122.5q0 51 15.5 92t40 63.5t49.5 34t47 11.5zM190 1123q45 0 81 25t36 41q0 9 -14 32t-47.5 47t-74.5 24q-31 0 -60 -22.5t-29 -58.5q0 -34 27.5 -61
t80.5 -27z" />
    <glyph glyph-name="uni0653" unicode="&#x653;" 
d="M271 1435q46 0 91 16t68 28.5t27 8.5t-1.5 -18.5t-21.5 -35.5t-40 -41.5t-64 -36.5t-87 -21q-45 -6 -132.5 5t-113.5 9q-29 -1 -57.5 -28t-47.5 -51t-28 -21q-10 4 2 59.5t42.5 110t63.5 54.5q44 0 145.5 -19t153.5 -19z" />
    <glyph glyph-name="uni0654" unicode="&#x654;" 
d="M-38 1214l85 50l25 16q-44 24 -73.5 67.5t-26.5 94.5q3 61 78.5 139.5t141.5 75.5q107 -5 162 -114q4 -8 2 -13.5t-10 -6.5t-25 7q-43 25 -120 28q-55 2 -104 -31t-51 -66q-1 -13 15.5 -35t44 -43t69 -32.5t83.5 -4.5v-1l51 9q58 11 76 15q3 1 5.5 0.5t0.5 -5.5l-17 -48
q-9 -23 -15 -44q-276 -49 -424 -148z" />
    <glyph glyph-name="uni0655" unicode="&#x655;" 
d="M44 -562l85 50l25 16q-44 24 -73.5 67.5t-26.5 94.5q3 61 78.5 139.5t141.5 75.5q107 -5 162 -114q4 -8 2 -13.5t-10 -6.5t-25 7q-43 25 -120 28q-55 2 -104 -31t-51 -66q-1 -13 15.5 -35t44 -43t69 -32.5t83.5 -4.5v-1l51 9q58 11 76 15q3 1 5.5 0.5t0.5 -5.5l-17 -48
q-9 -23 -15 -44q-276 -49 -424 -148z" />
    <glyph glyph-name="uni0656" unicode="&#x656;" 
d="M17 -800q-10 -10 -10 0q-6 224 -20 360q-7 87 -20 183q25 18 58 37q63 35 68 32q4 -2 5 -9v-7q5 -110 4 -200q0 -110 -24 -288q-7 -29 -25.5 -60t-35.5 -48z" />
    <glyph glyph-name="uni0660" unicode="&#x660;" horiz-adv-x="703" 
d="M609 521l-265 -265l-263 264l264 264z" />
    <glyph glyph-name="uni0661" unicode="&#x661;" horiz-adv-x="762" 
d="M508 -29q-7 -22 -21.5 -27.5t-26 4t-11.5 24.5q-6 532 -169 979q-69 191 -165 347q40 45 80 81q7 6 18.5 16t18 15.5t16.5 14.5t14.5 12t13 8.5t10.5 4.5t7 -1q5 -5 36.5 -73.5t79.5 -192.5t87 -280t59 -336t-4 -361q-28 -189 -43 -235z" />
    <glyph glyph-name="uni0662" unicode="&#x662;" horiz-adv-x="1136" 
d="M1026 1422q9 -107 -6.5 -208t-55 -187t-114.5 -140.5t-175 -60.5q-100 -5 -180 19q71 -342 35 -614q-27 -187 -43 -235q-7 -22 -21.5 -27.5t-26 4t-11.5 24.5q0 342 -65 623.5t-155 484.5q-9 15 -21.5 44t-17.5 40q-29 63 -53 100l-21 34q12 12 39.5 40t40.5 41
q87 77 98 70l2 -4q1 -2 2.5 -5.5t3.5 -6.5l22 -48l48 -104q64 -136 142 -205.5t195 -69.5q59 0 105.5 23t75.5 61.5t48 91.5t26.5 108.5t7.5 118.5q0 33 25 40q26 7 41 -22q7 -13 9 -30z" />
    <glyph glyph-name="uni0663" unicode="&#x663;" horiz-adv-x="1384" 
d="M1310 1338q6 -38 3 -91t-9 -110.5t-25 -115.5t-45 -105.5t-69 -81t-96 -42.5q-35 -5 -70.5 3.5t-68.5 31t-56.5 67.5t-29.5 106q-17 -62 -50.5 -105.5t-76 -64.5t-80.5 -29.5t-79 -8.5q-36 0 -78 17q70 -337 35 -611q-5 -30 -13.5 -85.5t-15.5 -92t-14 -57.5
q-7 -23 -22 -28t-26.5 4.5t-11.5 24.5q-6 632 -235 1143q-12 21 -24 49q-36 73 -54 101l-21 33q58 60 81 81q83 79 97 70q2 0 9 -15l26 -59l57 -126q42 -98 112 -166.5t150 -68.5q51 0 91 32t64 86t37.5 109t20.5 117q2 24 5.5 41t16 31t32.5 9q29 -6 29 -93q0 -50 9 -105.5
t27 -109.5t50.5 -89.5t73.5 -35.5q52 0 87 27t51.5 77t22.5 105t5 128v32q0 64 33 64q36 0 45 -93z" />
    <glyph glyph-name="uni0664" unicode="&#x664;" horiz-adv-x="1030" 
d="M273 296q0 75 52 203q53 131 123 231q-135 56 -216 120t-81 116q0 63 32 162q32 96 74 157q93 132 380 278q9 -29 9 -61q0 -50 -21.5 -98t-54.5 -75l-78 -62q-147 -111 -217 -173q53 -57 126 -90t183 -57l70 -150q-101 -116 -182 -241q-83 -128 -83 -180q0 -51 91 -91
q91 -39 218 -39q132 0 228 26l26 -45q-12 -11 -29.5 -36.5t-36 -50t-43.5 -49t-61 -39.5t-80 -15q-429 0 -429 259z" />
    <glyph glyph-name="uni0665" unicode="&#x665;" horiz-adv-x="1108" 
d="M113 494q0 185 71 398q74 214 181 353q109 144 207 144q108 0 191 -86t130 -248q48 -163 48 -342q0 -253 -62 -369q-61 -115 -172 -190t-230 -75q-190 0 -277 101.5t-87 313.5zM508 321q128 0 218 85q43 40 69 95q27 55 27 84q0 222 -89 377q-88 153 -223 153
q-58 0 -122 -85q-64 -81 -112 -225q-48 -141 -48 -248q0 -236 280 -236z" />
    <glyph glyph-name="uni0666" unicode="&#x666;" horiz-adv-x="1091" 
d="M829 -23q-96 239 -141 442q-45 205 -45 420q0 151 41 364q-108 -15 -263 -15q-103 0 -206 20q-98 19 -154 48l60 217q165 -63 300 -63q180 0 376 26l32 -42q-29 -123 -37 -183q-7 -55 -7 -123q0 -307 49 -528q49 -226 147 -418z" />
    <glyph glyph-name="uni0667" unicode="&#x667;" horiz-adv-x="1253" 
d="M1064 1506q8 6 27 -18.5t49 -72.5q11 -17 31 -52.5t29 -50.5q-133 -166 -247 -378q-252 -479 -282 -945q-2 -28 -18.5 -43t-35.5 -14.5t-35 16t-17 41.5q-20 461 -276 936q-108 202 -252 387q9 15 29 50.5t31 52.5q30 47 49.5 71.5t26.5 19.5q10 -10 43.5 -53.5
t99.5 -150.5t125 -231.5t110.5 -307.5t66.5 -368q15 185 67 368t111 307.5t125 232t99.5 150.5t43.5 53z" />
    <glyph glyph-name="uni0668" unicode="&#x668;" horiz-adv-x="1248" 
d="M177 -38q-8 -6 -29 21t-47 70q-11 17 -31 52.5t-29 50.5q133 166 247 378q252 469 282 945q1 37 27 50.5t52 -1.5t27 -49q20 -460 276 -936q108 -202 252 -387q-9 -15 -29 -50.5t-31 -52.5q-25 -42 -47 -69.5t-29 -21.5q-10 10 -43.5 53.5t-99.5 150.5t-125 231.5
t-110.5 307.5t-66.5 368q-15 -185 -67 -368t-111 -307.5t-125 -232t-99.5 -150.5t-43.5 -53z" />
    <glyph glyph-name="uni0669" unicode="&#x669;" horiz-adv-x="1055" 
d="M856 319q43 -81 97 -129q-10 -51 -30 -142q-32 -136 -46 -106q-70 63 -122 169q-121 233 -142 626q-106 -44 -213 -47q-314 0 -307 307q2 109 51 224.5t121.5 189.5t137.5 74q58 0 105.5 -26t79.5 -66.5t58 -100t40 -114.5t25 -123t14.5 -113t7.5 -97t5 -62
q16 -272 118 -464zM603 930q-10 93 -39 178q-71 179 -206 179q-65 0 -122.5 -72.5t-59.5 -157.5q-4 -94 48.5 -131.5t165.5 -37.5q138 0 200 35z" />
    <glyph glyph-name="uni066A" unicode="&#x66a;" horiz-adv-x="967" 
d="M213 -20q-56 45 -86 118q332 692 635 1245q30 -21 48.5 -58t18.5 -73q0 -20 -8 -34l-89 -171q-352 -672 -519 -1027zM880 261l-187 -187l-189 188l187 188zM473 1114l-187 -187l-189 188l187 188z" />
    <glyph glyph-name="uni066B" unicode="&#x66b;" horiz-adv-x="772" 
d="M52 -215l482 1084h144l-481 -1084h-145z" />
    <glyph glyph-name="uni066C" unicode="&#x66c;" horiz-adv-x="387" 
d="M363 -185q0 -44 -37 -84q-48 -54 -122 -54q-85 0 -134 64q-44 55 -44 147q0 218 182 316q23 12 60 14q36 3 36 -14q-9 -11 -39 -38q-109 -94 -109 -230q40 13 79 13q128 0 128 -134z" />
    <glyph glyph-name="uni066D" unicode="&#x66d;" horiz-adv-x="965" 
d="M487 1098l93 -324l335 12l5 -10l-281 -188l113 -316l-9 -6l-264 207l-262 -207l-8 6l113 316l-277 186l4 12l334 -12l92 324h12z" />
    <glyph glyph-name="uni066E" unicode="&#x66e;" horiz-adv-x="1768" 
d="M1591 879q12 0 48.5 -95.5t61.5 -228.5t3 -212q-51 -191 -265 -271t-633 -80q-67 0 -115.5 1.5t-126.5 9.5t-134 21.5t-123 41.5t-109 66t-77 97.5t-43 133.5t9.5 177t65.5 225q13 31 37 21.5t14 -39.5q-42 -113 -43.5 -203t24.5 -148t85.5 -100t117.5 -63t144 -33
t142 -14t132 -2q458 0 661 60q97 25 130 60q14 76 -57 237q-31 70 -71 145l52 96q55 97 70 97z" />
    <glyph glyph-name="uni066F" unicode="&#x66f;" horiz-adv-x="1355" 
d="M956 788q59 0 109 -32t83.5 -83t60.5 -118.5t42 -134.5t25 -135.5t13.5 -116.5t3.5 -82q0 -183 -49 -317.5t-142.5 -215.5t-218.5 -119.5t-286 -38.5q-84 0 -164 24t-152 70t-122 120t-74.5 167t-10 219.5t72.5 268.5q5 12 13 31.5t14.5 35t15 35.5t16 35t16 30.5
t16.5 25.5t16.5 16.5t16.5 6.5t16 -7t8.5 -16t-5.5 -25.5t-14.5 -36t-22.5 -56.5t-26 -78q-174 -611 370 -652q246 -22 409 94.5t181 331.5q-1 0 -16.5 -4.5t-29.5 -8t-38 -9t-46 -9.5t-49.5 -6.5t-52.5 -2.5q-154 0 -233 74t-75 231q2 111 50.5 226t120.5 188.5t138 73.5z
M1156 233q-16 96 -52 178q-77 180 -191 180q-67 0 -124 -71.5t-59 -156.5q-4 -95 48 -133t165 -38q137 0 202 35z" />
    <glyph glyph-name="uni0670" unicode="&#x670;" 
d="M61 1010q-8 -8 -8 0q-3 135 -16 270q-3 36 -16 137q30 20 46 28q49 27 55 24q3 -3 4 -7v-5q3 -145 3 -150q0 -59 -19 -216q-7 -30 -49 -81z" />
    <glyph glyph-name="uni0671" unicode="&#x671;" horiz-adv-x="518" 
d="M263 -20q-5 -7 -8.5 -8.5t-5 1t-1.5 6.5q-7 564 -32 956q-13 220 -25 370q69 70 82 81q6 5 14 12t14 12t13.5 12t12.5 11t12 9l10.5 7.5t8.5 5t7 2t5 -0.5q6 -6 7 -21q1 -3 1 -15q4 -165 2 -407q0 -391 -30 -800q-21 -116 -87 -233zM470 1807q35 -47 35 -113
q0 -55 -26 -85q-28 -35 -84 -52q-37 -8 -82 -8q-64 4 -117.5 34t-97.5 31q-11 0 -21 -3.5t-20.5 -12t-17.5 -14.5t-18.5 -18.5t-15.5 -16.5q-17 -20 -36 -6q-17 12 -1 36q47 72 83 104.5t77 32.5q12 0 47 -16q51 76 102 115t111 39q47 0 82 -47zM402 1660q41 8 58 26
q-35 65 -92 65q-64 0 -141 -71q28 -15 86 -21q61 -5 89 1z" />
    <glyph glyph-name="uni0679" unicode="&#x679;" horiz-adv-x="1794" 
d="M1601 879q12 0 48.5 -95.5t61.5 -228.5t3 -212q-51 -191 -265 -271t-633 -80q-67 0 -115.5 1.5t-126.5 9.5t-134 21.5t-123 41.5t-109 66t-77 97.5t-43 133.5t9.5 177t65.5 225q13 31 37 21.5t14 -39.5q-42 -113 -43.5 -203t24.5 -148t85.5 -100t117.5 -63t144 -33
t142 -14t132 -2q458 0 661 60q97 25 130 60q14 76 -57 237q-31 70 -71 145l52 96q55 97 70 97zM1099 1046q56 0 92 -21t48.5 -50.5t14 -66t-3.5 -61t-11 -42.5q-13 -32 -28 -58t-43 -56t-63 -50.5t-90 -34t-122 -13.5q-137 0 -214 13q-7 1 -16 2t-14 2t-9 2l-11 4
q-44 12 -67 34t-36 58q-3 9 0 13.5t12 2.5q47 -13 165 -20q7 7 23 28l15 20q23 33 23 113v22q-1 56 -3.5 99.5t-4.5 63.5t-6 52.5t-6 47.5q-8 71 -13 103q13 17 37 41q44 38 50 36l2 -12q1 -1 1 -7l7 -114q3 -69 3 -197q0 -110 -27 -168q179 214 295 214zM1199 818
q2 9 4 23.5t-5.5 31.5t-19.5 31.5t-37.5 23.5t-60.5 8q-42 -2 -86 -21t-75 -41t-67.5 -58.5t-52 -55t-40.5 -49.5q-3 -3 -4.5 -5.5t-3.5 -4.5l39 -3q38 -3 110 -3q240 0 299 123z" />
    <glyph glyph-name="uni067E" unicode="&#x67e;" horiz-adv-x="1838" 
d="M1616 879q12 0 48.5 -95.5t61.5 -228.5t3 -212q-51 -191 -265 -271t-633 -80q-67 0 -115.5 1.5t-126.5 9.5t-134 21.5t-123 41.5t-109 66t-77 97.5t-43 133.5t9.5 177t65.5 225q13 31 37 21.5t14 -39.5q-42 -113 -43.5 -203t24.5 -148t85.5 -100t117.5 -63t144 -33
t142 -14t132 -2q459 0 661 60q97 25 130 60q14 76 -57 237q-31 70 -71 145l52 96q55 97 70 97zM896 -308l-140 -140l-137 139l138 139zM1254 -308l-138 -140l-139 139l140 139zM946 -674l-131 131l132 132l131 -131z" />
    <glyph glyph-name="uni0686" unicode="&#x686;" horiz-adv-x="1383" 
d="M220 -98q0 -80 41 -154.5t119.5 -136t207 -98t288.5 -36.5q256 0 501 65q27 7 33.5 0t-10.5 -27q-196 -219 -573 -219q-227 0 -394 71t-250.5 207.5t-61.5 318.5q8 73 31.5 143t80 154t139 152t219.5 128.5t311 92.5q-52 17 -144 57t-161.5 63t-125.5 23q-86 0 -169 -64
q-35 -29 -64 -64q-15 -23 -36.5 -29.5t-30 8.5t4.5 52q51 144 130.5 224.5t181.5 80.5q58 0 138 -26.5t166.5 -65.5t180 -78t208 -68.5t221.5 -32.5q25 0 29.5 -8.5t-2.5 -19.5l-94 -164q-235 0 -427 -33t-317.5 -87.5t-211 -127t-122.5 -148t-37 -153.5zM787 8l-140 -140
l-137 139l138 139zM1145 8l-138 -140l-139 139l140 139zM837 -358l-131 131l132 132l131 -131z" />
    <glyph glyph-name="uni0688" unicode="&#x688;" horiz-adv-x="962" 
d="M352 981q53 88 69 88q6 0 52 -35.5t113 -102.5t131 -149.5t109.5 -192t45.5 -213.5q0 -382 -478 -382q-61 0 -110.5 14t-81 36.5t-54 50.5t-33 56t-15 51.5t-3 39t6.5 18.5q6 3 15.5 -3t29 -17t47.5 -22.5t79.5 -20t115.5 -8.5q170 0 239 15q102 22 129 84
q55 134 -194 383q-121 118 -264 221zM624 1601q56 0 92 -21t48.5 -50.5t14 -66t-3.5 -61t-11 -42.5q-13 -32 -28 -58t-43 -56t-63 -50.5t-90 -34t-122 -13.5q-137 0 -214 13q-7 1 -16 2t-14 2t-9 2l-11 4q-44 12 -67 34t-36 58q-3 9 0 13.5t12 2.5q47 -13 165 -20q7 7 22 27
l16 21q23 33 23 113v22q-1 56 -3.5 99.5t-4.5 63.5t-6 52.5t-6 47.5q-8 71 -13 103q13 17 37 41q44 38 50 36l2 -12q1 -1 1 -7l7 -114q3 -69 3 -197q0 -110 -27 -168q179 214 295 214zM724 1373q2 9 4 23.5t-5.5 31.5t-19.5 31.5t-37.5 23.5t-60.5 8q-42 -2 -86 -21t-75 -41
t-67.5 -58.5t-52 -55t-40.5 -49.5q-5 -7 -8 -10l39 -3q38 -3 110 -3q240 0 299 123z" />
    <glyph glyph-name="uni0691" unicode="&#x691;" horiz-adv-x="792" 
d="M564 642q7 0 24 -31.5t37 -89t37.5 -127.5t26 -158.5t1.5 -169.5q-8 -102 -50.5 -206.5t-102 -185.5t-125 -146t-123 -100t-93.5 -35q-43 0 -121 48.5t-97 77.5q-7 9 -1.5 20.5t19.5 11.5q90 0 199.5 55.5t196.5 134t146.5 168.5t59.5 155q0 84 -58.5 211.5t-97.5 175.5
q35 68 73 129.5t49 61.5zM575 1217q56 0 92 -21t48.5 -50.5t14 -66t-3.5 -61t-11 -42.5q-13 -32 -28 -58t-43 -56t-63 -50.5t-90 -34t-122 -13.5q-137 0 -214 13q-7 1 -16 2t-14 2t-9 2l-11 4q-44 12 -67 34t-36 58q-3 9 0 13.5t12 2.5q47 -13 165 -20q7 7 23 27l15 21
q23 33 23 113v22q-1 56 -3.5 99.5t-4.5 63.5t-6 52.5t-6 47.5q-8 71 -13 103q13 17 37 41q44 38 50 36l2 -12q1 -1 1 -7l7 -114q3 -69 3 -197q0 -110 -27 -168q179 214 295 214zM675 989q2 9 4 23.5t-5.5 31.5t-19.5 31.5t-37.5 23.5t-60.5 8q-42 -2 -86 -21t-75 -41
t-67.5 -58.5t-52 -55t-40.5 -49.5q-3 -3 -4.5 -5.5t-3.5 -4.5l39 -3q37 -3 110 -3q240 0 299 123z" />
    <glyph glyph-name="uni0698" unicode="&#x698;" horiz-adv-x="845" 
d="M564 642q7 0 24 -31.5t37 -89t37.5 -127.5t26 -158.5t1.5 -169.5q-8 -102 -50.5 -206.5t-102 -185.5t-125 -146t-123 -100t-93.5 -35q-43 0 -121 48.5t-97 77.5q-7 9 -1.5 20.5t19.5 11.5q90 0 199.5 55.5t196.5 134t146.5 168.5t59.5 155q0 84 -58.5 211.5t-97.5 175.5
q35 68 73 129.5t49 61.5zM349 785l-138 139l137 139l140 -140zM715 785l-140 139l139 139l138 -140zM665 1170l-131 -131l-132 132l131 131z" />
    <glyph glyph-name="uni06A9" unicode="&#x6a9;" horiz-adv-x="2056" 
d="M2050 1539q9 -9 -12 -95l-23 -89l-633 -267q49 -59 86 -106.5t90.5 -128.5t87 -150.5t56 -155t16.5 -160.5q-4 -67 -25.5 -122t-49.5 -95t-79.5 -71.5t-93 -51.5t-114 -34t-118.5 -20.5t-130 -10t-125.5 -4t-125.5 -0.5h-37q-67 0 -115 1.5t-126 9.5t-133.5 21.5
t-122.5 41.5t-109.5 66t-78 97.5t-43 133.5t9.5 177t65 225q8 20 23 23t25 -10t4 -32q-33 -88 -40.5 -162.5t5.5 -128.5t47 -97t73.5 -71t98 -48t107 -30.5t113 -16.5t105 -7t92.5 -1q37 0 115 -1q80 -3 160.5 -1t155.5 5.5t140.5 18.5t114.5 37.5t78.5 62.5t32.5 94
q3 81 -41.5 170t-112 162t-133.5 131t-120 98.5t-57 44.5q-12 14 9 95l23 79l424 191q429 191 441 182z" />
    <glyph glyph-name="uni06AA" unicode="&#x6aa;" horiz-adv-x="2445" 
d="M629 -20q-316 0 -422 22q-107 23 -146 68q-39 46 -39 110l3 41q267 -57 628 -57q384 0 831 17q416 16 748 55q-34 102 -115.5 150t-222.5 48q-151 0 -489 -19q-355 -20 -512 -20q-163 0 -234 51.5t-71 171.5q0 188 190 355q93 85 235 157q137 70 255 99q6 -31 6 -61
q0 -127 -109 -173q-82 -32 -230 -115q-127 -71 -194 -127.5t-67 -90.5q0 -32 88 -56t174 -24q101 0 472 17t480 17q120 2 219.5 -39t158 -119t56.5 -177q0 -79 -51 -195q-331 -49 -760 -78q-424 -28 -821 -28h-61z" />
    <glyph glyph-name="uni06AF" unicode="&#x6af;" horiz-adv-x="2048" 
d="M2050 1539q9 -9 -12 -95l-23 -89l-633 -267q49 -59 86 -106.5t90.5 -128.5t87 -150.5t56 -155t16.5 -160.5q-4 -67 -25.5 -122t-49.5 -95t-79.5 -71.5t-93 -51.5t-114 -34t-118.5 -20.5t-130 -10t-125.5 -4t-125.5 -0.5h-37q-67 0 -115 1.5t-126 9.5t-133.5 21.5
t-122.5 41.5t-109.5 66t-78 97.5t-43 133.5t9.5 177t65 225q8 20 23 23t25 -10t4 -32q-33 -88 -40.5 -162.5t5.5 -128.5t47 -97t73.5 -71t98 -48t107 -30.5t113 -16.5t105 -7t92.5 -1q37 0 115 -1q80 -3 160.5 -1t155.5 5.5t140.5 18.5t114.5 37.5t78.5 62.5t32.5 94
q3 81 -41.5 170t-112 162t-133.5 131t-120 98.5t-57 44.5q-12 14 9 95l23 79l424 191q429 191 441 182zM1967 1753l-752 -330l24 145l743 325z" />
    <glyph glyph-name="uni06BA" unicode="&#x6ba;" horiz-adv-x="1366" 
d="M1155 640q7 0 21.5 -26.5t32 -78.5t34 -117.5t27.5 -154.5t11 -178q0 -687 -692 -687q-62 0 -123 13.5t-119.5 39t-107.5 66.5t-88 93.5t-61.5 122t-27.5 149t14 178.5t63 207q5 11 12.5 30.5t14 35t15 36t16 35.5t16.5 31t17 26t16.5 17t16.5 6.5t15 -7.5q8 -8 8.5 -17
t-5.5 -26t-14.5 -36t-22.5 -56.5t-26 -78.5q-174 -611 371 -652q170 -14 306 38.5t214.5 166.5t78.5 269q-2 34 -9 68.5t-15 62t-22 57.5t-23.5 49t-26 44t-23.5 35t-21 28.5t-15 19.5q103 191 122 191z" />
    <glyph glyph-name="uni06BE" unicode="&#x6be;" horiz-adv-x="1293" 
d="M534 942q8 -2 37.5 -11.5t84.5 -31.5t116.5 -50.5t130 -69.5t128.5 -88t107.5 -107.5t72.5 -124.5t18 -143t-51 -160q-31 -57 -79.5 -93.5t-102.5 -47.5t-106.5 -13t-103.5 8.5t-81 19t-51 16.5q-44 -25 -149 -26t-237.5 26.5t-232.5 78.5l-44 183q176 -116 419 -116
q-51 36 -72 101.5t-18 125t19 119.5q19 66 81 152q32 42 59 73l-84 28q33 45 60 78q59 78 79 73zM785 360q16 49 -1 123.5t-55.5 132.5t-77.5 64q-91 14 -159.5 -36t-84.5 -137q-10 -56 11.5 -101.5t67.5 -76.5t91 -50t102 -34q17 4 39 19q42 27 67 96zM1126 226
q14 31 14.5 64t-10.5 62t-28.5 56.5t-43 52.5t-49.5 45.5t-51 39t-46.5 30t-36.5 20.5q27 -90 -14 -243q-10 -36 -41 -100l-27 -53q77 -20 141 -27q52 -12 113 -0.5t79 53.5z" />
    <glyph glyph-name="uni06C0" unicode="&#x6c0;" horiz-adv-x="843" 
d="M748 427q9 -106 -16.5 -191.5t-76.5 -139.5t-118.5 -83t-145.5 -29q-69 0 -131 26t-104.5 73t-60 113.5t2.5 147.5q22 94 79 226q25 54 51 100l52 95q53 96 72 96q4 0 25 -8t55 -26t73 -42.5t80 -61.5t75 -79t58 -99t30 -118zM402 175q54 0 114.5 12.5t108.5 40.5t48 63
q0 119 -186 240q-73 48 -185 92q-77 -98 -103 -184t-5 -142.5t75.5 -89t132.5 -32.5zM145 1078l85 50l25 16q-44 24 -73.5 67.5t-26.5 94.5q3 61 78.5 139.5t141.5 75.5q107 -5 162 -114q4 -8 2 -13.5t-10 -6.5t-25 7q-43 25 -120 28q-55 2 -104 -31t-51 -66
q-1 -13 15.5 -35t44 -43t69 -32.5t83.5 -4.5l51 8q33 5 76 15q3 1 5.5 0.5t0.5 -5.5l-17 -48q-9 -23 -15 -44q-276 -49 -424 -148z" />
    <glyph glyph-name="uni06C1" unicode="&#x6c1;" horiz-adv-x="913" 
d="M913 192q27 0 27 -25v-141q0 -26 -27 -26q-76 0 -142 19t-109 48t-82 62t-65.5 62t-56 48t-55.5 19q-146 0 -250 -246q-10 -24 -35 -24q-17 0 -27.5 12t-10.5 30q0 9 6 25q71 190 180.5 293.5t216.5 103.5q51 0 109 -34t107 -100q97 -126 214 -126z" />
    <glyph glyph-name="uni06C2" unicode="&#x6c2;" horiz-adv-x="909" 
d="M913 192q27 0 27 -25v-141q0 -26 -27 -26q-76 0 -142 19t-109 48t-82 62t-65.5 62t-56 48t-55.5 19q-146 0 -250 -246q-10 -24 -35 -24q-17 0 -27.5 12t-10.5 30q0 9 6 25q71 190 180.5 293.5t216.5 103.5q51 0 109 -34t107 -100q97 -126 214 -126zM271 610l85 50l25 16
q-44 24 -73.5 67.5t-26.5 94.5q3 61 78.5 139.5t141.5 75.5q107 -5 162 -114q4 -8 2 -13.5t-10 -6.5t-25 7q-43 25 -120 28q-55 2 -104 -31t-51 -66q-1 -13 15.5 -35t44 -43t69 -32.5t83.5 -4.5l51 8q33 5 76 15q3 1 5.5 0.5t0.5 -5.5l-17 -48q-9 -23 -15 -44
q-276 -49 -424 -148z" />
    <glyph glyph-name="uni06C3.001" unicode="&#x6c3;" horiz-adv-x="822" 
d="M743 427q9 -106 -16.5 -191.5t-76.5 -139.5t-118.5 -83t-145.5 -29q-69 0 -131 26t-104.5 73t-60 113.5t2.5 147.5q22 94 79 226q25 54 51 100l52 95q53 96 72 96q4 0 25 -8t55 -26t73 -42.5t80 -61.5t75 -79t58 -99t30 -118zM397 175q54 0 114.5 12.5t108.5 40.5t48 63
q0 119 -186 240q-73 48 -185 92q-77 -98 -103 -184t-5 -142.5t75.5 -89t132.5 -32.5zM173 928l-138 139l137 139l140 -140zM520 928l-140 139l139 139l138 -140z" />
    <glyph glyph-name="uni06CC" unicode="&#x6cc;" horiz-adv-x="1654" 
d="M1453 10q26 -57 29.5 -117t-16 -117.5t-57.5 -111.5t-98 -100t-133.5 -82t-167.5 -58.5t-197 -28.5q-100 -6 -186.5 1t-169.5 33t-145 71t-106 119t-59.5 172t2 235t70.5 303q89 277 137 275q7 0 13 -6q7 -3 5.5 -18t-5.5 -28.5t-12.5 -39.5t-17.5 -50.5t-20.5 -61.5
t-19.5 -73q-13 -53 -22 -101t-14 -109t-2.5 -114t15.5 -109t38 -101t68.5 -84.5t101.5 -64t142 -35t187 -1.5q119 10 219 36t163 58.5t107.5 68.5t63 66t18.5 52q0 24 -38.5 40t-96.5 23.5t-126 22t-126.5 34t-98 61t-40.5 101.5q-1 105 30 209t84 187.5t126 147.5t152 96
t165.5 26.5t163.5 -55.5q7 -12 1 -56.5t-25 -87t-36 -29.5q-60 34 -132 30t-147.5 -43t-138 -92t-104 -116t-45.5 -116q-3 -35 39 -58.5t109 -39t136.5 -33t131.5 -50.5t85 -81z" />
    <glyph glyph-name="uni06D2" unicode="&#x6d2;" horiz-adv-x="1737" 
d="M1667 276q25 -51 7 -107q-20 -53 -87 -89q-66 -35 -290 -67q-220 -31 -437 -31q-178 0 -368 18q-191 18 -319 48q-128 32 -128 60q0 42 27 146q28 104 51 127q79 79 198 135q37 17 139 51q79 27 136 49q34 15 68 49t55 74q12 20 36 20q18 0 30.5 -12.5t12.5 -30.5
q0 -2 -2 -12l-2 -6q-35 -103 -84 -159t-127 -80q-170 -51 -248 -88q-75 -35 -180 -105q133 -55 304 -78q170 -22 432 -22q185 0 397 30q205 29 379 80z" />
    <glyph glyph-name="uni06D3" unicode="&#x6d3;" horiz-adv-x="1818" 
d="M1700 276q25 -51 7 -107q-20 -53 -87 -89q-66 -35 -290 -67q-220 -31 -437 -31q-177 0 -368 18t-319 48q-128 32 -128 60q0 42 27 146q28 104 51 127q80 79 198 135q37 17 139 51q79 27 136 49q34 15 68 49t55 74q12 20 36 20q18 0 30.5 -12.5t12.5 -30.5q0 -2 -2 -12
l-2 -6q-35 -103 -84 -159t-127 -80q-170 -51 -248 -88q-75 -35 -180 -105q133 -55 304 -78q170 -22 432 -22q186 0 397 30q205 29 379 80zM337 825l85 50l25 16q-44 24 -73.5 67.5t-26.5 94.5q3 61 78.5 139.5t141.5 75.5q107 -5 162 -114q4 -8 2 -13.5t-10 -6.5t-25 7
q-43 25 -120 28q-55 2 -104 -31t-51 -66q-1 -13 15.5 -35t44 -43t69 -32.5t83.5 -4.5l51 8q33 5 76 15q3 1 5.5 0.5t0.5 -5.5l-17 -48q-9 -23 -15 -44q-276 -49 -424 -148z" />
    <glyph glyph-name="uni06D5" unicode="&#x6d5;" horiz-adv-x="812" 
d="M713 427q9 -106 -16.5 -191.5t-76.5 -139.5t-118.5 -83t-145.5 -29q-69 0 -131 26t-104.5 73t-60 113.5t2.5 147.5q22 94 79 226q25 54 51 100l52 95q53 96 72 96q4 0 25 -8t55 -26t73 -42.5t80 -61.5t75 -79t58 -99t30 -118zM367 175q54 0 114.5 12.5t108.5 40.5t48 63
q0 119 -186 240q-73 48 -185 92q-77 -98 -103 -184t-5 -142.5t75.5 -89t132.5 -32.5z" />
    <glyph glyph-name="uni06E0" unicode="&#x6e0;" 
d="M98 1120h-196v197h196v-197z" />
    <glyph glyph-name="uni06F0" unicode="&#x6f0;" horiz-adv-x="718" 
d="M609 541l-265 -265l-263 264l264 264z" />
    <glyph glyph-name="uni06F1" unicode="&#x6f1;" horiz-adv-x="730" 
d="M508 -29q-7 -22 -21.5 -27.5t-26 4t-11.5 24.5q-6 532 -169 979q-69 191 -165 347q40 45 80 81q7 6 18.5 16t18 15.5t16.5 14.5t14.5 12t13 8.5t10.5 4.5t7 -1q5 -5 36.5 -73.5t79.5 -192.5t87 -280t59 -336t-4 -361q-28 -189 -43 -235z" />
    <glyph glyph-name="uni06F2" unicode="&#x6f2;" horiz-adv-x="1086" 
d="M1026 1422q9 -107 -6.5 -208t-55 -187t-114.5 -140.5t-175 -60.5q-100 -5 -180 19q71 -342 35 -614q-27 -187 -43 -235q-7 -22 -21.5 -27.5t-26 4t-11.5 24.5q0 342 -65 623.5t-155 484.5q-9 15 -21.5 44t-17.5 40q-29 63 -53 100l-21 34q12 12 39.5 40t40.5 41
q87 77 98 70l2 -4q1 -2 2.5 -5.5t3.5 -6.5l22 -48l48 -104q64 -136 142 -205.5t195 -69.5q59 0 105.5 23t75.5 61.5t48 91.5t26.5 108.5t7.5 118.5q0 33 25 40q26 7 41 -22q7 -13 9 -30z" />
    <glyph glyph-name="uni06F3" unicode="&#x6f3;" horiz-adv-x="1368" 
d="M1310 1338q6 -38 3 -91t-9 -110.5t-25 -115.5t-45 -105.5t-69 -81t-96 -42.5q-35 -5 -70.5 3.5t-68.5 31t-56.5 67.5t-29.5 106q-17 -62 -50.5 -105.5t-76 -64.5t-80.5 -29.5t-79 -8.5q-36 0 -78 17q70 -337 35 -611q-5 -30 -13.5 -85.5t-15.5 -92t-14 -57.5
q-7 -23 -22 -28t-26.5 4.5t-11.5 24.5q-6 632 -235 1143q-12 21 -24 49q-36 73 -54 101l-21 33q58 60 81 81q83 79 97 70q2 0 9 -15l26 -59l57 -126q42 -98 112 -166.5t150 -68.5q51 0 91 32t64 86t37.5 109t20.5 117q2 24 5.5 41t16 31t32.5 9q29 -6 29 -93q0 -50 9 -105.5
t27 -109.5t50.5 -89.5t73.5 -35.5q52 0 87 27t51.5 77t22.5 105t5 128v32q0 64 33 64q36 0 45 -93z" />
    <glyph glyph-name="uni06F4" unicode="&#x6f4;" horiz-adv-x="1282" 
d="M1220 963q9 3 10 -1q2 -2 2 -6l-67 -192q-100 -52 -165 -68q-68 -18 -139 -18q-209 0 -391 125q66 -332 31 -595q-24 -167 -43 -236q-7 -23 -22 -28t-26.5 5t-11.5 25q-6 539 -167 978q-72 197 -166 348q69 69 81 80q7 6 18.5 16t18 15.5t16.5 14.5t14.5 12t13 8.5
t10.5 4.5t7 -1q7 -7 53 -108l104 -237q29 78 94 164.5t150.5 150t155.5 63.5q96 0 175.5 -45t143.5 -157q7 -15 4.5 -25t-18 -12.5t-47.5 11.5q-84 42 -232 42q-67 0 -136 -55t-108.5 -120t-39.5 -105q0 -15 48.5 -49.5t126.5 -65.5t143 -31q47 0 90 4t77 11.5t61 15
t50 18.5t36 17.5t28 15.5t17 10z" />
    <glyph glyph-name="uni06F5" unicode="&#x6f5;" horiz-adv-x="1253" 
d="M1173 493q15 -237 -77 -391.5t-231 -154.5q-37 0 -67 7.5t-62.5 27.5t-58.5 62.5t-42 104.5q-55 -202 -281 -202q-111 0 -182 65.5t-95 178.5t-4 259q7 51 18.5 102.5t22.5 94t31 96t33 87.5t39.5 89t39 81t44 83.5t42 76t45.5 79t42 73.5q-18 13 -26 18l-9 6
q19 52 48 115q48 111 63 104l6 -5q244 -208 417 -445q244 -334 244 -612zM1082 339q3 85 -24.5 179.5t-78 182t-107 167.5t-123 153t-114 121t-92.5 88q-20 -30 -68 -102.5t-72.5 -111t-65 -105.5t-62.5 -116.5t-47 -112.5t-37 -125t-15 -125q-1 -33 2.5 -65.5t17.5 -71.5
t38.5 -67.5t68.5 -48t103 -19.5q75 0 125.5 79.5t61.5 181.5q7 90 45 90q9 0 15.5 -4.5t10 -15t5.5 -19.5t4 -25.5t4 -25.5q10 -64 34.5 -122.5t69 -102.5t98.5 -44q80 0 139.5 53t63.5 134z" />
    <glyph glyph-name="uni06F6" unicode="&#x6f6;" horiz-adv-x="1069" 
d="M873 916q116 47 125 50l13 5l-56 -239q-156 -52 -310 -156q-347 -246 -546 -655q-5 -17 -24 -11q-23 7 -23 35q0 6 2 13q66 404 417 704l-58 20q-219 67 -249 245q-14 71 31.5 181.5t128.5 201.5t165 106q209 30 349 -149q9 -13 8 -23.5t-15.5 -16t-50.5 4.5
q-79 27 -235 4q-102 -17 -181 -100t-70 -143q7 -35 72 -80.5t162 -68t208 17.5z" />
    <glyph glyph-name="uni06F7" unicode="&#x6f7;" horiz-adv-x="1261" 
d="M1064 1506q8 6 27 -18.5t49 -72.5q11 -17 31 -52.5t29 -50.5q-133 -166 -247 -378q-252 -479 -282 -945q-2 -28 -18.5 -43t-35.5 -14.5t-35 16t-17 41.5q-20 461 -276 936q-108 202 -252 387q9 15 29 50.5t31 52.5q30 47 49.5 71.5t26.5 19.5q10 -10 43.5 -53.5
t99.5 -150.5t125 -231.5t110.5 -307.5t66.5 -368q15 185 67 368t111 307.5t125 232t99.5 150.5t43.5 53z" />
    <glyph glyph-name="uni06F8" unicode="&#x6f8;" horiz-adv-x="1268" 
d="M177 -38q-8 -6 -29 21t-47 70q-11 17 -31 52.5t-29 50.5q133 166 247 378q252 469 282 945q1 37 27 50.5t52 -1.5t27 -49q20 -460 276 -936q108 -202 252 -387q-9 -15 -29 -50.5t-31 -52.5q-25 -42 -47 -69.5t-29 -21.5q-10 10 -43.5 53.5t-99.5 150.5t-125 231.5
t-110.5 307.5t-66.5 368q-15 -185 -67 -368t-111 -307.5t-125 -232t-99.5 -150.5t-43.5 -53z" />
    <glyph glyph-name="uni06F9" unicode="&#x6f9;" horiz-adv-x="1034" 
d="M860 319q43 -81 97 -129q-10 -51 -30 -142q-32 -136 -46 -106q-70 63 -122 169q-121 233 -142 626q-106 -44 -213 -47q-314 0 -307 307q2 109 51 224.5t121.5 189.5t137.5 74q58 0 105.5 -26t79.5 -66.5t58 -100t40 -114.5t25 -123t14.5 -113t7.5 -97t5 -62
q16 -272 118 -464zM607 930q-10 93 -39 178q-71 179 -206 179q-65 0 -122.5 -72.5t-59.5 -157.5q-4 -94 48.5 -131.5t165.5 -37.5q138 0 200 35z" />
    <glyph glyph-name="uni200C" unicode="&#x200c;" horiz-adv-x="67" 
 />
    <glyph glyph-name="endash" unicode="&#x2013;" horiz-adv-x="1135" 
d="M-4 458v145h1139v-145h-1139z" />
    <glyph glyph-name="emdash" unicode="&#x2014;" horiz-adv-x="2049" 
d="M0 458v145h2048v-145h-2048z" />
    <glyph glyph-name="quoteleft" unicode="&#x2018;" horiz-adv-x="401" 
d="M321 1220v-209h-193v165q0 132 32 194q43 81 133 121l44 -70q-56 -24 -81.5 -69.5t-28.5 -131.5h94z" />
    <glyph glyph-name="quoteright" unicode="&#x2019;" horiz-adv-x="390" 
d="M124 1272v209h193v-165q0 -135 -31 -193q-43 -81 -134 -122l-44 71q54 22 80.5 69.5t29.5 130.5h-94z" />
    <glyph glyph-name="quotesinglbase" unicode="&#x201a;" horiz-adv-x="434" 
d="M124 0v209h193v-165q0 -135 -31 -193q-43 -81 -134 -122l-44 71q54 22 80.5 69.5t29.5 130.5h-94z" />
    <glyph glyph-name="quotedblleft" unicode="&#x201c;" horiz-adv-x="668" 
d="M276 1220v-209h-193v165q0 132 32 194q43 81 133 121l44 -70q-56 -24 -81.5 -69.5t-28.5 -131.5h94zM586 1220v-209h-193v165q0 132 32 194q43 81 133 121l44 -70q-56 -24 -81.5 -69.5t-28.5 -131.5h94z" />
    <glyph glyph-name="quotedblright" unicode="&#x201d;" horiz-adv-x="685" 
d="M87 1272v209h193v-165q0 -135 -31 -193q-43 -81 -134 -122l-44 71q54 22 80.5 69.5t29.5 130.5h-94zM397 1272v209h193v-165q0 -135 -31 -193q-43 -81 -134 -122l-44 71q54 22 80.5 69.5t29.5 130.5h-94z" />
    <glyph glyph-name="quotedblbase" unicode="&#x201e;" horiz-adv-x="662" 
d="M87 0v209h193v-165q0 -135 -31 -193q-43 -81 -134 -122l-44 71q54 22 80.5 69.5t29.5 130.5h-94zM397 0v209h193v-165q0 -135 -31 -193q-43 -81 -134 -122l-44 71q54 22 80.5 69.5t29.5 130.5h-94z" />
    <glyph glyph-name="dagger" unicode="&#x2020;" horiz-adv-x="1141" 
d="M472 -346v1212h-399v160h399v406h180v-406h402v-160h-402v-1212h-180z" />
    <glyph glyph-name="daggerdbl" unicode="&#x2021;" horiz-adv-x="1141" 
d="M475 -346v370h-402v161h402v725h-402v161h402v375h180v-375h403v-161h-403v-725h403v-161h-403v-370h-180z" />
    <glyph glyph-name="bullet" unicode="&#x2022;" horiz-adv-x="740" 
d="M109 718q0 105 74 179q77 74 179 74q105 0 179 -74q75 -73 75 -179q0 -105 -75 -180q-74 -74 -179 -74q-102 0 -179 74q-74 77 -74 180z" />
    <glyph glyph-name="ellipsis" unicode="&#x2026;" horiz-adv-x="1932" 
d="M239 0v205h205v-205h-205zM922 0v205h205v-205h-205zM1604 0v205h206v-205h-206z" />
    <glyph glyph-name="perthousand" unicode="&#x2030;" horiz-adv-x="2132" 
d="M320 -54l601 1545h131l-600 -1545h-132zM37 1099q0 199 78 289q79 91 208 91t208 -91q80 -92 80 -285q0 -199 -70 -297t-216 -98q-129 0 -208 93q-80 95 -80 298zM185 1091q0 -153 39 -205q41 -53 105 -53q59 0 91 45q43 58 43 215q0 150 -44 215q-35 47 -94 47
q-62 0 -95 -46q-45 -63 -45 -218zM763 336q0 199 78 289q79 91 207 91q129 0 208 -91q81 -91 81 -285q0 -199 -70 -296.5t-216 -97.5q-128 0 -208 92q-80 95 -80 298zM911 328q0 -151 39 -205q41 -53 105 -53q59 0 91 45q43 61 43 215t-45 215q-35 47 -93 47q-62 0 -95 -46
q-45 -62 -45 -218zM1437 336q0 199 78 289q79 91 208 91t208 -91q80 -92 80 -285q0 -199 -69.5 -296.5t-216.5 -97.5q-128 0 -208 92q-80 95 -80 298zM1585 328q0 -151 39 -205q41 -53 105 -53q59 0 91 45q43 61 43 215q0 153 -44 215q-35 47 -94 47q-62 0 -95 -46
q-45 -62 -45 -218z" />
    <glyph glyph-name="guilsinglleft" unicode="&#x2039;" horiz-adv-x="618" 
d="M291 527l265 -455h-149l-315 455l315 457h149z" />
    <glyph glyph-name="guilsinglright" unicode="&#x203a;" horiz-adv-x="651" 
d="M357 530l-265 454h149l304 -448l-304 -464h-149z" />
    <glyph glyph-name="Euro" unicode="&#x20ac;" horiz-adv-x="1197" 
d="M790 1325q-168 0 -282 -81q-68 -48 -123 -136q-55 -91 -66 -173h682l-27 -134h-671q-1 -15 -1 -40q0 -81 1 -92h644l-28 -134h-595q42 -229 202 -325q116 -69 249 -69q185 0 292 98v-206q-122 -58 -276 -58q-452 0 -611 376q-34 82 -55 184h-153l28 134h105q-3 42 -3 91
q0 26 1 41h-131l28 134h116q62 326 323 468q160 88 355 88q186 0 313 -81l-40 -186q-122 101 -277 101z" />
    <glyph glyph-name="trademark" unicode="&#x2122;" horiz-adv-x="1915" 
d="M489 651v694h-264v121h666v-121h-266v-694h-136zM982 651v815h200l206 -651l199 651h196v-815h-124v684l-210 -684h-123l-219 694v-694h-125z" />
    <glyph glyph-name="uni25CC" unicode="&#x25cc;" horiz-adv-x="1217" 
d="M980 918q0 -50 -48 -50q-52 0 -52 50t52 50q48 0 48 -50zM832 1016q0 -49 -48 -49q-52 0 -52 49q0 51 52 51q48 0 48 -51zM1079 770q0 -51 -51 -51q-49 0 -49 51q0 49 51 49q49 0 49 -49zM1115 596q0 -50 -48 -50q-52 0 -52 50t52 50q48 0 48 -50zM658 1053
q0 -51 -50 -51t-50 51q0 49 50 49t50 -49zM485 1016q0 -49 -51 -49q-49 0 -49 49q0 51 49 51q51 0 51 -51zM1079 422q0 -49 -51 -49q-49 0 -49 49q0 51 49 51q51 0 51 -51zM337 918q0 -50 -50 -50t-50 47q0 53 50 53t50 -50zM980 272q0 -49 -48 -49q-52 0 -52 49q0 51 52 51
q48 0 48 -51zM832 174q0 -48 -48 -48q-52 0 -52 48q0 52 52 52q48 0 48 -52zM238 770q0 -51 -48 -51q-52 0 -52 51q0 49 50 49t50 -49zM202 596q2 -50 -48 -50q-52 0 -52 50t52 50q50 0 48 -50zM658 141q0 -51 -50 -51t-50 51q0 49 50 49t50 -49zM238 422q0 -49 -50 -49
t-50 49q0 51 50 51t50 -51zM485 178q0 -52 -51 -52q-49 0 -49 48q0 52 49 52q51 0 51 -48zM337 272q0 -49 -50 -49t-50 49q0 51 50 51t50 -51z" />
    <glyph glyph-name="uni25FC" unicode="&#x25fc;" horiz-adv-x="1060" 
d="M0 1060h1060v-1060h-1060v1060z" />
    <glyph glyph-name="uniFD3E" unicode="&#xfd3e;" horiz-adv-x="1154" 
d="M250 685q132 21 215 96q95 84 95 210q0 43 -24 147q-35 160 -35 230q0 196 134 335q128 131 324 167v-47q-294 -67 -294 -302q0 -58 23 -176q34 -160 34 -234q0 -304 -366 -454q370 -145 370 -436q0 -62 -39 -275q-16 -83 -16 -148q0 -120 86 -201q86 -80 202 -95v-52
q-199 33 -323 165q-131 140 -131 334q0 73 36 243q20 94 20 159q0 217 -311 286v48z" />
    <glyph glyph-name="uniFD3F" unicode="&#xfd3f;" horiz-adv-x="1104" 
d="M927 638q-311 -69 -311 -286q0 -65 20 -159q36 -169 36 -243q0 -194 -131 -334q-124 -132 -323 -165v52q116 15 202 95q86 81 86 201q0 65 -16 148q-39 213 -39 275q0 291 370 436q-366 150 -366 454q0 74 34 234q23 118 23 176q0 234 -294 302v47q196 -36 324 -167
q134 -139 134 -335q0 -70 -35 -230q-24 -103 -24 -147q0 -126 95 -210q83 -75 215 -96v-48z" />
    <glyph glyph-name="NULL" 
 />
    <glyph glyph-name="CR" horiz-adv-x="602" 
 />
    <glyph glyph-name="feh_dotless.isol" horiz-adv-x="1789" 
d="M1706 513q5 -46 0 -100q-7 -81 -41.5 -146t-83.5 -108.5t-121.5 -75.5t-144 -49.5t-164.5 -28t-168.5 -13.5t-169.5 -3q-89 0 -152.5 3t-164.5 19t-167.5 44.5t-133.5 86t-92 137.5t-14.5 204t72.5 280q6 20 22 23.5t26 -9.5t2 -32q-42 -112 -42 -202.5t28.5 -148
t89.5 -99.5t121 -63t144.5 -33t138 -14.5t122.5 -2.5q95 0 172 2.5t171 9.5t165.5 22t136.5 37.5t105.5 58.5t51.5 83l-15 -8q-87 -36 -232 -36q-68 0 -121.5 18t-85 44.5t-51.5 62.5t-27 67.5t-7 63.5q0 170 87.5 290.5t211.5 120.5q63 0 117 -32t90.5 -83.5t64 -118.5
t41.5 -135.5t18 -135.5zM1600 577q-22 69 -56 130q-32 55 -81.5 93t-112.5 38q-90 0 -140 -54t-50 -117q0 -77 53 -105t159 -28q149 0 216 35z" />
    <glyph glyph-name="uni06A1.fina" horiz-adv-x="1843" 
d="M1873 192v-192h-142q-79 0 -187 31q-23 6 -92 33q-209 -82 -614 -82q-67 0 -115.5 1.5t-126 9.5t-133 21.5t-122.5 41.5t-109 66t-77 97.5t-43 133.5t9.5 177t65.5 225q14 32 37 22t13 -40q-42 -112 -42 -202.5t28.5 -148t90 -99.5t121 -63t144 -33t138 -14.5t121.5 -2.5
q317 0 439 29q-4 4 -24.5 23.5t-30.5 32.5t-25 36.5t-22 54t-7 68.5q0 49 12.5 107.5t38 119t60.5 110.5t84 81.5t104 31.5q57 0 104 -28.5t77 -73t50.5 -102t29 -113t8.5 -108.5q0 -28 -3 -52.5t-10 -46t-12.5 -35.5t-18 -33t-18 -26.5t-21.5 -26.5t-19 -23q36 -8 106 -8
h133zM1465 266q44 21 83 51q83 67 83 135q0 73 -62 144t-137 71q-80 0 -134 -59t-54 -149q0 -78 110 -142q54 -31 111 -51z" />
    <glyph glyph-name="onedot.above" horiz-adv-x="1024" 
d="M628 937l-146 -146l-147 147l146 146z" />
    <glyph glyph-name="twodots.above" horiz-adv-x="1024" 
d="M327 793l-138 139l137 139l140 -140zM674 793l-140 139l139 139l138 -140z" />
    <glyph glyph-name="threedots.above" horiz-adv-x="1151" 
d="M400 790l-138 139l137 139l140 -140zM766 790l-140 139l139 139l138 -140zM716 1175l-131 -131l-132 132l131 131z" />
    <glyph glyph-name="threedots.below" horiz-adv-x="1057" 
d="M526 -287l-140 -140l-137 139l138 139zM884 -287l-138 -140l-139 139l140 139zM576 -653l-131 131l132 132l131 -131z" />
    <glyph glyph-name="wasla" 
d="M304 1516q35 -47 35 -113q0 -55 -26 -85q-28 -35 -84 -52q-37 -8 -82 -8q-64 4 -117.5 34t-97.5 31q-11 0 -21 -3.5t-20.5 -12t-17.5 -14.5t-18.5 -18.5t-15.5 -16.5q-17 -20 -36 -6q-17 12 -1 36q47 72 83 104.5t77 32.5q12 0 47 -16q51 76 102 115t111 39q47 0 82 -47z
M236 1369q41 8 58 26q-35 65 -92 65q-64 0 -141 -71q28 -15 86 -21q61 -5 89 1z" />
    <glyph glyph-name="beh_dotless_alt.init" horiz-adv-x="668" 
d="M-101 96q0 40 28 68t68 28h108q348 0 396 87q9 69 -64 245q-55 115 -76 152l53 96q53 96 69 96q7 0 24 -36t37.5 -94.5t38 -131.5t25 -147t-1.5 -141q-9 -60 -45.5 -116t-94.5 -101.5t-143.5 -73t-184.5 -27.5h-141q-40 0 -68 28t-28 68z" />
    <glyph glyph-name="beh_dotless_alt.medi" horiz-adv-x="788" 
d="M-103 96q0 40 28 68t68 28h38q68 0 150 23q165 48 168 164q3 46 -17 127q-11 38 -19 60l49 67q48 69 59 58l2 -8q2 -8 5 -23t6.5 -35t7 -48t7 -58t5.5 -68.5t3 -77.5q0 -7 4 -22.5t21 -44.5t45.5 -53t85.5 -42.5t132 -18.5h51v-192h-7q-129 0 -236 49t-159 123v-3
q-46 -70 -145 -119.5t-229 -49.5h-27q-40 0 -68 28t-28 68z" />
    <glyph glyph-name="onedot.below" horiz-adv-x="818" 
d="M584 -345l-146 -146l-147 147l146 146z" />
    <glyph glyph-name="twodots.below" horiz-adv-x="1024" 
d="M312 -452l-138 139l137 139l140 -140zM651 -452l-140 139l139 139l138 -140z" />
    <glyph glyph-name="alef_alt.isol" horiz-adv-x="523" 
d="M257 -20q-5 -7 -8.5 -8.5t-5 1t-1.5 6.5q-7 564 -32 956q-13 220 -25 370q69 70 82 81q6 5 14 12t14 12t13.5 12t12.5 11t12 9l10.5 7.5t8.5 5t7 2t5 -0.5q6 -6 7 -21q1 -3 1 -15q4 -165 2 -407q0 -391 -30 -800q-21 -116 -87 -233z" />
    </font>
</defs>
</svg>
